<svg width="33" height="33" viewBox="0 0 33 33" fill="none" xmlns="http://www.w3.org/2000/svg">
<path fill-rule="evenodd" clip-rule="evenodd" d="M22.5 12C22.5 13.5913 21.8679 15.1174 20.7426 16.2426C19.6174 17.3679 18.0913 18 16.5 18C14.9087 18 13.3826 17.3679 12.2574 16.2426C11.1321 15.1174 10.5 13.5913 10.5 12C10.5 10.4087 11.1321 8.88258 12.2574 7.75736C13.3826 6.63214 14.9087 6 16.5 6C18.0913 6 19.6174 6.63214 20.7426 7.75736C21.8679 8.88258 22.5 10.4087 22.5 12ZM19.5 12C19.5 12.7957 19.1839 13.5587 18.6213 14.1213C18.0587 14.6839 17.2957 15 16.5 15C15.7044 15 14.9413 14.6839 14.3787 14.1213C13.8161 13.5587 13.5 12.7957 13.5 12C13.5 11.2044 13.8161 10.4413 14.3787 9.87868C14.9413 9.31607 15.7044 9 16.5 9C17.2957 9 18.0587 9.31607 18.6213 9.87868C19.1839 10.4413 19.5 11.2044 19.5 12Z" fill="#F4F4F4"/>
<path fill-rule="evenodd" clip-rule="evenodd" d="M16.5 0C7.3875 0 0 7.3875 0 16.5C0 25.6125 7.3875 33 16.5 33C25.6125 33 33 25.6125 33 16.5C33 7.3875 25.6125 0 16.5 0ZM3 16.5C3 19.635 4.0695 22.521 5.862 24.813C7.12084 23.1598 8.74485 21.8201 10.6071 20.8985C12.4694 19.9768 14.5196 19.4982 16.5975 19.5C18.6485 19.498 20.6729 19.9643 22.5164 20.8632C24.3599 21.7621 25.9739 23.0699 27.2355 24.687C28.5352 22.9824 29.4102 20.9928 29.7883 18.8829C30.1664 16.7729 30.0366 14.6033 29.4097 12.5535C28.7828 10.5036 27.6768 8.63257 26.1832 7.09505C24.6896 5.55754 22.8514 4.39779 20.8206 3.71176C18.7898 3.02574 16.6248 2.83316 14.5048 3.14996C12.3848 3.46676 10.3707 4.28384 8.62915 5.53358C6.88762 6.78332 5.46871 8.4298 4.48984 10.3368C3.51097 12.2438 3.00027 14.3564 3 16.5ZM16.5 30C13.4009 30.0046 10.3954 28.9385 7.992 26.982C8.95939 25.5971 10.247 24.4664 11.7453 23.686C13.2436 22.9057 14.9082 22.4988 16.5975 22.5C18.2657 22.4987 19.9102 22.8954 21.3944 23.6571C22.8785 24.4189 24.1595 25.5238 25.131 26.88C22.7089 28.9 19.6539 30.0044 16.5 30Z" fill="#F4F4F4"/>
</svg>
