<svg width="17" height="11" viewBox="0 0 17 11" fill="none" xmlns="http://www.w3.org/2000/svg">
<path d="M1.29683 8.21659L7.94591 1.22812C8.02507 1.14517 8.11082 1.08628 8.20317 1.05144C8.29551 1.0166 8.39446 0.99946 8.5 1.00001C8.60554 1.00001 8.70449 1.01743 8.79683 1.05227C8.88918 1.08711 8.97493 1.14573 9.05409 1.22812L15.723 8.21659C15.9077 8.41014 16 8.65207 16 8.9424C16 9.23272 15.9011 9.48157 15.7032 9.68894C15.5053 9.89631 15.2744 10 15.0106 10C14.7467 10 14.5158 9.89631 14.3179 9.68894L8.5 3.59217L2.68206 9.68894C2.49736 9.88249 2.26966 9.97926 1.99894 9.97926C1.72823 9.97926 1.49419 9.87557 1.29683 9.6682C1.09894 9.46083 1 9.21889 1 8.9424C1 8.6659 1.09894 8.42396 1.29683 8.21659Z" fill="#F4F4F4" stroke="#F4F4F4"/>
</svg>
