<svg width="32" height="29" viewBox="0 0 32 29" fill="none" xmlns="http://www.w3.org/2000/svg">
<g clip-path="url(#clip0_1834_747)">
<path d="M16.5006 0C12.7506 0 9.71484 3.03571 9.71484 6.78571C9.71484 10.5357 12.7506 13.5714 16.5006 13.5714C20.2506 13.5714 23.2863 10.5357 23.2863 6.78571C23.2863 3.03571 20.2506 0 16.5006 0Z" fill="#F4F4F4"/>
<path d="M19.1434 14.3574H13.8577C8.53627 14.3574 4.21484 18.6789 4.21484 24.0003V27.9289C4.21484 28.536 4.67913 29.0003 5.28627 29.0003H27.7149C28.322 29.0003 28.7863 28.536 28.7863 27.9289V24.0003C28.7863 18.6789 24.4648 14.3574 19.1434 14.3574Z" fill="#F4F4F4"/>
</g>
<defs>
<clipPath id="clip0_1834_747">
<rect width="32" height="29" fill="white"/>
</clipPath>
</defs>
</svg>
