<svg width="28" height="29" viewBox="0 0 28 29" fill="none" xmlns="http://www.w3.org/2000/svg">
<path d="M16.042 2.83301H11.9587C11.313 2.83303 10.69 3.07102 10.2087 3.50147C9.72746 3.93193 9.42173 4.52466 9.34999 5.16634H7.29199C6.5958 5.16634 5.92812 5.4429 5.43584 5.93519C4.94355 6.42747 4.66699 7.09515 4.66699 7.79134V23.5413C4.66699 24.2375 4.94355 24.9052 5.43584 25.3975C5.92812 25.8898 6.5958 26.1663 7.29199 26.1663H20.7087C21.0534 26.1663 21.3947 26.0984 21.7132 25.9665C22.0317 25.8346 22.3211 25.6413 22.5648 25.3975C22.8086 25.1537 23.0019 24.8644 23.1338 24.5459C23.2658 24.2274 23.3337 23.8861 23.3337 23.5413V7.79134C23.3337 7.44662 23.2658 7.10528 23.1338 6.7868C23.0019 6.46832 22.8086 6.17894 22.5648 5.93519C22.3211 5.69143 22.0317 5.49808 21.7132 5.36616C21.3947 5.23424 21.0534 5.16634 20.7087 5.16634H18.6507C18.5789 4.52466 18.2732 3.93193 17.7919 3.50147C17.3107 3.07102 16.6877 2.83303 16.042 2.83301ZM11.9587 4.58301H16.042C16.2741 4.58301 16.4966 4.6752 16.6607 4.83929C16.8248 5.00338 16.917 5.22594 16.917 5.45801C16.917 5.69007 16.8248 5.91263 16.6607 6.07673C16.4966 6.24082 16.2741 6.33301 16.042 6.33301H11.9587C11.7266 6.33301 11.504 6.24082 11.3399 6.07673C11.1758 5.91263 11.0837 5.69007 11.0837 5.45801C11.0837 5.22594 11.1758 5.00338 11.3399 4.83929C11.504 4.6752 11.7266 4.58301 11.9587 4.58301ZM20.1603 10.673C20.3242 10.8371 20.4162 11.0595 20.4162 11.2913C20.4162 11.5232 20.3242 11.7456 20.1603 11.9097L17.827 14.243C17.6629 14.4069 17.4405 14.4989 17.2087 14.4989C16.9768 14.4989 16.7544 14.4069 16.5903 14.243L15.4237 13.0763C15.3377 12.9962 15.2687 12.8996 15.2209 12.7923C15.1731 12.685 15.1474 12.5691 15.1453 12.4516C15.1432 12.3341 15.1648 12.2174 15.2088 12.1085C15.2529 11.9995 15.3184 11.9006 15.4014 11.8175C15.4845 11.7344 15.5835 11.6689 15.6925 11.6249C15.8014 11.5809 15.9181 11.5592 16.0356 11.5613C16.1531 11.5634 16.269 11.5891 16.3763 11.6369C16.4836 11.6848 16.5802 11.7537 16.6603 11.8397L17.2087 12.388L18.9237 10.673C19.0877 10.5091 19.3101 10.4171 19.542 10.4171C19.7739 10.4171 19.9963 10.5091 20.1603 10.673ZM20.1603 18.3263L17.827 20.6597C17.6629 20.8235 17.4405 20.9156 17.2087 20.9156C16.9768 20.9156 16.7544 20.8235 16.5903 20.6597L15.4237 19.493C15.3377 19.4129 15.2687 19.3163 15.2209 19.209C15.1731 19.1016 15.1474 18.9858 15.1453 18.8683C15.1432 18.7508 15.1648 18.6341 15.2088 18.5251C15.2529 18.4162 15.3184 18.3172 15.4014 18.2341C15.4845 18.151 15.5835 18.0855 15.6925 18.0415C15.8014 17.9975 15.9181 17.9759 16.0356 17.978C16.1531 17.9801 16.269 18.0058 16.3763 18.0536C16.4836 18.1014 16.5802 18.1704 16.6603 18.2563L17.2087 18.8047L18.9237 17.0897C19.0038 17.0037 19.1004 16.9348 19.2077 16.8869C19.315 16.8391 19.4309 16.8134 19.5484 16.8113C19.6659 16.8092 19.7826 16.8309 19.8915 16.8749C20.0005 16.9189 20.0994 16.9844 20.1825 17.0675C20.2656 17.1506 20.3311 17.2495 20.3751 17.3585C20.4191 17.4674 20.4408 17.5841 20.4387 17.7016C20.4366 17.8191 20.4109 17.935 20.3631 18.0423C20.3152 18.1496 20.2463 18.2462 20.1603 18.3263ZM8.16699 12.458C8.16699 12.2259 8.25918 12.0034 8.42327 11.8393C8.58737 11.6752 8.80993 11.583 9.04199 11.583H13.1253C13.3574 11.583 13.5799 11.6752 13.744 11.8393C13.9081 12.0034 14.0003 12.2259 14.0003 12.458C14.0003 12.6901 13.9081 12.9126 13.744 13.0767C13.5799 13.2408 13.3574 13.333 13.1253 13.333H9.04199C8.80993 13.333 8.58737 13.2408 8.42327 13.0767C8.25918 12.9126 8.16699 12.6901 8.16699 12.458ZM9.04199 17.9997H13.1253C13.3574 17.9997 13.5799 18.0919 13.744 18.256C13.9081 18.4201 14.0003 18.6426 14.0003 18.8747C14.0003 19.1067 13.9081 19.3293 13.744 19.4934C13.5799 19.6575 13.3574 19.7497 13.1253 19.7497H9.04199C8.80993 19.7497 8.58737 19.6575 8.42327 19.4934C8.25918 19.3293 8.16699 19.1067 8.16699 18.8747C8.16699 18.6426 8.25918 18.4201 8.42327 18.256C8.58737 18.0919 8.80993 17.9997 9.04199 17.9997Z" fill="#F4F4F4"/>
</svg>
