<svg width="240" height="251" viewBox="0 0 240 251" fill="none" xmlns="http://www.w3.org/2000/svg">
<mask id="mask0_4045_4987" style="mask-type:luminance" maskUnits="userSpaceOnUse" x="0" y="11" width="240" height="240">
<path d="M0 11H240V251H0V11Z" fill="white"/>
</mask>
<g mask="url(#mask0_4045_4987)">
<g filter="url(#filter0_d_4045_4987)">
<path d="M124.519 43.7347C124.519 46.31 122.431 48.3975 119.856 48.3975C117.281 48.3975 115.193 46.31 115.193 43.7347C115.193 41.1594 117.281 39.0719 119.856 39.0719C122.431 39.0719 124.519 41.1594 124.519 43.7347Z" fill="#50B5EB"/>
<path d="M120.024 33.9362C125.663 33.9362 130.258 38.3561 130.564 43.9192H137.046C136.889 34.4878 129.199 26.8895 119.73 26.8895C110.261 26.8895 102.571 34.4878 102.414 43.9192H109.483C109.79 38.3561 114.384 33.9362 120.024 33.9362Z" fill="#7EDFF4"/>
<path d="M59.9853 49.7029C59.9853 55.3684 55.3925 59.9612 49.727 59.9612C44.0615 59.9612 39.4688 55.3684 39.4688 49.7029C39.4688 44.0374 44.0615 39.4447 49.727 39.4447C55.3925 39.4447 59.9853 44.0374 59.9853 49.7029Z" fill="#8357FC"/>
<path d="M52.5252 87.1924H46.9297V58.8423H52.5252V87.1924Z" fill="#D8CAFF"/>
<path d="M67.0725 112.931C67.0725 128.176 59.724 140.535 50.6593 140.535C41.5946 140.535 34.2461 128.176 34.2461 112.931C34.2461 97.6859 41.5946 85.3272 50.6593 85.3272C59.724 85.3272 67.0725 97.6859 67.0725 112.931Z" fill="#AD8FFF"/>
<path d="M180.473 49.7029C180.473 55.3684 185.065 59.9612 190.731 59.9612C196.396 59.9612 200.989 55.3684 200.989 49.7029C200.989 44.0374 196.396 39.4447 190.731 39.4447C185.065 39.4447 180.473 44.0374 180.473 49.7029Z" fill="#8357FC"/>
<path d="M187.934 87.1924H193.529V58.8423H187.934V87.1924Z" fill="#D8CAFF"/>
<path d="M173.386 112.931C173.386 128.176 180.734 140.535 189.799 140.535C198.864 140.535 206.212 128.176 206.212 112.931C206.212 97.6859 198.864 85.3272 189.799 85.3272C180.734 85.3272 173.386 97.6859 173.386 112.931Z" fill="#AD8FFF"/>
<path d="M189.426 120.765C189.426 159.084 158.362 190.148 120.043 190.148C81.7239 190.148 50.6602 159.084 50.6602 120.765C50.6602 82.4455 81.7239 51.3817 120.043 51.3817C158.362 51.3817 189.426 82.4455 189.426 120.765Z" fill="url(#paint0_linear_4045_4987)"/>
<path d="M33.8966 231.435C36.8356 233.627 47.5474 224.242 57.8222 210.471C68.0968 196.701 74.0435 183.76 71.1046 181.567C68.1655 179.374 57.4538 188.76 47.1791 202.53C36.9044 216.301 30.9575 229.242 33.8966 231.435Z" fill="#8BE1F5"/>
<path d="M206.496 224.969C203.5 227.083 193.039 217.42 183.13 203.383C173.22 189.348 167.616 176.255 170.612 174.14C173.607 172.025 184.069 181.689 193.978 195.725C203.887 209.761 209.491 222.854 206.496 224.969Z" fill="#8BE1F5"/>
<path d="M149.138 202.458C149.138 207.608 135.945 211.783 119.669 211.783C103.394 211.783 90.2002 207.608 90.2002 202.458C90.2002 197.307 103.394 193.132 119.669 193.132C135.945 193.132 149.138 197.307 149.138 202.458Z" fill="url(#paint1_linear_4045_4987)"/>
<path d="M141.678 222.33C141.678 226.507 131.908 229.893 119.856 229.893C107.804 229.893 98.0342 226.507 98.0342 222.33C98.0342 218.154 107.804 214.768 119.856 214.768C131.908 214.768 141.678 218.154 141.678 222.33Z" fill="url(#paint2_linear_4045_4987)"/>
<path d="M178.981 115.169C174.505 145.757 148.02 135.686 120.229 135.686C94.6769 135.686 65.9539 147.249 60.3584 115.169C60.3584 90.8413 80.1289 73.0171 120.229 73.0171C159.957 73.0171 181.965 95.0258 178.981 115.169Z" fill="url(#paint3_linear_4045_4987)"/>
<path d="M100 110.5C100 111.328 95.9705 112 91.0001 112C86.0295 112 82 111.328 82 110.5C82 109.671 86.0295 110.5 91.0001 110.5C95.9705 110.5 100 109.671 100 110.5Z" fill="url(#paint4_linear_4045_4987)"/>
<path d="M158 110.368C158 111.197 153.971 111.868 149 111.868C144.029 111.868 140 111.197 140 110.368C140 109.54 144.029 110.368 149 110.368C153.971 110.368 158 109.54 158 110.368Z" fill="url(#paint5_linear_4045_4987)"/>
</g>
</g>
<path d="M172.436 42.72V45H164.48V43.32L168.14 38.256H164.6V35.976H172.28V37.656L168.5 42.72H172.436Z" fill="white"/>
<path d="M184.248 28.96V32H173.64V29.76L178.52 23.008H173.8V19.968H184.04V22.208L179 28.96H184.248Z" fill="white"/>
<path d="M199.06 12.2V16H185.8V13.2L191.9 4.76H186V0.959999H198.8V3.76L192.5 12.2H199.06Z" fill="white"/>
<defs>
<filter id="filter0_d_4045_4987" x="30.1455" y="26.8894" width="180.157" height="211.863" filterUnits="userSpaceOnUse" color-interpolation-filters="sRGB">
<feFlood flood-opacity="0" result="BackgroundImageFix"/>
<feColorMatrix in="SourceAlpha" type="matrix" values="0 0 0 0 0 0 0 0 0 0 0 0 0 0 0 0 0 0 127 0" result="hardAlpha"/>
<feOffset dy="4"/>
<feGaussianBlur stdDeviation="1.5"/>
<feComposite in2="hardAlpha" operator="out"/>
<feColorMatrix type="matrix" values="0 0 0 0 0 0 0 0 0 0 0 0 0 0 0 0 0 0 0.25 0"/>
<feBlend mode="normal" in2="BackgroundImageFix" result="effect1_dropShadow_4045_4987"/>
<feBlend mode="normal" in="SourceGraphic" in2="effect1_dropShadow_4045_4987" result="shape"/>
</filter>
<linearGradient id="paint0_linear_4045_4987" x1="139.655" y1="189.324" x2="120.043" y2="51.3817" gradientUnits="userSpaceOnUse">
<stop stop-color="#8BE1F5"/>
<stop offset="0.0001" stop-color="#ACEFFF"/>
<stop offset="1" stop-color="#42DBFF"/>
</linearGradient>
<linearGradient id="paint1_linear_4045_4987" x1="119.669" y1="211.783" x2="119.669" y2="193.132" gradientUnits="userSpaceOnUse">
<stop stop-color="#D0EFFF"/>
<stop offset="1" stop-color="#A7EFFF"/>
</linearGradient>
<linearGradient id="paint2_linear_4045_4987" x1="119.856" y1="229.893" x2="119.856" y2="214.768" gradientUnits="userSpaceOnUse">
<stop stop-color="#F2FAFF"/>
<stop offset="1" stop-color="#CDEFFF"/>
</linearGradient>
<linearGradient id="paint3_linear_4045_4987" x1="119.804" y1="137.715" x2="118.986" y2="74.3102" gradientUnits="userSpaceOnUse">
<stop stop-color="#CEEEFB"/>
<stop offset="1" stop-color="#F7FDFF"/>
</linearGradient>
<linearGradient id="paint4_linear_4045_4987" x1="91" y1="112" x2="91" y2="109" gradientUnits="userSpaceOnUse">
<stop stop-color="#085D94"/>
<stop offset="1" stop-color="#004673"/>
</linearGradient>
<linearGradient id="paint5_linear_4045_4987" x1="149" y1="111.868" x2="149" y2="108.868" gradientUnits="userSpaceOnUse">
<stop stop-color="#085D94"/>
<stop offset="1" stop-color="#004673"/>
</linearGradient>
</defs>
</svg>
