<svg width="11" height="17" viewBox="0 0 11 17" fill="none" xmlns="http://www.w3.org/2000/svg">
<path d="M2.78341 1.29683L9.77188 7.94591C9.85483 8.02507 9.91372 8.11082 9.94856 8.20317C9.9834 8.29551 10.0005 8.39446 9.99999 8.5C9.99999 8.60554 9.98257 8.70449 9.94773 8.79683C9.91289 8.88918 9.85427 8.97493 9.77188 9.05409L2.78341 15.723C2.58986 15.9077 2.34793 16 2.0576 16C1.76728 16 1.51843 15.9011 1.31106 15.7032C1.10369 15.5053 1 15.2744 1 15.0106C1 14.7467 1.10369 14.5158 1.31106 14.3179L7.40783 8.5L1.31106 2.68206C1.11751 2.49736 1.02074 2.26966 1.02074 1.99895C1.02074 1.72823 1.12442 1.49419 1.3318 1.29683C1.53917 1.09894 1.78111 1 2.0576 1C2.3341 1 2.57604 1.09894 2.78341 1.29683Z" fill="#F4F4F4" stroke="#F4F4F4"/>
</svg>
