<svg width="30" height="30" viewBox="0 0 30 30" fill="none" xmlns="http://www.w3.org/2000/svg">
<path d="M20.3831 1.90282C20.6243 1.96305 20.8316 2.11658 20.9596 2.32965C21.0876 2.54272 21.1257 2.7979 21.0656 3.03907L20.5969 4.91407C20.5694 5.03597 20.5179 5.15115 20.4453 5.25285C20.3728 5.35455 20.2806 5.44071 20.1742 5.50628C20.0679 5.57185 19.9495 5.6155 19.826 5.63466C19.7026 5.65383 19.5765 5.64812 19.4553 5.61788C19.3341 5.58763 19.2201 5.53346 19.1201 5.45855C19.0201 5.38364 18.9361 5.28949 18.873 5.18165C18.81 5.07381 18.7691 4.95444 18.7528 4.83057C18.7365 4.7067 18.7451 4.58082 18.7781 4.46032L19.2469 2.58532C19.3071 2.34418 19.4606 2.13682 19.6737 2.00884C19.8868 1.88085 20.1419 1.84272 20.3831 1.90282ZM25.9762 4.02532C26.152 4.20113 26.2507 4.43954 26.2507 4.68814C26.2507 4.93673 26.152 5.17514 25.9762 5.35095L24.1012 7.22595C24.0142 7.31311 23.9108 7.38228 23.7971 7.4295C23.6833 7.47672 23.5613 7.50107 23.4382 7.50116C23.315 7.50124 23.193 7.47707 23.0791 7.43001C22.9653 7.38295 22.8619 7.31393 22.7747 7.22689C22.5986 7.0511 22.4997 6.81258 22.4995 6.5638C22.4993 6.31502 22.598 6.07636 22.7737 5.90032L24.6487 4.02532C24.7358 3.93802 24.8393 3.86875 24.9532 3.82149C25.0671 3.77422 25.1892 3.7499 25.3125 3.7499C25.4358 3.7499 25.5579 3.77422 25.6718 3.82149C25.7857 3.86875 25.8892 3.93802 25.9762 4.02532ZM11.7825 24.4366C12.253 25.22 12.9935 25.8046 13.8647 26.0806C14.7358 26.3566 15.6778 26.3049 16.5136 25.9354C17.3494 25.5658 18.0215 24.9038 18.4036 24.0737C18.7857 23.2435 18.8516 22.3024 18.5887 21.4272L11.7825 24.4347V24.4366ZM10.0575 25.1978L8.18625 26.0266C7.7021 26.2404 7.1646 26.303 6.64428 26.2059C6.12397 26.1089 5.64514 25.8568 5.27062 25.4828L4.52062 24.7347C4.14702 24.3627 3.89462 23.8865 3.79658 23.3685C3.69853 22.8505 3.75942 22.315 3.97125 21.8322L11.2294 5.3172C11.4013 4.9272 11.6657 4.58495 11.9996 4.32002C12.3335 4.05509 12.7269 3.87545 13.1457 3.79663C13.5646 3.7178 13.9964 3.74215 14.4037 3.86759C14.8111 3.99303 15.1818 4.21577 15.4838 4.51657L25.4812 14.4841C25.7824 14.7845 26.0058 15.1538 26.132 15.56C26.2582 15.9663 26.2834 16.3971 26.2055 16.8153C26.1275 17.2335 25.9488 17.6264 25.6847 17.9598C25.4206 18.2933 25.0792 18.5574 24.69 18.7291L20.3119 20.6641C20.7747 21.9979 20.719 23.4569 20.1559 24.7515C19.5928 26.0462 18.5635 27.0817 17.2723 27.6526C15.981 28.2235 14.5224 28.288 13.1858 27.8332C11.8493 27.3785 10.7326 26.4377 10.0575 25.1978ZM27.1875 9.3747H25.3125C25.0639 9.3747 24.8254 9.47347 24.6496 9.64929C24.4738 9.8251 24.375 10.0636 24.375 10.3122C24.375 10.5608 24.4738 10.7993 24.6496 10.9751C24.8254 11.1509 25.0639 11.2497 25.3125 11.2497H27.1875C27.4361 11.2497 27.6746 11.1509 27.8504 10.9751C28.0262 10.7993 28.125 10.5608 28.125 10.3122C28.125 10.0636 28.0262 9.8251 27.8504 9.64929C27.6746 9.47347 27.4361 9.3747 27.1875 9.3747Z" fill="#F4F4F4"/>
</svg>
