<svg width="11" height="17" viewBox="0 0 11 17" fill="none" xmlns="http://www.w3.org/2000/svg">
<path d="M8.21659 15.7032L1.22812 9.05409C1.14517 8.97493 1.08628 8.88918 1.05144 8.79683C1.0166 8.70449 0.99946 8.60554 1.00001 8.5C1.00001 8.39446 1.01743 8.29551 1.05227 8.20317C1.08711 8.11082 1.14573 8.02507 1.22812 7.94591L8.21659 1.27704C8.41014 1.09235 8.65207 1 8.9424 1C9.23272 1 9.48157 1.09894 9.68894 1.29683C9.89631 1.49472 10 1.72559 10 1.98945C10 2.2533 9.89631 2.48417 9.68894 2.68206L3.59217 8.5L9.68894 14.3179C9.88249 14.5026 9.97926 14.7303 9.97926 15.0011C9.97926 15.2718 9.87558 15.5058 9.6682 15.7032C9.46083 15.9011 9.21889 16 8.9424 16C8.6659 16 8.42396 15.9011 8.21659 15.7032Z" fill="#F4F4F4" stroke="#F4F4F4"/>
</svg>
