<svg width="30" height="25" viewBox="0 0 30 25" fill="none" xmlns="http://www.w3.org/2000/svg">
<path d="M14.9983 1.18405C14.8595 1.06527 14.6827 1 14.5 1C14.3173 1 14.1405 1.06527 14.0017 1.18405L3 10.6141V21.7001C3 22.31 3.24232 22.8951 3.67365 23.3264C4.10499 23.7577 4.69 24.0001 5.3 24.0001H11.4333C11.6367 24.0001 11.8317 23.9193 11.9754 23.7755C12.1192 23.6317 12.2 23.4367 12.2 23.2334V18.6334C12.2 18.0234 12.4423 17.4384 12.8737 17.007C13.305 16.5757 13.89 16.3334 14.5 16.3334C15.11 16.3334 15.695 16.5757 16.1263 17.007C16.5577 17.4384 16.8 18.0234 16.8 18.6334V23.2334C16.8 23.4367 16.8808 23.6317 17.0246 23.7755C17.1683 23.9193 17.3633 24.0001 17.5667 24.0001H23.7C24.31 24.0001 24.895 23.7577 25.3263 23.3264C25.7577 22.8951 26 22.31 26 21.7001V10.6141L14.9983 1.18405Z" fill="#F4F4F4"/>
</svg>
