<svg width="22" height="22" viewBox="0 0 22 22" fill="none" xmlns="http://www.w3.org/2000/svg">
<path d="M17.7492 9.0416C17.8268 9.03892 17.9042 9.0519 17.9768 9.07977C18.0493 9.10764 18.1155 9.14983 18.1713 9.20381C18.2272 9.2578 18.2717 9.32248 18.302 9.394C18.3324 9.46553 18.348 9.54243 18.348 9.62013C18.348 9.69783 18.3324 9.77473 18.302 9.84626C18.2717 9.91778 18.2272 9.98246 18.1713 10.0364C18.1155 10.0904 18.0493 10.1326 17.9768 10.1605C17.9042 10.1884 17.8268 10.2013 17.7492 10.1987H16.1411V11.2299H17.7492C17.8273 11.2261 17.9054 11.2382 17.9787 11.2655C18.052 11.2927 18.119 11.3346 18.1756 11.3885C18.2323 11.4425 18.2774 11.5073 18.3082 11.5792C18.339 11.6511 18.3549 11.7285 18.3549 11.8067C18.3549 11.8849 18.339 11.9623 18.3082 12.0342C18.2774 12.1061 18.2323 12.171 18.1756 12.2249C18.119 12.2789 18.052 12.3207 17.9787 12.348C17.9054 12.3753 17.8273 12.3874 17.7492 12.3835H15.565C15.4123 12.383 15.2661 12.322 15.1582 12.2139C15.0504 12.1058 14.9897 11.9594 14.9896 11.8067V7.43422C14.9896 7.11591 15.2474 6.85466 15.565 6.85466H17.7533C17.9018 6.86233 18.0416 6.92682 18.1438 7.03476C18.246 7.14271 18.3028 7.28583 18.3023 7.43449C18.3019 7.58314 18.2443 7.72592 18.1414 7.83326C18.0386 7.94059 17.8984 8.00425 17.7499 8.01104H16.1418V9.04229L17.7492 9.0416ZM14.2196 11.806C14.2183 11.9592 14.1566 12.1056 14.048 12.2135C13.9393 12.3214 13.7924 12.382 13.6393 12.3822C13.5486 12.383 13.459 12.3628 13.3775 12.3231C13.296 12.2833 13.2249 12.2252 13.1698 12.1532L10.9319 9.10966V11.8053C10.9319 11.9583 10.8712 12.105 10.763 12.2132C10.6548 12.3214 10.5081 12.3822 10.3551 12.3822C10.2021 12.3822 10.0554 12.3214 9.94726 12.2132C9.83908 12.105 9.77831 11.9583 9.77831 11.8053V7.43285C9.77831 7.18604 9.93987 6.96466 10.1722 6.8856C10.2296 6.86533 10.2901 6.85532 10.351 6.85604C10.5297 6.85604 10.6947 6.95297 10.8054 7.0891L13.0611 10.1395V7.43285C13.0611 7.11454 13.3189 6.85329 13.6379 6.85329C13.9569 6.85329 14.2182 7.11454 14.2182 7.43285L14.2196 11.806ZM8.95606 11.806C8.95534 11.9594 8.89386 12.1062 8.7851 12.2143C8.67634 12.3224 8.52917 12.383 8.37581 12.3828C8.2236 12.3816 8.07805 12.3203 7.97081 12.2123C7.86356 12.1042 7.8033 11.9583 7.80313 11.806V7.43354C7.80313 7.11522 8.06094 6.85397 8.37994 6.85397C8.69825 6.85397 8.95675 7.11522 8.95675 7.43354L8.95606 11.806ZM6.69625 12.3828H4.50794C4.35475 12.3825 4.20789 12.3217 4.09925 12.2137C3.9906 12.1057 3.92895 11.9592 3.92769 11.806V7.43354C3.92769 7.11522 4.18894 6.85397 4.50794 6.85397C4.82694 6.85397 5.08475 7.11522 5.08475 7.43354V11.2292H6.69625C6.84923 11.2292 6.99594 11.29 7.10412 11.3982C7.21229 11.5063 7.27306 11.6531 7.27306 11.806C7.27306 11.959 7.21229 12.1057 7.10412 12.2139C6.99594 12.3221 6.84923 12.3828 6.69625 12.3828ZM22 9.45272C22 4.52954 17.0617 0.522787 11 0.522787C4.93831 0.522787 0 4.52954 0 9.45272C0 13.8644 3.91394 17.5597 9.19875 18.2617C9.55694 18.3366 10.0437 18.4982 10.1695 18.8027C10.2802 19.0777 10.241 19.504 10.2052 19.7948L10.0547 20.7291C10.0114 21.0048 9.83263 21.8147 11.0144 21.3203C12.1997 20.826 17.3559 17.5824 19.6653 14.9245C21.2444 13.1955 22 11.419 22 9.45272Z" fill="url(#paint0_linear_1287_284)"/>
<defs>
<linearGradient id="paint0_linear_1287_284" x1="1.22935e-07" y1="10.9998" x2="22" y2="10.9998" gradientUnits="userSpaceOnUse">
<stop stop-color="#6288E2"/>
<stop offset="1" stop-color="#73ACF9"/>
</linearGradient>
</defs>
</svg>
