<svg width="35" height="35" viewBox="0 0 35 35" fill="none" xmlns="http://www.w3.org/2000/svg">
<path d="M29.4002 9.97503C25.2002 3.50003 16.6252 1.57503 9.97522 5.60003C3.50022 9.62503 1.40022 18.375 5.60022 24.85L5.95023 25.375L4.55022 30.625L9.80023 29.225L10.3252 29.575C12.6002 30.8 15.0502 31.5 17.5002 31.5C20.1252 31.5 22.7502 30.8 25.0252 29.4C31.5002 25.2 33.4252 16.625 29.4002 9.97503ZM25.7252 23.45C25.0252 24.5 24.1502 25.2 22.9252 25.375C22.2252 25.375 21.3502 25.725 17.8502 24.325C14.8752 22.925 12.4252 20.65 10.6752 18.025C9.62523 16.8 9.10022 15.225 8.92523 13.65C8.92523 12.25 9.45023 11.025 10.3252 10.15C10.6752 9.80003 11.0252 9.62503 11.3752 9.62503H12.2502C12.6002 9.62503 12.9502 9.62503 13.1252 10.325C13.4752 11.2 14.3502 13.3 14.3502 13.475C14.5252 13.65 14.5252 14 14.3502 14.175C14.5252 14.525 14.3502 14.875 14.1752 15.05C14.0002 15.225 13.8252 15.575 13.6502 15.75C13.3002 15.925 13.1252 16.275 13.3002 16.625C14.0002 17.675 14.8752 18.725 15.7502 19.6C16.8002 20.475 17.8502 21.175 19.0752 21.7C19.4252 21.875 19.7752 21.875 19.9502 21.525C20.1252 21.175 21.0002 20.3 21.3502 19.95C21.7002 19.6 21.8752 19.6 22.2252 19.775L25.0252 21.175C25.3752 21.35 25.7252 21.525 25.9002 21.7C26.0752 22.225 26.0752 22.925 25.7252 23.45Z" fill="#FAFAFF"/>
</svg>
