<svg width="27" height="30" viewBox="0 0 27 30" fill="none" xmlns="http://www.w3.org/2000/svg">
<path d="M26.2768 28.125H25.0714V1.40625C25.0714 0.62959 24.4239 0 23.625 0H3.375C2.57615 0 1.92857 0.62959 1.92857 1.40625V28.125H0.723214C0.323819 28.125 0 28.4398 0 28.8281V30H27V28.8281C27 28.4398 26.6762 28.125 26.2768 28.125ZM7.71429 4.45312C7.71429 4.06482 8.03811 3.75 8.4375 3.75H10.8482C11.2476 3.75 11.5714 4.06482 11.5714 4.45312V6.79688C11.5714 7.18518 11.2476 7.5 10.8482 7.5H8.4375C8.03811 7.5 7.71429 7.18518 7.71429 6.79688V4.45312ZM7.71429 10.0781C7.71429 9.68982 8.03811 9.375 8.4375 9.375H10.8482C11.2476 9.375 11.5714 9.68982 11.5714 10.0781V12.4219C11.5714 12.8102 11.2476 13.125 10.8482 13.125H8.4375C8.03811 13.125 7.71429 12.8102 7.71429 12.4219V10.0781ZM10.8482 18.75H8.4375C8.03811 18.75 7.71429 18.4352 7.71429 18.0469V15.7031C7.71429 15.3148 8.03811 15 8.4375 15H10.8482C11.2476 15 11.5714 15.3148 11.5714 15.7031V18.0469C11.5714 18.4352 11.2476 18.75 10.8482 18.75ZM15.4286 28.125H11.5714V23.2031C11.5714 22.8148 11.8952 22.5 12.2946 22.5H14.7054C15.1048 22.5 15.4286 22.8148 15.4286 23.2031V28.125ZM19.2857 18.0469C19.2857 18.4352 18.9619 18.75 18.5625 18.75H16.1518C15.7524 18.75 15.4286 18.4352 15.4286 18.0469V15.7031C15.4286 15.3148 15.7524 15 16.1518 15H18.5625C18.9619 15 19.2857 15.3148 19.2857 15.7031V18.0469ZM19.2857 12.4219C19.2857 12.8102 18.9619 13.125 18.5625 13.125H16.1518C15.7524 13.125 15.4286 12.8102 15.4286 12.4219V10.0781C15.4286 9.68982 15.7524 9.375 16.1518 9.375H18.5625C18.9619 9.375 19.2857 9.68982 19.2857 10.0781V12.4219ZM19.2857 6.79688C19.2857 7.18518 18.9619 7.5 18.5625 7.5H16.1518C15.7524 7.5 15.4286 7.18518 15.4286 6.79688V4.45312C15.4286 4.06482 15.7524 3.75 16.1518 3.75H18.5625C18.9619 3.75 19.2857 4.06482 19.2857 4.45312V6.79688Z" fill="#FAFAFF"/>
</svg>
