<svg width="40" height="40" viewBox="0 0 40 40" fill="none" xmlns="http://www.w3.org/2000/svg">
<path d="M24.065 12.675C20.8561 13.1897 17.9337 14.8259 15.8175 17.2925C14.4828 16.9557 13.2799 16.2261 12.3644 15.1981C11.4489 14.1701 10.863 12.8911 10.6824 11.5265C10.5018 10.1618 10.7348 8.77442 11.3513 7.54368C11.9679 6.31295 12.9396 5.29554 14.1407 4.62309C15.3418 3.95063 16.717 3.65407 18.0885 3.77178C19.46 3.88948 20.7646 4.41603 21.8336 5.28331C22.9025 6.15058 23.6866 7.31868 24.0844 8.63647C24.4823 9.95426 24.4755 11.3611 24.065 12.675ZM14 20C13.04 21.875 12.5 24 12.5 26.25C12.5 29.525 13.645 32.53 15.555 34.8925C8.8875 34.1325 5 29.5075 5 25V23.75C5 22.7554 5.39509 21.8016 6.09835 21.0984C6.80161 20.3951 7.75544 20 8.75 20H14ZM24.6875 21.25C24.6875 20.8356 24.8521 20.4382 25.1451 20.1451C25.4382 19.8521 25.8356 19.6875 26.25 19.6875C26.6644 19.6875 27.0618 19.8521 27.3549 20.1451C27.6479 20.4382 27.8125 20.8356 27.8125 21.25C27.8125 21.6644 27.6479 22.0618 27.3549 22.3549C27.0618 22.6479 26.6644 22.8125 26.25 22.8125C25.8356 22.8125 25.4382 22.6479 25.1451 22.3549C24.8521 22.0618 24.6875 21.6644 24.6875 21.25ZM27.5 31.25C27.5 31.5815 27.3683 31.8995 27.1339 32.1339C26.8995 32.3683 26.5815 32.5 26.25 32.5C25.9185 32.5 25.6005 32.3683 25.3661 32.1339C25.1317 31.8995 25 31.5815 25 31.25V26.25C25 25.9185 25.1317 25.6005 25.3661 25.3661C25.6005 25.1317 25.9185 25 26.25 25C26.5815 25 26.8995 25.1317 27.1339 25.3661C27.3683 25.6005 27.5 25.9185 27.5 26.25V31.25ZM15 26.25C15 24.7726 15.291 23.3097 15.8564 21.9448C16.4217 20.5799 17.2504 19.3397 18.295 18.2951C19.3397 17.2504 20.5799 16.4217 21.9448 15.8564C23.3097 15.291 24.7726 15 26.25 15C27.7274 15 29.1903 15.291 30.5552 15.8564C31.9201 16.4217 33.1603 17.2504 34.205 18.2951C35.2496 19.3397 36.0783 20.5799 36.6436 21.9448C37.209 23.3097 37.5 24.7726 37.5 26.25C37.5 29.2337 36.3147 32.0952 34.205 34.205C32.0952 36.3147 29.2337 37.5 26.25 37.5C23.2663 37.5 20.4048 36.3147 18.295 34.205C16.1853 32.0952 15 29.2337 15 26.25ZM17.5 26.25C17.5 28.5706 18.4219 30.7962 20.0628 32.4372C21.7038 34.0781 23.9294 35 26.25 35C28.5706 35 30.7962 34.0781 32.4372 32.4372C34.0781 30.7962 35 28.5706 35 26.25C35 23.9294 34.0781 21.7038 32.4372 20.0628C30.7962 18.4219 28.5706 17.5 26.25 17.5C23.9294 17.5 21.7038 18.4219 20.0628 20.0628C18.4219 21.7038 17.5 23.9294 17.5 26.25Z" fill="#FAFAFF"/>
</svg>
