<svg width="27" height="35" viewBox="0 0 27 35" fill="none" xmlns="http://www.w3.org/2000/svg">
<path d="M17.6768 0V2.91667H21.4861L16.4792 7.87354C14.7572 6.5975 12.6271 5.83333 10.3114 5.83333C4.61658 5.83333 0 10.4038 0 16.0417C0 21.1838 3.84322 25.4246 8.83838 26.1333V29.1667H4.41919V32.0833H8.83838V35H11.7845V32.0833H16.2037V29.1667H11.7845V26.1333C16.7797 25.4246 20.6229 21.1823 20.6229 16.0417C20.6229 13.7492 19.851 11.6404 18.5621 9.93563L23.569 4.97875V8.75H26.5152V0H17.6768V0ZM10.3114 23.3333C6.25021 23.3333 2.94613 20.0623 2.94613 16.0417C2.94613 12.021 6.25021 8.75 10.3114 8.75C14.3727 8.75 17.6768 12.021 17.6768 16.0417C17.6768 20.0623 14.3727 23.3333 10.3114 23.3333Z" fill="#FAFAFF"/>
</svg>
