<svg width="100" height="100" viewBox="0 0 100 100" fill="none" xmlns="http://www.w3.org/2000/svg">
<circle cx="50" cy="50" r="50" fill="#76A1F4" fill-opacity="0.15"/>
<path d="M50 52.5C49.2389 52.4911 48.4933 52.7156 47.8636 53.1433C47.2339 53.5709 46.7504 54.1812 46.478 54.892C46.2057 55.6028 46.1577 56.38 46.3404 57.1189C46.5231 57.8578 46.9278 58.523 47.5 59.025V62.5C47.5 63.163 47.7634 63.7989 48.2322 64.2678C48.7011 64.7366 49.337 65 50 65C50.663 65 51.2989 64.7366 51.7678 64.2678C52.2366 63.7989 52.5 63.163 52.5 62.5V59.025C53.0722 58.523 53.4769 57.8578 53.6596 57.1189C53.8423 56.38 53.7943 55.6028 53.522 54.892C53.2496 54.1812 52.7661 53.5709 52.1364 53.1433C51.5067 52.7156 50.7611 52.4911 50 52.5ZM62.5 42.5V37.5C62.5 34.1848 61.183 31.0054 58.8388 28.6612C56.4946 26.317 53.3152 25 50 25C46.6848 25 43.5054 26.317 41.1612 28.6612C38.817 31.0054 37.5 34.1848 37.5 37.5V42.5C35.5109 42.5 33.6032 43.2902 32.1967 44.6967C30.7902 46.1032 30 48.0109 30 50V67.5C30 69.4891 30.7902 71.3968 32.1967 72.8033C33.6032 74.2098 35.5109 75 37.5 75H62.5C64.4891 75 66.3968 74.2098 67.8033 72.8033C69.2098 71.3968 70 69.4891 70 67.5V50C70 48.0109 69.2098 46.1032 67.8033 44.6967C66.3968 43.2902 64.4891 42.5 62.5 42.5ZM42.5 37.5C42.5 35.5109 43.2902 33.6032 44.6967 32.1967C46.1032 30.7902 48.0109 30 50 30C51.9891 30 53.8968 30.7902 55.3033 32.1967C56.7098 33.6032 57.5 35.5109 57.5 37.5V42.5H42.5V37.5ZM65 67.5C65 68.163 64.7366 68.7989 64.2678 69.2678C63.7989 69.7366 63.163 70 62.5 70H37.5C36.837 70 36.2011 69.7366 35.7322 69.2678C35.2634 68.7989 35 68.163 35 67.5V50C35 49.337 35.2634 48.7011 35.7322 48.2322C36.2011 47.7634 36.837 47.5 37.5 47.5H62.5C63.163 47.5 63.7989 47.7634 64.2678 48.2322C64.7366 48.7011 65 49.337 65 50V67.5Z" fill="url(#paint0_linear_4147_2598)"/>
<defs>
<linearGradient id="paint0_linear_4147_2598" x1="30" y1="50" x2="70" y2="50" gradientUnits="userSpaceOnUse">
<stop stop-color="#6288E2"/>
<stop offset="1" stop-color="#73ACF9"/>
</linearGradient>
</defs>
</svg>
