<svg width="29" height="29" viewBox="0 0 29 29" fill="none" xmlns="http://www.w3.org/2000/svg">
<path d="M11.038 25.1014V21.4067C11.038 20.4635 11.8082 19.6989 12.7583 19.6989H16.2312C16.6875 19.6989 17.125 19.8789 17.4476 20.1991C17.7702 20.5194 17.9515 20.9538 17.9515 21.4067V25.1014C17.9486 25.4936 18.1035 25.8706 18.3818 26.1489C18.6601 26.4272 19.0387 26.5837 19.4337 26.5836H21.8031C22.9097 26.5865 23.972 26.1521 24.7555 25.3763C25.539 24.6005 25.9793 23.5471 25.9793 22.4485V11.9228C25.9793 11.0354 25.5831 10.1936 24.8974 9.6243L16.8371 3.23367C15.435 2.11317 13.4261 2.14935 12.0658 3.31959L4.18947 9.6243C3.47139 10.1769 3.04221 11.0211 3.021 11.9228V22.4378C3.021 24.7275 4.89075 26.5836 7.19721 26.5836H9.51251C10.3329 26.5837 10.9996 25.9266 11.0056 25.1122L11.038 25.1014Z" fill="#808080"/>
</svg>
