<svg width="35" height="35" viewBox="0 0 35 35" fill="none" xmlns="http://www.w3.org/2000/svg">
<path d="M17.4998 2.91675C11.8561 2.91675 7.2915 7.48133 7.2915 13.1251C7.2915 20.7813 17.4998 32.0834 17.4998 32.0834C17.4998 32.0834 27.7082 20.7813 27.7082 13.1251C27.7082 7.48133 23.1436 2.91675 17.4998 2.91675ZM17.4998 16.7709C16.5329 16.7709 15.6056 16.3868 14.9218 15.7031C14.2381 15.0193 13.854 14.092 13.854 13.1251C13.854 12.1581 14.2381 11.2308 14.9218 10.5471C15.6056 9.86336 16.5329 9.47925 17.4998 9.47925C18.4668 9.47925 19.3941 9.86336 20.0778 10.5471C20.7616 11.2308 21.1457 12.1581 21.1457 13.1251C21.1457 14.092 20.7616 15.0193 20.0778 15.7031C19.3941 16.3868 18.4668 16.7709 17.4998 16.7709Z" fill="#FAFAFF"/>
</svg>
