<svg width="28" height="28" viewBox="0 0 28 28" fill="none" xmlns="http://www.w3.org/2000/svg">
<path d="M19.8332 10.4999V8.16659C19.8332 4.89992 17.2665 2.33325 13.9998 2.33325C10.7332 2.33325 8.1665 4.89992 8.1665 8.16659V10.4999C6.18317 10.4999 4.6665 12.0166 4.6665 13.9999V22.1666C4.6665 24.1499 6.18317 25.6666 8.1665 25.6666H19.8332C21.8165 25.6666 23.3332 24.1499 23.3332 22.1666V13.9999C23.3332 12.0166 21.8165 10.4999 19.8332 10.4999ZM10.4998 8.16659C10.4998 6.18325 12.0165 4.66659 13.9998 4.66659C15.9832 4.66659 17.4998 6.18325 17.4998 8.16659V10.4999H10.4998V8.16659ZM15.2832 18.0833L15.1665 18.1999V19.8333C15.1665 20.5333 14.6998 20.9999 13.9998 20.9999C13.2998 20.9999 12.8332 20.5333 12.8332 19.8333V18.1999C12.1332 17.4999 12.0165 16.4499 12.7165 15.7499C13.4165 15.0499 14.4665 14.9333 15.1665 15.6333C15.8665 16.2166 15.9832 17.3833 15.2832 18.0833Z" fill="#FAFAFF"/>
</svg>
