<svg width="29" height="29" viewBox="0 0 29 29" fill="none" xmlns="http://www.w3.org/2000/svg">
<g clip-path="url(#clip0_2221_1407)">
<path d="M18.1248 15.7091C17.4566 15.7091 16.9166 16.2505 16.9166 16.9173V21.7507C16.9166 22.4165 16.3752 22.959 15.7081 22.959H12.0831V4.83419C12.0831 3.80227 11.4258 2.88033 10.4375 2.53717L10.0797 2.41747H15.7081C16.3752 2.41747 16.9166 2.95998 16.9166 3.62594V7.2509C16.9166 7.91775 17.4566 8.45915 18.1248 8.45915C18.793 8.45915 19.3331 7.91775 19.3331 7.2509V3.62594C19.3331 1.62739 17.7066 0.000976562 15.7081 0.000976562H2.71872C2.6727 0.000976562 2.6342 0.0215529 2.58951 0.0275266C2.53132 0.0226591 2.47579 0.000976562 2.41672 0.000976562C1.0839 0.000976562 0 1.08466 0 2.41747V24.1672C0 25.1992 0.657334 26.1211 1.64566 26.4643L8.91749 28.8883C9.16396 28.9644 9.4091 29.0007 9.66664 29.0007C10.9994 29.0007 12.0831 27.9168 12.0831 26.584V25.3757H15.7081C17.7066 25.3757 19.3331 23.7493 19.3331 21.7507V16.9173C19.3331 16.2505 18.793 15.7091 18.1248 15.7091Z" fill="#808080"/>
<path d="M28.6456 11.2296L23.8122 6.39636C23.4668 6.05077 22.9471 5.94678 22.4953 6.13396C22.0446 6.32135 21.7497 6.76231 21.7497 7.25061V10.8756H16.9165C16.2494 10.8756 15.708 11.4167 15.708 12.0838C15.708 12.7509 16.2494 13.2921 16.9165 13.2921H21.7497V16.917C21.7497 17.4053 22.0446 17.8463 22.4953 18.0337C22.9471 18.2209 23.4668 18.1169 23.8122 17.7715L28.6456 12.9381C29.118 12.4657 29.118 11.7019 28.6456 11.2296Z" fill="#808080"/>
</g>
<defs>
<clipPath id="clip0_2221_1407">
<rect width="29" height="29" fill="white"/>
</clipPath>
</defs>
</svg>
