<svg width="31" height="29" viewBox="0 0 31 29" fill="none" xmlns="http://www.w3.org/2000/svg">
<path d="M27.4419 2L24.7541 4.62811M24.7541 4.62811L28.7857 8.57028L24.0822 13.1695L20.0506 9.22731M24.7541 4.62811L20.0506 9.22731M14.5274 14.6281C15.2212 15.2976 15.7728 16.0946 16.1504 16.9734C16.528 17.8522 16.724 18.7953 16.7273 19.7485C16.7306 20.7017 16.541 21.646 16.1694 22.5273C15.7979 23.4085 15.2518 24.2092 14.5625 24.8832C13.8732 25.5572 13.0544 26.0912 12.1532 26.4545C11.2519 26.8178 10.2861 27.0032 9.31134 27C8.33654 26.9968 7.37203 26.8051 6.47332 26.4359C5.57461 26.0667 4.75946 25.5273 4.07481 24.8488C2.72843 23.4857 1.98344 21.6601 2.00028 19.7651C2.01712 17.8701 2.79445 16.0574 4.16484 14.7174C5.53524 13.3774 7.38905 12.6173 9.32701 12.6009C11.265 12.5844 13.132 13.3129 14.526 14.6294L14.5274 14.6281ZM14.5274 14.6281L20.0506 9.22731" stroke="#FAFAFF" stroke-width="4" stroke-linecap="round" stroke-linejoin="round"/>
</svg>
