<svg width="25" height="30" viewBox="0 0 25 30" fill="none" xmlns="http://www.w3.org/2000/svg">
<path d="M0.9375 22.1531C0.9375 21.1847 1.66125 20.3663 2.62499 20.2594C9.85777 19.4588 14.5499 19.531 21.7668 20.2772C22.1272 20.3151 22.4687 20.457 22.7497 20.6858C23.0308 20.9146 23.2391 21.2202 23.3492 21.5654C23.4594 21.9107 23.4667 22.2805 23.3701 22.6297C23.2735 22.979 23.0774 23.2926 22.8055 23.5322C14.2884 30.9562 9.4209 30.854 1.5375 23.5397C1.15312 23.1835 0.9375 22.6772 0.9375 22.1541V22.1531Z" fill="#FAFAFF"/>
<path fill-rule="evenodd" clip-rule="evenodd" d="M21.6702 21.2091C14.5106 20.4684 9.88589 20.3991 2.72718 21.1912C2.49153 21.2187 2.2743 21.3321 2.11706 21.5098C1.95982 21.6874 1.87363 21.9168 1.875 22.1541C1.875 22.4222 1.98656 22.6762 2.17499 22.8525C6.08248 26.4768 9.04309 28.1146 11.9371 28.125C14.8415 28.1353 17.9615 26.5106 22.1896 22.8262C22.3239 22.7067 22.4206 22.5507 22.4679 22.3772C22.5152 22.2037 22.5111 22.0202 22.4561 21.849C22.4011 21.6778 22.2976 21.5263 22.158 21.4128C22.0185 21.2994 21.849 21.2289 21.6702 21.21V21.2091ZM2.52187 19.3275C9.83058 18.5184 14.5912 18.5916 21.8643 19.3444C22.4064 19.401 22.9203 19.6144 23.343 19.9586C23.7658 20.3027 24.079 20.7627 24.2443 21.2821C24.4097 21.8015 24.42 22.3578 24.274 22.883C24.128 23.4082 23.8321 23.8795 23.4224 24.239C19.1333 27.9778 15.5615 30.014 11.9315 30C8.29121 29.9868 4.87686 27.9159 0.900939 24.2269C0.61627 23.9617 0.38934 23.6407 0.234326 23.2839C0.0793111 22.9271 -0.000457057 22.5421 5.4368e-06 22.1531C-0.00136182 21.4541 0.255195 20.7792 0.720531 20.2577C1.18587 19.7361 1.82727 19.4046 2.52187 19.3266V19.3275Z" fill="#FAFAFF"/>
<path d="M19.6874 7.49996C19.6874 9.48908 18.8973 11.3967 17.4907 12.8032C16.0842 14.2098 14.1766 14.9999 12.1875 14.9999C10.1983 14.9999 8.2907 14.2098 6.88419 12.8032C5.47767 11.3967 4.6875 9.48908 4.6875 7.49996C4.6875 5.51085 5.47767 3.6032 6.88419 2.19669C8.2907 0.790172 10.1983 0 12.1875 0C14.1766 0 16.0842 0.790172 17.4907 2.19669C18.8973 3.6032 19.6874 5.51085 19.6874 7.49996Z" fill="#FAFAFF"/>
<path fill-rule="evenodd" clip-rule="evenodd" d="M12.1875 13.1249C13.6793 13.1249 15.11 12.5323 16.1649 11.4774C17.2198 10.4225 17.8124 8.9918 17.8124 7.49996C17.8124 6.00813 17.2198 4.57739 16.1649 3.52251C15.11 2.46762 13.6793 1.87499 12.1875 1.87499C10.6956 1.87499 9.26489 2.46762 8.21001 3.52251C7.15512 4.57739 6.56249 6.00813 6.56249 7.49996C6.56249 8.9918 7.15512 10.4225 8.21001 11.4774C9.26489 12.5323 10.6956 13.1249 12.1875 13.1249ZM12.1875 14.9999C14.1766 14.9999 16.0842 14.2098 17.4907 12.8032C18.8973 11.3967 19.6874 9.48908 19.6874 7.49996C19.6874 5.51085 18.8973 3.6032 17.4907 2.19669C16.0842 0.790172 14.1766 0 12.1875 0C10.1983 0 8.2907 0.790172 6.88419 2.19669C5.47767 3.6032 4.6875 5.51085 4.6875 7.49996C4.6875 9.48908 5.47767 11.3967 6.88419 12.8032C8.2907 14.2098 10.1983 14.9999 12.1875 14.9999Z" fill="#FAFAFF"/>
</svg>
