<svg width="13" height="13" viewBox="0 0 13 13" fill="none" xmlns="http://www.w3.org/2000/svg">
<path d="M0.750786 0.750908C0.83039 0.671103 0.924956 0.607786 1.02907 0.564584C1.13318 0.521382 1.24479 0.499146 1.35751 0.499146C1.47023 0.499146 1.58184 0.521382 1.68595 0.564584C1.79007 0.607786 1.88463 0.671103 1.96424 0.750908L6.49925 5.28763L11.0343 0.750908C11.1139 0.671232 11.2085 0.608029 11.3126 0.564909C11.4167 0.521788 11.5283 0.499594 11.641 0.499594C11.7537 0.499594 11.8652 0.521788 11.9693 0.564909C12.0734 0.608029 12.168 0.671232 12.2477 0.750908C12.3274 0.830584 12.3906 0.925174 12.4337 1.02928C12.4768 1.13338 12.499 1.24495 12.499 1.35763C12.499 1.47031 12.4768 1.58189 12.4337 1.68599C12.3906 1.79009 12.3274 1.88468 12.2477 1.96436L7.71098 6.49937L12.2477 11.0344C12.3274 11.1141 12.3906 11.2086 12.4337 11.3127C12.4768 11.4169 12.499 11.5284 12.499 11.6411C12.499 11.7538 12.4768 11.8654 12.4337 11.9695C12.3906 12.0736 12.3274 12.1682 12.2477 12.2478C12.168 12.3275 12.0734 12.3907 11.9693 12.4338C11.8652 12.477 11.7537 12.4991 11.641 12.4991C11.5283 12.4991 11.4167 12.477 11.3126 12.4338C11.2085 12.3907 11.1139 12.3275 11.0343 12.2478L6.49925 7.71111L1.96424 12.2478C1.88456 12.3275 1.78997 12.3907 1.68587 12.4338C1.58177 12.477 1.47019 12.4991 1.35751 12.4991C1.24483 12.4991 1.13326 12.477 1.02915 12.4338C0.925052 12.3907 0.830462 12.3275 0.750786 12.2478C0.67111 12.1682 0.607907 12.0736 0.564786 11.9695C0.521666 11.8654 0.499472 11.7538 0.499472 11.6411C0.499472 11.5284 0.521666 11.4169 0.564786 11.3127C0.607907 11.2086 0.67111 11.1141 0.750786 11.0344L5.28751 6.49937L0.750786 1.96436C0.670981 1.88475 0.607664 1.79019 0.564462 1.68608C0.52126 1.58196 0.499023 1.47035 0.499023 1.35763C0.499023 1.24491 0.52126 1.1333 0.564462 1.02919C0.607664 0.925078 0.670981 0.830512 0.750786 0.750908Z" fill="#010101"/>
</svg>
