<svg width="823" height="934" viewBox="0 0 823 934" fill="none" xmlns="http://www.w3.org/2000/svg">
<g clip-path="url(#clip0_3_44)">
<mask id="mask0_3_44" style="mask-type:luminance" maskUnits="userSpaceOnUse" x="0" y="111" width="823" height="823">
<path d="M203.873 111L822.154 314.873L618.281 933.154L0.00012207 729.281L203.873 111Z" fill="white"/>
</mask>
<g mask="url(#mask0_3_44)">
<path d="M496.849 301.105C494.661 307.74 487.51 311.344 480.876 309.157C474.242 306.969 470.637 299.818 472.824 293.184C475.012 286.549 482.163 282.945 488.798 285.132C495.432 287.32 499.037 294.471 496.849 301.105Z" fill="#50B5EB"/>
<path d="M493.591 272.044C508.119 276.835 516.2 292.124 512.265 306.716L528.963 312.222C536.57 287.792 523.214 261.685 498.821 253.641C474.427 245.597 448.162 258.64 439.745 282.803L457.956 288.808C463.472 274.737 479.062 267.253 493.591 272.044Z" fill="#7EDFF4"/>
<path d="M325.529 261.662C320.716 276.257 304.983 284.187 290.388 279.374C275.792 274.562 267.862 258.829 272.675 244.233C277.487 229.638 293.221 221.708 307.816 226.52C322.411 231.333 330.342 247.066 325.529 261.662Z" fill="#8357FC"/>
<path d="M274.463 351.903L260.048 347.15L284.131 274.115L298.546 278.868L274.463 351.903Z" fill="#D8CAFF"/>
<path d="M290.077 430.568C277.127 469.843 247.697 495.439 224.345 487.739C200.993 480.038 192.56 441.958 205.511 402.683C218.461 363.409 247.89 337.813 271.243 345.513C294.595 353.214 303.028 391.294 290.077 430.568Z" fill="#AD8FFF"/>
<path d="M635.926 364.012C631.113 378.608 639.044 394.341 653.639 399.153C668.234 403.966 683.967 396.036 688.78 381.441C693.593 366.845 685.662 351.112 671.067 346.299C656.472 341.487 640.739 349.417 635.926 364.012Z" fill="#8357FC"/>
<path d="M623.3 466.929L637.715 471.682L661.797 398.647L647.382 393.894L623.3 466.929Z" fill="#D8CAFF"/>
<path d="M563.957 520.878C551.007 560.153 559.439 598.233 582.792 605.933C606.144 613.633 635.573 588.038 648.524 548.763C661.474 509.489 653.041 471.408 629.689 463.708C606.336 456.008 576.908 481.604 563.957 520.878Z" fill="#AD8FFF"/>
<path d="M598.625 554.684C566.074 653.401 459.66 707.039 360.943 674.488C262.227 641.937 208.589 535.524 241.14 436.807C273.691 338.09 380.104 284.452 478.821 317.003C577.538 349.554 631.176 455.968 598.625 554.684Z" fill="url(#paint0_linear_3_44)"/>
<path d="M67.4576 653.771C71.935 662.653 109.303 652.848 150.921 631.87C192.539 610.892 222.648 586.686 218.171 577.803C213.694 568.921 176.326 578.726 134.708 599.704C93.0893 620.682 62.9802 644.888 67.4576 653.771Z" fill="#8BE1F5"/>
<path d="M727.472 597.165C731.001 606.464 698.539 627.41 654.965 643.948C611.392 660.486 573.207 666.353 569.678 657.054C566.148 647.754 598.61 626.808 642.184 610.27C685.757 593.733 723.942 587.865 727.472 597.165Z" fill="#8BE1F5"/>
<path d="M425.443 730.917C421.068 744.185 383.532 743.734 341.604 729.909C299.675 716.083 269.233 694.119 273.608 680.851C277.983 667.582 315.519 668.034 357.448 681.859C399.376 695.685 429.818 717.649 425.443 730.917Z" fill="url(#paint1_linear_3_44)"/>
<path d="M389.342 775.774C385.794 786.534 357.749 786.957 326.701 776.719C295.653 766.481 273.36 749.459 276.907 738.7C280.455 727.94 308.501 727.517 339.549 737.755C370.597 747.993 392.89 765.014 389.342 775.774Z" fill="url(#paint2_linear_3_44)"/>
<path d="M576.47 531.397C538.955 606.395 479.281 557.95 407.687 534.343C341.86 512.637 258.042 518.028 270.878 430.631C291.544 367.958 357.617 338.834 460.923 372.898C563.267 406.645 601.269 482.039 576.47 531.397Z" fill="url(#paint3_linear_3_44)"/>
<path d="M525.715 501.669C519.506 520.498 504.285 532.403 491.718 528.259C479.15 524.115 473.996 505.491 480.205 486.662C486.413 467.832 501.635 455.928 514.202 460.072C526.769 464.216 531.924 482.839 525.715 501.669Z" fill="url(#paint4_linear_3_44)"/>
<path d="M376.881 452.276C370.672 471.106 355.451 483.01 342.884 478.867C330.316 474.723 325.161 456.099 331.37 437.27C337.579 418.44 352.8 406.535 365.368 410.679C377.935 414.823 383.09 433.447 376.881 452.276Z" fill="url(#paint5_linear_3_44)"/>
</g>
</g>
<path d="M591.618 222.435C585.331 223.618 579.607 222.375 574.447 218.707C569.287 215.039 566.393 210.126 565.766 203.967C564.468 192.75 565.278 182.637 568.194 173.629C571.11 164.621 576.595 154.856 584.651 144.334C593.606 132.825 600.245 123.045 604.567 114.995C608.889 106.945 610.203 98.4451 608.508 89.4966C606.475 78.6907 601.189 70.4071 592.651 64.6457C584.113 58.8843 573.421 57.2123 560.575 59.6297C552.192 61.2072 545.386 64.3327 540.157 69.0061C534.928 73.6795 530.98 78.9907 528.313 84.9394C525.638 90.9007 521.791 95.3086 516.773 98.1631C511.755 101.018 506.554 101.86 501.17 100.69C494.649 99.1882 489.707 95.6155 486.345 89.9716C482.983 84.3278 482.372 78.5756 484.513 72.7148C489.878 59.4252 498.235 47.6192 509.583 37.297C520.932 26.9747 535.251 20.1869 552.54 16.9334C580.046 11.7573 602.652 15.4826 620.359 28.1093C638.065 40.736 648.948 57.8614 653.006 79.4857C655.486 92.6636 654.793 104.463 650.928 114.883C647.063 125.304 640.214 137.573 630.384 151.693C623.064 161.803 618.066 169.838 615.391 175.799C612.715 181.761 611.367 188.291 611.347 195.39C611.539 202.176 609.805 208.097 606.145 213.152C602.485 218.206 597.643 221.301 591.618 222.435ZM609.079 317.389C600.435 319.016 592.448 317.31 585.121 312.27C577.793 307.231 573.317 300.367 571.693 291.678C570.056 282.981 571.735 274.953 576.73 267.594C581.725 260.236 588.54 255.75 597.176 254.136C605.821 252.509 613.807 254.215 621.135 259.255C628.463 264.294 632.939 271.158 634.563 279.847C636.2 288.544 634.521 296.572 629.526 303.931C624.531 311.289 617.716 315.775 609.079 317.389Z" fill="url(#paint6_linear_3_44)"/>
<defs>
<linearGradient id="paint0_linear_3_44" x1="412.168" y1="689.026" x2="478.821" y2="317.003" gradientUnits="userSpaceOnUse">
<stop stop-color="#8BE1F5"/>
<stop offset="0.0001" stop-color="#ACEFFF"/>
<stop offset="1" stop-color="#42DBFF"/>
</linearGradient>
<linearGradient id="paint1_linear_3_44" x1="341.604" y1="729.909" x2="357.447" y2="681.859" gradientUnits="userSpaceOnUse">
<stop stop-color="#D0EFFF"/>
<stop offset="1" stop-color="#A7EFFF"/>
</linearGradient>
<linearGradient id="paint2_linear_3_44" x1="326.701" y1="776.719" x2="339.549" y2="737.755" gradientUnits="userSpaceOnUse">
<stop stop-color="#F2FAFF"/>
<stop offset="1" stop-color="#CDEFFF"/>
</linearGradient>
<linearGradient id="paint3_linear_3_44" x1="404.868" y1="539.21" x2="456.622" y2="375.173" gradientUnits="userSpaceOnUse">
<stop stop-color="#CEEEFB"/>
<stop offset="1" stop-color="#F7FDFF"/>
</linearGradient>
<linearGradient id="paint4_linear_3_44" x1="491.718" y1="528.259" x2="514.202" y2="460.072" gradientUnits="userSpaceOnUse">
<stop stop-color="#085D94"/>
<stop offset="1" stop-color="#004673"/>
</linearGradient>
<linearGradient id="paint5_linear_3_44" x1="342.883" y1="478.866" x2="365.367" y2="410.679" gradientUnits="userSpaceOnUse">
<stop stop-color="#085D94"/>
<stop offset="1" stop-color="#004673"/>
</linearGradient>
<linearGradient id="paint6_linear_3_44" x1="502.035" y1="180.955" x2="666.284" y2="150.047" gradientUnits="userSpaceOnUse">
<stop stop-color="#FFFD96"/>
<stop offset="1" stop-color="#FFF52F"/>
</linearGradient>
<clipPath id="clip0_3_44">
<rect width="651.027" height="651.027" fill="white" transform="translate(203.873 111) rotate(18.2495)"/>
</clipPath>
</defs>
</svg>
