<svg width="201" height="572" viewBox="0 0 201 572" fill="none" xmlns="http://www.w3.org/2000/svg">
<path d="M147.054 252.544C201.711 305.848 65.3 547.699 511.051 410.658C573.226 394.659 458.175 309.378 406.232 280.37C354.289 251.362 252.296 57.7747 217.283 40.9698C183.366 24.6907 207.345 76.435 168.503 93.748C129.662 111.061 136.097 74.6683 105.102 93.7478C74.1078 112.827 92.3956 199.241 147.054 252.544Z" fill="url(#paint0_linear_1207_709)"/>
<path d="M113.938 263.065C116.571 285.967 132.581 277.129 131.172 301.212C128.995 315.025 118.897 325.62 108.775 300.678C98.6534 275.735 111.305 240.163 113.938 263.065Z" fill="url(#paint1_linear_1207_709)"/>
<defs>
<linearGradient id="paint0_linear_1207_709" x1="-1.46452" y1="176.242" x2="293.074" y2="-30.1744" gradientUnits="userSpaceOnUse">
<stop stop-color="#246FFF"/>
<stop offset="0.564948" stop-color="#075BFF"/>
<stop offset="1" stop-color="#003FBA"/>
</linearGradient>
<linearGradient id="paint1_linear_1207_709" x1="131.934" y1="315.604" x2="99.3874" y2="315.191" gradientUnits="userSpaceOnUse">
<stop stop-color="#246FFF"/>
<stop offset="0.564948" stop-color="#075BFF"/>
<stop offset="1" stop-color="#003FBA"/>
</linearGradient>
</defs>
</svg>
