<svg width="170" height="165" viewBox="0 0 170 165" fill="none" xmlns="http://www.w3.org/2000/svg">
<g filter="url(#filter0_d_1585_2277)">
<path d="M76.2296 125.114C79.8659 135.536 95.2693 134.945 98.0458 124.277L98.7178 121.686C99.1325 120.089 99.9104 118.603 100.995 117.335C102.079 116.068 103.441 115.052 104.983 114.362C106.524 113.672 108.205 113.325 109.903 113.348C111.6 113.37 113.271 113.761 114.793 114.491L117.252 115.679C127.427 120.555 137.889 109.569 132.068 100.121L130.661 97.829C126.946 91.7855 129.917 83.9691 136.784 81.714L139.393 80.8595C150.136 77.3317 149.526 62.3879 138.53 59.6942L135.86 59.0423C134.214 58.6399 132.681 57.8852 131.375 56.8335C130.068 55.7817 129.021 54.4596 128.31 52.9641C127.599 51.4686 127.242 49.8377 127.265 48.1908C127.288 46.544 127.691 44.9231 128.444 43.4469L129.668 41.0613C134.693 31.1896 123.37 21.04 113.631 26.6869L111.269 28.0525C109.812 28.8972 108.178 29.4147 106.487 29.5671C104.797 29.7195 103.093 29.5029 101.5 28.9332C99.9073 28.3635 98.4661 27.4552 97.2822 26.2748C96.0983 25.0944 95.2018 23.6718 94.6584 22.1115L93.7776 19.5804C90.1412 9.15845 74.7379 9.74949 71.9614 20.4175L71.2894 23.0082C70.8747 24.6053 70.0967 26.0921 69.0126 27.3595C67.9286 28.6269 66.5658 29.6429 65.0243 30.3329C63.4828 31.0228 61.8017 31.3693 60.1042 31.3469C58.4068 31.3245 56.736 30.9338 55.2144 30.2034L52.7554 29.0152C42.5802 24.14 32.1184 35.1256 37.939 44.5735L39.3466 46.8657C40.2172 48.2796 40.7507 49.8646 40.9078 51.5045C41.0649 53.1444 40.8416 54.7976 40.2544 56.343C39.6672 57.8883 38.7309 59.2865 37.5142 60.435C36.2975 61.5836 34.8312 62.4534 33.2229 62.9806L30.6139 63.8351C19.8715 67.363 20.4807 82.3067 31.4768 85.0004L34.1472 85.6524C35.7934 86.0547 37.3259 86.8094 38.6323 87.8612C39.9387 88.9129 40.9859 90.235 41.6971 91.7305C42.4082 93.226 42.7654 94.857 42.7423 96.5038C42.7192 98.1506 42.3164 99.7716 41.5636 101.248L40.3389 103.633C35.3138 113.505 46.6372 123.655 56.3757 118.008L58.7383 116.642C60.1957 115.797 61.8294 115.28 63.5198 115.128C65.2101 114.975 66.9142 115.192 68.507 115.761C70.0999 116.331 71.5411 117.239 72.725 118.42C73.9088 119.6 74.8054 121.023 75.3488 122.583L76.2296 125.114ZM84.1039 50.2782C90.137 50.0467 96.0178 52.1498 100.453 56.1249C104.887 60.0999 107.513 65.6214 107.751 71.4745C107.99 77.3276 105.822 83.0329 101.725 87.3354C97.6276 91.6378 91.9364 94.185 85.9033 94.4165C79.8722 94.6479 73.9935 92.5455 69.5602 88.5718C65.1269 84.5981 62.5023 79.0785 62.2638 73.2274C62.0253 67.3763 64.1923 61.6729 68.2882 57.3719C72.3842 53.0709 78.0734 50.5246 84.1045 50.2932L84.1039 50.2782Z" fill="#FFF52F"/>
<mask id="mask0_1585_2277" style="mask-type:alpha" maskUnits="userSpaceOnUse" x="22" y="12" width="126" height="121">
<path d="M76.2296 125.114C79.8659 135.536 95.2693 134.945 98.0458 124.277L98.7178 121.686C99.1325 120.089 99.9104 118.602 100.995 117.335C102.079 116.068 103.441 115.052 104.983 114.362C106.524 113.672 108.205 113.325 109.903 113.348C111.6 113.37 113.271 113.761 114.793 114.491L117.252 115.679C127.427 120.555 137.889 109.569 132.068 100.121L130.661 97.8288C126.946 91.7854 129.917 83.969 136.784 81.7139L139.393 80.8594C150.136 77.3316 149.526 62.3878 138.53 59.6941L135.86 59.0422C134.214 58.6398 132.681 57.8851 131.375 56.8334C130.068 55.7816 129.021 54.4595 128.31 52.964C127.599 51.4685 127.242 49.8376 127.265 48.1907C127.288 46.5439 127.691 44.923 128.444 43.4468L129.668 41.0612C134.693 31.1895 123.37 21.0399 113.631 26.6868L111.269 28.0524C109.812 28.8971 108.178 29.4146 106.487 29.567C104.797 29.7194 103.093 29.5028 101.5 28.9331C99.9073 28.3634 98.4661 27.4551 97.2822 26.2746C96.0983 25.0942 95.2018 23.6717 94.6584 22.1114L93.7776 19.5803C90.1412 9.15832 74.7379 9.74937 71.9614 20.4174L71.2894 23.0081C70.8747 24.6052 70.0967 26.092 69.0126 27.3594C67.9286 28.6268 66.5658 29.6428 65.0243 30.3327C63.4828 31.0227 61.8017 31.3692 60.1042 31.3468C58.4068 31.3244 56.736 30.9336 55.2144 30.2032L52.7554 29.0151C42.5802 24.1399 32.1184 35.1255 37.939 44.5734L39.3466 46.8656C40.2172 48.2794 40.7507 49.8644 40.9078 51.5044C41.0649 53.1443 40.8416 54.7975 40.2544 56.3428C39.6672 57.8881 38.7309 59.2864 37.5142 60.4349C36.2975 61.5835 34.8312 62.4533 33.2229 62.9805L30.6139 63.835C19.8715 67.3628 20.4807 82.3066 31.4768 85.0003L34.1472 85.6522C35.7934 86.0546 37.3259 86.8093 38.6323 87.8611C39.9387 88.9128 40.9859 90.2349 41.6971 91.7304C42.4082 93.2259 42.7654 94.8568 42.7423 96.5037C42.7192 98.1505 42.3164 99.7714 41.5636 101.248L40.3389 103.633C35.3138 113.505 46.6372 123.655 56.3757 118.008L58.7383 116.642C60.1957 115.797 61.8294 115.28 63.5198 115.127C65.2101 114.975 66.9142 115.192 68.507 115.761C70.0999 116.331 71.5411 117.239 72.725 118.42C73.9088 119.6 74.8054 121.023 75.3488 122.583L76.2296 125.114ZM84.1039 50.278C90.137 50.0465 96.0178 52.1497 100.453 56.1247C104.887 60.0998 107.513 65.6212 107.751 71.4743C107.99 77.3274 105.822 83.0328 101.725 87.3353C97.6276 91.6377 91.9364 94.1849 85.9033 94.4164C79.8722 94.6478 73.9935 92.5454 69.5602 88.5717C65.1269 84.5979 62.5023 79.0784 62.2638 73.2273C62.0253 67.3762 64.1923 61.6728 68.2882 57.3718C72.3842 53.0708 78.0734 50.5245 84.1045 50.2931L84.1039 50.278Z" fill="#FFF52F"/>
</mask>
<g mask="url(#mask0_1585_2277)">
<path d="M195.75 138.784L96.2182 229.904L71.3361 86.5284L195.75 138.784Z" fill="#F93636"/>
<path d="M164.845 191.12L32.8159 219.009L84.2556 82.8849L164.845 191.12Z" fill="#F93636"/>
</g>
<mask id="mask1_1585_2277" style="mask-type:alpha" maskUnits="userSpaceOnUse" x="22" y="12" width="126" height="121">
<path d="M76.2296 125.114C79.8659 135.536 95.2693 134.945 98.0458 124.277L98.7178 121.686C99.1325 120.089 99.9104 118.602 100.995 117.335C102.079 116.068 103.441 115.052 104.983 114.362C106.524 113.672 108.205 113.325 109.903 113.348C111.6 113.37 113.271 113.761 114.793 114.491L117.252 115.679C127.427 120.555 137.889 109.569 132.068 100.121L130.661 97.8288C126.946 91.7854 129.917 83.969 136.784 81.7139L139.393 80.8594C150.136 77.3316 149.526 62.3878 138.53 59.6941L135.86 59.0422C134.214 58.6398 132.681 57.8851 131.375 56.8334C130.068 55.7816 129.021 54.4595 128.31 52.964C127.599 51.4685 127.242 49.8376 127.265 48.1907C127.288 46.5439 127.691 44.923 128.444 43.4468L129.668 41.0612C134.693 31.1895 123.37 21.0399 113.631 26.6868L111.269 28.0524C109.812 28.8971 108.178 29.4146 106.487 29.567C104.797 29.7194 103.093 29.5028 101.5 28.9331C99.9073 28.3634 98.4661 27.4551 97.2822 26.2746C96.0983 25.0942 95.2018 23.6717 94.6584 22.1114L93.7776 19.5803C90.1412 9.15832 74.7379 9.74937 71.9614 20.4174L71.2894 23.0081C70.8747 24.6052 70.0967 26.092 69.0126 27.3594C67.9286 28.6268 66.5658 29.6428 65.0243 30.3327C63.4828 31.0227 61.8017 31.3692 60.1042 31.3468C58.4068 31.3244 56.736 30.9336 55.2144 30.2032L52.7554 29.0151C42.5802 24.1399 32.1184 35.1255 37.939 44.5734L39.3466 46.8656C40.2172 48.2794 40.7507 49.8644 40.9078 51.5044C41.0649 53.1443 40.8416 54.7975 40.2544 56.3428C39.6672 57.8881 38.7309 59.2864 37.5142 60.4349C36.2975 61.5835 34.8312 62.4533 33.2229 62.9805L30.6139 63.835C19.8715 67.3628 20.4807 82.3066 31.4768 85.0003L34.1472 85.6522C35.7934 86.0546 37.3259 86.8093 38.6323 87.8611C39.9387 88.9128 40.9859 90.2349 41.6971 91.7304C42.4082 93.2259 42.7654 94.8568 42.7423 96.5037C42.7192 98.1505 42.3164 99.7714 41.5636 101.248L40.3389 103.633C35.3138 113.505 46.6372 123.655 56.3757 118.008L58.7383 116.642C60.1957 115.797 61.8294 115.28 63.5198 115.127C65.2101 114.975 66.9142 115.192 68.507 115.761C70.0999 116.331 71.5411 117.239 72.725 118.42C73.9088 119.6 74.8054 121.023 75.3488 122.583L76.2296 125.114ZM84.1039 50.278C90.137 50.0465 96.0178 52.1497 100.453 56.1247C104.887 60.0998 107.513 65.6212 107.751 71.4743C107.99 77.3274 105.822 83.0328 101.725 87.3353C97.6276 91.6377 91.9364 94.1849 85.9033 94.4164C79.8722 94.6478 73.9935 92.5454 69.5602 88.5717C65.1269 84.5979 62.5023 79.0784 62.2638 73.2273C62.0253 67.3762 64.1923 61.6728 68.2882 57.3718C72.3842 53.0708 78.0734 50.5245 84.1045 50.2931L84.1039 50.278Z" fill="#FFF52F"/>
</mask>
<g mask="url(#mask1_1585_2277)">
<path d="M129.402 -22.783L217.686 79.273L73.6672 100.112L129.402 -22.783Z" fill="#0707DB"/>
<path d="M180.845 9.58095L205.009 142.343L70.3857 87.0939L180.845 9.58095Z" fill="#0707DB"/>
</g>
<mask id="mask2_1585_2277" style="mask-type:alpha" maskUnits="userSpaceOnUse" x="22" y="12" width="126" height="121">
<path d="M75.8481 125.327C79.4252 135.768 94.8317 135.259 97.6687 124.606L98.3554 122.019C98.7792 120.424 99.5655 118.942 100.657 117.68C101.748 116.419 103.117 115.41 104.662 114.728C106.207 114.047 107.89 113.709 109.588 113.741C111.285 113.772 112.954 114.172 114.471 114.91L116.923 116.111C127.071 121.041 137.594 110.111 131.828 100.632L130.433 98.3328C126.753 92.2696 129.768 84.4692 136.648 82.2508L139.262 81.4103C150.024 77.9399 149.5 62.9931 138.519 60.2407L135.852 59.5745C134.209 59.1634 132.68 58.4005 131.38 57.3418C130.08 56.2831 129.04 54.9554 128.337 53.4561C127.635 51.9569 127.287 50.324 127.319 48.6773C127.352 47.0306 127.763 45.4119 128.525 43.9398L129.763 41.5607C134.844 31.716 123.578 21.5061 113.808 27.1009L111.438 28.4538C109.975 29.2907 108.339 29.7995 106.648 29.9429C104.956 30.0863 103.254 29.8606 101.664 29.2824C100.074 28.7042 98.6384 27.7882 97.4612 26.6014C96.2841 25.4147 95.3956 23.9874 94.861 22.4243L93.9946 19.8885C90.4175 9.44723 75.0111 9.956 72.174 20.609L71.4874 23.1961C71.0636 24.791 70.2772 26.2736 69.1859 27.5352C68.0947 28.7968 66.7262 29.8055 65.1808 30.4872C63.6354 31.1689 61.9524 31.5064 60.255 31.4749C58.5577 31.4434 56.8892 31.0438 55.3718 30.3053L52.9196 29.1041C42.7722 24.1746 32.2482 35.1041 38.0151 44.583L39.4096 46.8826C40.2723 48.3011 40.7967 49.8889 40.9445 51.5297C41.0923 53.1704 40.8596 54.8224 40.2637 56.3646C39.6677 57.9067 38.7235 59.2999 37.5003 60.442C36.2771 61.584 34.8059 62.4459 33.1946 62.9646L30.5808 63.8051C19.8185 67.2756 20.3429 82.2223 31.3236 84.9747L33.9902 85.6409C35.6341 86.0521 37.1623 86.815 38.4627 87.8737C39.7631 88.9324 40.8028 90.26 41.5055 91.7593C42.2082 93.2586 42.5561 94.8914 42.5236 96.5381C42.4912 98.1848 42.0792 99.8036 41.318 101.276L40.0798 103.655C34.9988 113.499 46.2644 123.709 56.0348 118.115L58.4051 116.762C59.8673 115.925 61.5039 115.416 63.1951 115.273C64.8863 115.129 66.5891 115.355 68.1787 115.933C69.7683 116.511 71.2043 117.427 72.3815 118.614C73.5586 119.801 74.4471 121.228 74.9817 122.791L75.8481 125.327ZM84.1469 50.5341C90.1812 50.3348 96.05 52.4693 100.462 56.468C104.874 60.4667 107.468 66.0021 107.674 71.8564C107.879 77.7107 105.679 83.4043 101.557 87.6848C97.4357 91.9654 91.7301 94.4821 85.6958 94.6814C79.6635 94.8806 73.7968 92.7468 69.3861 88.7495C64.9755 84.7521 62.3823 79.2186 62.1769 73.3664C61.9716 67.5141 64.171 61.8223 68.2913 57.5433C72.4115 53.2642 78.1152 50.7483 84.1474 50.5491L84.1469 50.5341Z" fill="#FFF52F"/>
</mask>
<g mask="url(#mask2_1585_2277)">
<path d="M38.0098 201.399L-55.1202 103.745L87.7189 75.9456L38.0098 201.399Z" fill="#F4F4F4"/>
<path d="M-14.9437 171.567L-45.5179 40.1332L91.6263 88.7876L-14.9437 171.567Z" fill="#F4F4F4"/>
</g>
</g>
<defs>
<filter id="filter0_d_1585_2277" x="0.791748" y="0.0810547" width="168.331" height="164.803" filterUnits="userSpaceOnUse" color-interpolation-filters="sRGB">
<feFlood flood-opacity="0" result="BackgroundImageFix"/>
<feColorMatrix in="SourceAlpha" type="matrix" values="0 0 0 0 0 0 0 0 0 0 0 0 0 0 0 0 0 0 127 0" result="hardAlpha"/>
<feOffset dy="10"/>
<feGaussianBlur stdDeviation="11"/>
<feComposite in2="hardAlpha" operator="out"/>
<feColorMatrix type="matrix" values="0 0 0 0 0 0 0 0 0 0 0 0 0 0 0 0 0 0 0.25 0"/>
<feBlend mode="normal" in2="BackgroundImageFix" result="effect1_dropShadow_1585_2277"/>
<feBlend mode="normal" in="SourceGraphic" in2="effect1_dropShadow_1585_2277" result="shape"/>
</filter>
</defs>
</svg>
