<svg width="76" height="72" viewBox="0 0 76 72" fill="none" xmlns="http://www.w3.org/2000/svg">
<path d="M5.10808 65.5033C-2.51276 57.5077 0.652617 43.5021 8.64826 35.8813C13.281 31.4657 26.8092 30.2955 34.3852 24.4747C39.2461 20.7399 41.0086 14.5504 43.5354 11.609C43.7551 11.3533 47.9599 6.01043 48.2744 5.71063C48.4056 5.57629 49.5851 4.46137 49.7222 4.33076C55.9188 -1.57539 65.3681 -0.994951 71.2742 5.20167C77.1804 11.3983 76.9449 21.2095 70.7483 27.1157C69.0494 28.735 67.0787 29.8926 64.9914 30.5923C60.5132 32.9633 52.0577 31.2332 46.838 36.0905C42.4495 40.1743 41.0866 50.539 39.0036 55.8659C38.1165 59.4154 35.5556 62.0402 32.7112 64.7512C24.7156 72.372 12.7289 73.499 5.10808 65.5033Z" fill="url(#paint0_linear_616_53)"/>
<defs>
<linearGradient id="paint0_linear_616_53" x1="5.02126" y1="65.4122" x2="69.8075" y2="3.66284" gradientUnits="userSpaceOnUse">
<stop stop-color="#F93636"/>
<stop offset="1" stop-color="#FF6E6E"/>
</linearGradient>
</defs>
</svg>
