<svg width="65" height="65" viewBox="0 0 65 65" fill="none" xmlns="http://www.w3.org/2000/svg">
<rect width="65" height="65" rx="32.5" fill="#444444" fill-opacity="0.74"/>
<path d="M46.4022 25.3712C46.4245 25.6821 46.4245 25.9931 46.4245 26.304C46.4245 35.7868 39.2069 46.7132 26.0152 46.7132C21.9511 46.7132 18.1758 45.5361 15 43.4931C15.5774 43.5597 16.1326 43.5819 16.7322 43.5819C20.0856 43.5819 23.1726 42.4493 25.6377 40.5172C22.4841 40.4505 19.8413 38.3852 18.9308 35.5425C19.375 35.6091 19.8191 35.6536 20.2855 35.6536C20.9296 35.6536 21.5736 35.5647 22.1732 35.4093C18.8864 34.743 16.4213 31.856 16.4213 28.3693V28.2805C17.3762 28.8135 18.4867 29.1466 19.6636 29.191C17.7315 27.9029 16.4657 25.7043 16.4657 23.217C16.4657 21.8846 16.821 20.6631 17.4428 19.5971C20.9739 23.9499 26.2817 26.7925 32.2334 27.1034C32.1224 26.5704 32.0557 26.0153 32.0557 25.4601C32.0557 21.507 35.2537 18.2869 39.229 18.2869C41.2943 18.2869 43.1598 19.153 44.4701 20.5521C46.0912 20.2412 47.6458 19.6415 49.0227 18.8199C48.4897 20.4855 47.3571 21.8846 45.8692 22.7729C47.3127 22.6175 48.7118 22.2177 49.9999 21.6625C49.0229 23.0838 47.8014 24.3496 46.4022 25.3712Z" fill="white"/>
</svg>
