<svg width="65" height="65" viewBox="0 0 65 65" fill="none" xmlns="http://www.w3.org/2000/svg">
<rect width="65" height="65" rx="32.5" fill="#444444" fill-opacity="0.74"/>
<path d="M45.625 17.1875H19.3682C18.165 17.1875 17.1875 18.1787 17.1875 19.3955V45.6045C17.1875 46.8213 18.165 47.8125 19.3682 47.8125H45.625C46.8281 47.8125 47.8125 46.8213 47.8125 45.6045V19.3955C47.8125 18.1787 46.8281 17.1875 45.625 17.1875ZM26.4434 43.4375H21.9043V28.8223H26.4502V43.4375H26.4434ZM24.1738 26.8262C22.7178 26.8262 21.542 25.6436 21.542 24.1943C21.542 22.7451 22.7178 21.5625 24.1738 21.5625C25.623 21.5625 26.8057 22.7451 26.8057 24.1943C26.8057 25.6504 25.6299 26.8262 24.1738 26.8262ZM43.458 43.4375H38.9189V36.3281C38.9189 34.6328 38.8848 32.4521 36.5605 32.4521C34.1953 32.4521 33.833 34.2979 33.833 36.2051V43.4375H29.2939V28.8223H33.6484V30.8184H33.71C34.3184 29.6699 35.8018 28.46 38.0098 28.46C42.6035 28.46 43.458 31.4883 43.458 35.4258V43.4375Z" fill="white"/>
</svg>
