<svg width="65" height="65" viewBox="0 0 65 65" fill="none" xmlns="http://www.w3.org/2000/svg">
<rect width="65" height="65" rx="32.5" fill="#444444" fill-opacity="0.74"/>
<path d="M32.5039 23.5234C27.5352 23.5234 23.5273 27.5312 23.5273 32.5C23.5273 37.4688 27.5352 41.4766 32.5039 41.4766C37.4727 41.4766 41.4805 37.4688 41.4805 32.5C41.4805 27.5312 37.4727 23.5234 32.5039 23.5234ZM32.5039 38.3359C29.293 38.3359 26.668 35.7188 26.668 32.5C26.668 29.2812 29.2852 26.6641 32.5039 26.6641C35.7227 26.6641 38.3398 29.2812 38.3398 32.5C38.3398 35.7188 35.7148 38.3359 32.5039 38.3359ZM43.9414 23.1562C43.9414 24.3203 43.0039 25.25 41.8477 25.25C40.6836 25.25 39.7539 24.3125 39.7539 23.1562C39.7539 22 40.6914 21.0625 41.8477 21.0625C43.0039 21.0625 43.9414 22 43.9414 23.1562ZM49.8867 25.2812C49.7539 22.4766 49.1133 19.9922 47.0586 17.9453C45.0117 15.8984 42.5273 15.2578 39.7227 15.1172C36.832 14.9531 28.168 14.9531 25.2773 15.1172C22.4805 15.25 19.9961 15.8906 17.9414 17.9375C15.8867 19.9844 15.2539 22.4687 15.1133 25.2734C14.9492 28.1641 14.9492 36.8281 15.1133 39.7187C15.2461 42.5234 15.8867 45.0078 17.9414 47.0547C19.9961 49.1016 22.4727 49.7422 25.2773 49.8828C28.168 50.0469 36.832 50.0469 39.7227 49.8828C42.5273 49.75 45.0117 49.1094 47.0586 47.0547C49.1055 45.0078 49.7461 42.5234 49.8867 39.7187C50.0508 36.8281 50.0508 28.1719 49.8867 25.2812ZM46.1523 42.8203C45.543 44.3516 44.3633 45.5312 42.8242 46.1484C40.5195 47.0625 35.0508 46.8516 32.5039 46.8516C29.957 46.8516 24.4805 47.0547 22.1836 46.1484C20.6523 45.5391 19.4727 44.3594 18.8555 42.8203C17.9414 40.5156 18.1523 35.0469 18.1523 32.5C18.1523 29.9531 17.9492 24.4766 18.8555 22.1797C19.4648 20.6484 20.6445 19.4687 22.1836 18.8516C24.4883 17.9375 29.957 18.1484 32.5039 18.1484C35.0508 18.1484 40.5273 17.9453 42.8242 18.8516C44.3555 19.4609 45.5352 20.6406 46.1523 22.1797C47.0664 24.4844 46.8555 29.9531 46.8555 32.5C46.8555 35.0469 47.0664 40.5234 46.1523 42.8203Z" fill="white"/>
</svg>
