<svg width="33" height="32" viewBox="0 0 33 32" fill="none" xmlns="http://www.w3.org/2000/svg">
<g clip-path="url(#clip0_4175_1991)">
<path d="M26.317 13.1517C26.4299 13.1479 26.5425 13.1667 26.648 13.2073C26.7535 13.2478 26.8498 13.3092 26.931 13.3877C27.0123 13.4662 27.077 13.5603 27.1211 13.6643C27.1653 13.7684 27.188 13.8802 27.188 13.9932C27.188 14.1063 27.1653 14.2181 27.1211 14.3222C27.077 14.4262 27.0123 14.5203 26.931 14.5988C26.8498 14.6773 26.7535 14.7387 26.648 14.7792C26.5425 14.8198 26.4299 14.8386 26.317 14.8347H23.978V16.3347H26.317C26.4306 16.3292 26.5442 16.3468 26.6508 16.3864C26.7574 16.4261 26.8549 16.487 26.9373 16.5655C27.0197 16.6439 27.0852 16.7383 27.1301 16.8428C27.1749 16.9474 27.198 17.06 27.198 17.1737C27.198 17.2875 27.1749 17.4001 27.1301 17.5046C27.0852 17.6092 27.0197 17.7036 26.9373 17.782C26.8549 17.8605 26.7574 17.9214 26.6508 17.961C26.5442 18.0007 26.4306 18.0183 26.317 18.0127H23.14C22.9179 18.012 22.7052 17.9232 22.5483 17.766C22.3915 17.6088 22.3033 17.3958 22.303 17.1737V10.8137C22.303 10.3507 22.678 9.97074 23.14 9.97074H26.323C26.5389 9.9819 26.7423 10.0757 26.891 10.2327C27.0396 10.3897 27.1222 10.5979 27.1215 10.8141C27.1209 11.0303 27.0371 11.238 26.8875 11.3942C26.7379 11.5503 26.534 11.6429 26.318 11.6527H23.979V13.1527L26.317 13.1517ZM21.183 17.1727C21.1812 17.3955 21.0915 17.6084 20.9334 17.7654C20.7753 17.9223 20.5617 18.0105 20.339 18.0107C20.2071 18.012 20.0768 17.9826 19.9582 17.9248C19.8397 17.867 19.7362 17.7824 19.656 17.6777L16.401 13.2507V17.1717C16.401 17.3943 16.3126 17.6077 16.1553 17.765C15.9979 17.9224 15.7845 18.0107 15.562 18.0107C15.3395 18.0107 15.1261 17.9224 14.9687 17.765C14.8114 17.6077 14.723 17.3943 14.723 17.1717V10.8117C14.723 10.4527 14.958 10.1307 15.296 10.0157C15.3795 9.98626 15.4675 9.9717 15.556 9.97274C15.816 9.97274 16.056 10.1137 16.217 10.3117L19.498 14.7487V10.8117C19.498 10.3487 19.873 9.96874 20.337 9.96874C20.801 9.96874 21.181 10.3487 21.181 10.8117L21.183 17.1727ZM13.527 17.1727C13.5259 17.3958 13.4365 17.6093 13.2783 17.7666C13.1201 17.9239 12.9061 18.012 12.683 18.0117C12.4616 18.0099 12.2499 17.9207 12.0939 17.7636C11.9379 17.6065 11.8503 17.3941 11.85 17.1727V10.8127C11.85 10.3497 12.225 9.96974 12.689 9.96974C13.152 9.96974 13.528 10.3497 13.528 10.8127L13.527 17.1727ZM10.24 18.0117H7.057C6.83418 18.0112 6.62056 17.9228 6.46254 17.7657C6.30451 17.6086 6.21484 17.3956 6.213 17.1727V10.8127C6.213 10.3497 6.593 9.96974 7.057 9.96974C7.521 9.96974 7.896 10.3497 7.896 10.8127V16.3337H10.24C10.4625 16.3337 10.6759 16.4221 10.8333 16.5795C10.9906 16.7368 11.079 16.9502 11.079 17.1727C11.079 17.3953 10.9906 17.6087 10.8333 17.766C10.6759 17.9234 10.4625 18.0117 10.24 18.0117ZM32.5 13.7497C32.5 6.58874 25.317 0.760742 16.5 0.760742C7.683 0.760742 0.5 6.58874 0.5 13.7497C0.5 20.1667 6.193 25.5417 13.88 26.5627C14.401 26.6717 15.109 26.9067 15.292 27.3497C15.453 27.7498 15.396 28.3697 15.344 28.7927L15.125 30.1517C15.062 30.5527 14.802 31.7307 16.521 31.0117C18.245 30.2927 25.745 25.5747 29.104 21.7087C31.401 19.1937 32.5 16.6097 32.5 13.7497Z" fill="url(#paint0_linear_4175_1991)"/>
</g>
<defs>
<linearGradient id="paint0_linear_4175_1991" x1="21.0227" y1="0.941697" x2="16.9122" y2="31.2952" gradientUnits="userSpaceOnUse">
<stop stop-color="#8BE1F5"/>
<stop offset="0.0001" stop-color="#ACEFFF"/>
<stop offset="1" stop-color="#42DBFF"/>
</linearGradient>
<clipPath id="clip0_4175_1991">
<rect width="32" height="32" fill="white" transform="translate(0.5)"/>
</clipPath>
</defs>
</svg>
