<svg width="33" height="32" viewBox="0 0 33 32" fill="none" xmlns="http://www.w3.org/2000/svg">
<path d="M16.5002 5.33301C17.9146 5.33301 19.2712 5.89491 20.2714 6.8951C21.2716 7.8953 21.8335 9.25185 21.8335 10.6663C21.8335 12.0808 21.2716 13.4374 20.2714 14.4376C19.2712 15.4378 17.9146 15.9997 16.5002 15.9997C15.0857 15.9997 13.7291 15.4378 12.7289 14.4376C11.7287 13.4374 11.1668 12.0808 11.1668 10.6663C11.1668 9.25185 11.7287 7.8953 12.7289 6.8951C13.7291 5.89491 15.0857 5.33301 16.5002 5.33301ZM16.5002 18.6663C22.3935 18.6663 27.1668 21.053 27.1668 23.9997V26.6663H5.8335V23.9997C5.8335 21.053 10.6068 18.6663 16.5002 18.6663Z" fill="url(#paint0_linear_4175_1983)"/>
<defs>
<linearGradient id="paint0_linear_4175_1983" x1="19.5153" y1="5.45967" x2="16.5002" y2="26.6663" gradientUnits="userSpaceOnUse">
<stop stop-color="#8BE1F5"/>
<stop offset="0.0001" stop-color="#ACEFFF"/>
<stop offset="1" stop-color="#42DBFF"/>
</linearGradient>
</defs>
</svg>
