<svg width="33" height="32" viewBox="0 0 33 32" fill="none" xmlns="http://www.w3.org/2000/svg">
<path d="M16.5013 2.66699C23.8653 2.66699 29.8347 8.63633 29.8347 16.0003C29.8347 23.3643 23.8653 29.3337 16.5013 29.3337C14.145 29.3375 11.8302 28.7139 9.79465 27.527L3.17332 29.3337L4.97599 22.7097C3.78811 20.6735 3.16405 18.3577 3.16799 16.0003C3.16799 8.63633 9.13732 2.66699 16.5013 2.66699ZM11.9573 9.73366L11.6907 9.74433C11.518 9.75484 11.3493 9.80019 11.1947 9.87766C11.05 9.95957 10.918 10.062 10.8027 10.1817C10.6427 10.3323 10.552 10.463 10.4547 10.5897C9.96148 11.2309 9.69595 12.0181 9.69999 12.827C9.70265 13.4803 9.87332 14.1163 10.14 14.711C10.6853 15.9137 11.5827 17.187 12.7667 18.367C13.052 18.651 13.332 18.9363 13.6333 19.2017C15.1045 20.4969 16.8577 21.431 18.7533 21.9297L19.5107 22.0457C19.7573 22.059 20.004 22.0403 20.252 22.0283C20.6403 22.0083 21.0195 21.9031 21.3627 21.7203C21.5373 21.6304 21.7077 21.5325 21.8733 21.427C21.8733 21.427 21.9307 21.3897 22.04 21.307C22.22 21.1737 22.3307 21.079 22.48 20.923C22.5907 20.8083 22.6867 20.6737 22.76 20.5203C22.864 20.303 22.968 19.8883 23.0107 19.543C23.0427 19.279 23.0333 19.135 23.0293 19.0457C23.024 18.903 22.9053 18.755 22.776 18.6923L22 18.3443C22 18.3443 20.84 17.839 20.1307 17.5163C20.0564 17.4839 19.9769 17.4654 19.896 17.4617C19.8048 17.4523 19.7126 17.4626 19.6257 17.4918C19.5387 17.521 19.4591 17.5684 19.392 17.631C19.3853 17.6283 19.296 17.7043 18.332 18.8723C18.2767 18.9467 18.2004 19.0029 18.1131 19.0337C18.0257 19.0646 17.9311 19.0688 17.8413 19.0457C17.7545 19.0224 17.6694 18.993 17.5867 18.9577C17.4213 18.8883 17.364 18.8617 17.2507 18.8137C16.4854 18.4797 15.7769 18.0285 15.1507 17.4763C14.9827 17.3297 14.8267 17.1697 14.6667 17.015C14.1421 16.5126 13.685 15.9443 13.3067 15.3243L13.228 15.1977C13.1715 15.1125 13.1258 15.0207 13.092 14.9243C13.0413 14.7283 13.1733 14.571 13.1733 14.571C13.1733 14.571 13.4973 14.2163 13.648 14.0243C13.7947 13.8377 13.9187 13.6563 13.9987 13.527C14.156 13.2737 14.2053 13.0137 14.1227 12.8123C13.7493 11.9003 13.3627 10.9923 12.9653 10.091C12.8867 9.91233 12.6533 9.78433 12.4413 9.75899C12.3693 9.75099 12.2973 9.74299 12.2253 9.73766C12.0463 9.72876 11.8668 9.73054 11.688 9.74299L11.956 9.73233L11.9573 9.73366Z" fill="url(#paint0_linear_4175_1987)"/>
<defs>
<linearGradient id="paint0_linear_4175_1987" x1="20.2702" y1="2.82532" x2="16.5013" y2="29.3337" gradientUnits="userSpaceOnUse">
<stop stop-color="#8BE1F5"/>
<stop offset="0.0001" stop-color="#ACEFFF"/>
<stop offset="1" stop-color="#42DBFF"/>
</linearGradient>
</defs>
</svg>
