<svg width="591" height="582" viewBox="0 0 591 582" fill="none" xmlns="http://www.w3.org/2000/svg">
<g clip-path="url(#clip0_2039_3007)">
<mask id="mask0_2039_3007" style="mask-type:luminance" maskUnits="userSpaceOnUse" x="0" y="0" width="591" height="582">
<path d="M74.7892 -2.46743e-05L590.865 76.3331L516.076 581.969L0.000244141 505.636L74.7892 -2.46743e-05Z" fill="white"/>
</mask>
<g mask="url(#mask0_2039_3007)">
<path d="M332.344 108.57C331.542 113.995 326.402 117.729 320.865 116.91C315.327 116.091 311.488 111.029 312.291 105.604C313.093 100.178 318.233 96.4439 323.771 97.263C329.308 98.082 333.147 103.144 332.344 108.57Z" fill="#50B5EB"/>
<path d="M325.73 86.4963C337.857 88.29 346.359 99.0633 345.285 110.881L359.223 112.943C361.824 93.0225 347.656 74.5685 327.295 71.5569C306.934 68.5452 288.03 82.1077 284.753 101.928L299.954 104.176C302.347 92.5534 313.603 84.7026 325.73 86.4963Z" fill="#7EDFF4"/>
<path d="M191.716 100.619C189.951 112.555 178.644 120.77 166.461 118.968C154.279 117.166 145.834 106.03 147.599 94.0934C149.365 82.1573 160.672 73.9419 172.854 75.7438C185.037 77.5458 193.482 88.6826 191.716 100.619Z" fill="#8357FC"/>
<path d="M163.991 177.229L151.959 175.449L160.794 115.721L172.826 117.5L163.991 177.229Z" fill="#D8CAFF"/>
<path d="M187.254 236.083C182.503 268.202 162.85 291.902 143.358 289.019C123.866 286.136 111.916 257.761 116.666 225.642C121.417 193.523 141.07 169.823 160.562 172.706C180.054 175.589 192.004 203.964 187.254 236.083Z" fill="#AD8FFF"/>
<path d="M450.803 138.94C449.038 150.877 457.482 162.013 469.665 163.815C481.848 165.617 493.155 157.402 494.92 145.466C496.686 133.53 488.241 122.393 476.058 120.591C463.876 118.789 452.569 127.004 450.803 138.94Z" fill="#8357FC"/>
<path d="M455.163 220.297L467.195 222.076L476.03 162.348L463.998 160.568L455.163 220.297Z" fill="#D8CAFF"/>
<path d="M415.86 269.896C411.109 302.015 423.059 330.39 442.551 333.273C462.043 336.156 481.696 312.456 486.447 280.337C491.198 248.218 479.247 219.843 459.755 216.96C440.263 214.077 420.611 237.777 415.86 269.896Z" fill="#AD8FFF"/>
<path d="M447.91 291.502C435.969 372.233 359.492 427.799 277.093 415.612C194.695 403.424 137.578 328.098 149.519 247.367C161.46 166.635 237.937 111.069 320.336 123.257C402.734 135.445 459.851 210.77 447.91 291.502Z" fill="url(#paint0_linear_2039_3007)"/>
<path d="M42.705 438.271C47.4728 444.558 75.5846 432.038 105.495 410.306C135.405 388.575 155.787 365.86 151.02 359.573C146.252 353.285 118.14 365.806 88.23 387.537C58.3196 409.269 37.9373 431.983 42.705 438.271Z" fill="#8BE1F5"/>
<path d="M555.457 307.405C559.535 314.14 536.843 334.64 504.772 353.191C472.702 371.743 443.398 381.321 439.32 374.586C435.242 367.85 457.934 347.351 490.004 328.799C522.075 310.248 551.379 300.669 555.457 307.405Z" fill="#8BE1F5"/>
<path d="M335.823 450.801C334.218 461.652 304.546 466.252 269.549 461.075C234.552 455.899 207.482 442.906 209.087 432.055C210.692 421.204 240.364 416.604 275.361 421.78C310.358 426.957 337.428 439.95 335.823 450.801Z" fill="url(#paint1_linear_2039_3007)"/>
<path d="M313.588 490.295C312.286 499.094 290.223 503.12 264.307 499.287C238.391 495.454 218.438 485.213 219.739 476.414C221.041 467.615 243.104 463.589 269.02 467.422C294.936 471.255 314.889 481.496 313.588 490.295Z" fill="url(#paint2_linear_2039_3007)"/>
<path d="M427.194 276.391C408.036 339.411 354.224 309.768 294.466 300.93C239.52 292.802 174.153 308.03 172.118 238.663C179.699 187.408 227.766 156.144 313.994 168.898C399.421 181.534 439.888 234.902 427.194 276.391Z" fill="url(#paint3_linear_2039_3007)"/>
<path d="M383.021 260.065C380.743 275.464 370.393 286.689 359.903 285.137C349.413 283.586 342.756 269.845 345.033 254.446C347.311 239.047 357.661 227.822 368.152 229.373C378.641 230.925 385.299 244.666 383.021 260.065Z" fill="url(#paint4_linear_2039_3007)"/>
<path d="M258.746 241.445C256.468 256.844 246.118 268.07 235.628 266.518C225.138 264.966 218.481 251.225 220.758 235.827C223.036 220.428 233.386 209.202 243.876 210.754C254.366 212.306 261.024 226.046 258.746 241.445Z" fill="url(#paint5_linear_2039_3007)"/>
</g>
</g>
<defs>
<linearGradient id="paint0_linear_2039_3007" x1="319.523" y1="420.114" x2="322.027" y2="123.271" gradientUnits="userSpaceOnUse">
<stop stop-color="#8BE1F5"/>
<stop offset="0.0001" stop-color="#ACEFFF"/>
<stop offset="1" stop-color="#42DBFF"/>
</linearGradient>
<linearGradient id="paint1_linear_2039_3007" x1="269.549" y1="461.075" x2="275.361" y2="421.78" gradientUnits="userSpaceOnUse">
<stop stop-color="#D0EFFF"/>
<stop offset="1" stop-color="#A7EFFF"/>
</linearGradient>
<linearGradient id="paint2_linear_2039_3007" x1="264.307" y1="499.287" x2="269.02" y2="467.422" gradientUnits="userSpaceOnUse">
<stop stop-color="#F2FAFF"/>
<stop offset="1" stop-color="#CDEFFF"/>
</linearGradient>
<linearGradient id="paint3_linear_2039_3007" x1="292.919" y1="305.07" x2="310.989" y2="171.237" gradientUnits="userSpaceOnUse">
<stop stop-color="#CEEEFB"/>
<stop offset="1" stop-color="#F7FDFF"/>
</linearGradient>
<linearGradient id="paint4_linear_2039_3007" x1="359.903" y1="285.137" x2="368.151" y2="229.373" gradientUnits="userSpaceOnUse">
<stop stop-color="#085D94"/>
<stop offset="1" stop-color="#004673"/>
</linearGradient>
<linearGradient id="paint5_linear_2039_3007" x1="235.628" y1="266.518" x2="243.876" y2="210.754" gradientUnits="userSpaceOnUse">
<stop stop-color="#085D94"/>
<stop offset="1" stop-color="#004673"/>
</linearGradient>
<clipPath id="clip0_2039_3007">
<rect width="521.691" height="511.137" fill="white" transform="translate(74.7891) rotate(8.41365)"/>
</clipPath>
</defs>
</svg>
