<svg width="38" height="32" viewBox="0 0 38 32" fill="none" xmlns="http://www.w3.org/2000/svg">
<path d="M11.9544 31.4375C26.2905 31.4375 34.1339 19.5573 34.1339 9.25801C34.1339 8.92402 34.1265 8.58262 34.1117 8.24863C35.6375 7.14521 36.9542 5.77846 38 4.21262C36.579 4.84484 35.0703 5.25775 33.5254 5.43723C35.152 4.46217 36.37 2.93039 36.9535 1.12586C35.4232 2.03278 33.7497 2.67253 32.0046 3.01769C30.8288 1.76837 29.2742 0.941162 27.5812 0.663975C25.8881 0.386788 24.1509 0.675058 22.6381 1.48421C21.1253 2.29337 19.9212 3.57834 19.2119 5.14047C18.5027 6.7026 18.3278 8.45487 18.7143 10.1264C15.6156 9.97087 12.5842 9.16593 9.81664 7.76372C7.04904 6.36151 4.60701 4.39334 2.64887 1.9868C1.65363 3.7027 1.34909 5.73317 1.79713 7.66554C2.24517 9.59791 3.41218 11.2872 5.06098 12.39C3.82316 12.3507 2.61246 12.0175 1.52891 11.4178V11.5143C1.5278 13.315 2.15032 15.0605 3.29066 16.4541C4.43099 17.8477 6.01876 18.8034 7.78406 19.1588C6.63742 19.4725 5.43397 19.5182 4.26684 19.2924C4.76497 20.841 5.73416 22.1955 7.03914 23.1668C8.34412 24.138 9.91978 24.6777 11.5462 24.7103C8.78501 26.8793 5.37411 28.0558 1.86289 28.0502C1.2402 28.0492 0.618132 28.0111 0 27.9359C3.56702 30.2243 7.71642 31.4398 11.9544 31.4375Z" fill="#FF3E3E"/>
</svg>
