<svg width="49" height="49" viewBox="0 0 49 49" fill="none" xmlns="http://www.w3.org/2000/svg">
<path d="M44.8469 0.986328H3.94377C1.9844 0.986328 0.400024 2.5332 0.400024 4.4457V45.5176C0.400024 47.4301 1.9844 48.9863 3.94377 48.9863H44.8469C46.8063 48.9863 48.4 47.4301 48.4 45.527V4.4457C48.4 2.5332 46.8063 0.986328 44.8469 0.986328ZM14.6406 41.8895H7.51565V18.977H14.6406V41.8895ZM11.0781 15.8551C8.79065 15.8551 6.94377 14.0082 6.94377 11.7301C6.94377 9.45195 8.79065 7.60508 11.0781 7.60508C13.3563 7.60508 15.2031 9.45195 15.2031 11.7301C15.2031 13.9988 13.3563 15.8551 11.0781 15.8551ZM41.3031 41.8895H34.1875V30.752C34.1875 28.0988 34.1406 24.677 30.4844 24.677C26.7813 24.677 26.2188 27.5738 26.2188 30.5645V41.8895H19.1125V18.977H25.9375V22.1082H26.0313C26.9781 20.3082 29.3032 18.4051 32.7625 18.4051C39.9719 18.4051 41.3031 23.1488 41.3031 29.3176V41.8895V41.8895Z" fill="#FF3E3E"/>
</svg>
