<svg width="32" height="29" viewBox="0 0 32 29" fill="none" xmlns="http://www.w3.org/2000/svg">
<path fill-rule="evenodd" clip-rule="evenodd" d="M0 14.5004C0 13.97 0.210691 13.4613 0.585721 13.0863C0.960752 12.7113 1.4694 12.5006 1.99978 12.5006H25.1692L16.5821 3.91754C16.2066 3.54203 15.9957 3.03274 15.9957 2.50169C15.9957 1.97065 16.2066 1.46136 16.5821 1.08585C16.9577 0.710346 17.4669 0.49939 17.998 0.49939C18.529 0.49939 19.0383 0.710346 19.4138 1.08585L31.4125 13.0845C31.5987 13.2703 31.7465 13.491 31.8473 13.7339C31.9481 13.9769 32 14.2373 32 14.5004C32 14.7634 31.9481 15.0238 31.8473 15.2668C31.7465 15.5098 31.5987 15.7304 31.4125 15.9162L19.4138 27.9149C19.0383 28.2904 18.529 28.5013 17.998 28.5013C17.4669 28.5013 16.9577 28.2904 16.5821 27.9149C16.2066 27.5394 15.9957 27.0301 15.9957 26.499C15.9957 25.968 16.2066 25.4587 16.5821 25.0832L25.1692 16.5001H1.99978C1.4694 16.5001 0.960752 16.2894 0.585721 15.9144C0.210691 15.5394 0 15.0307 0 14.5004Z" fill="#FF3E3E"/>
</svg>
