<svg width="65" height="65" viewBox="0 0 65 65" fill="none" xmlns="http://www.w3.org/2000/svg">
<rect width="65" height="65" rx="32.5" fill="#444444" fill-opacity="0.74"/>
<path d="M47.8085 29.3537C44.799 29.3609 41.8632 28.4223 39.416 26.6706V38.8878C39.4152 41.1505 38.7236 43.3591 37.4337 45.2182C36.1437 47.0773 34.317 48.4982 32.1977 49.2911C30.0784 50.0839 27.7675 50.2109 25.5741 49.6549C23.3807 49.099 21.4093 47.8867 19.9235 46.1801C18.4377 44.4735 17.5084 42.3539 17.2597 40.1049C17.011 37.8558 17.4549 35.5845 18.532 33.5945C19.609 31.6045 21.268 29.9908 23.2869 28.9691C25.3059 27.9474 27.5887 27.5664 29.83 27.8771V34.022C28.8044 33.6994 27.703 33.7091 26.6832 34.0497C25.6634 34.3904 24.7774 35.0446 24.1516 35.9189C23.5258 36.7931 23.1922 37.8428 23.1985 38.918C23.2049 39.9931 23.5508 41.0388 24.1868 41.9056C24.8229 42.7725 25.7166 43.4162 26.7403 43.7448C27.7641 44.0734 28.8654 44.0701 29.8872 43.7355C30.909 43.4008 31.7989 42.7518 32.4298 41.8812C33.0607 41.0107 33.4004 39.963 33.4004 38.8878V15.0044H39.416C39.4118 15.5124 39.4544 16.0197 39.5432 16.5199C39.7522 17.6366 40.1868 18.6988 40.8205 19.6417C41.4542 20.5846 42.2735 21.3883 43.2284 22.0037C44.587 22.902 46.1798 23.3808 47.8085 23.3805V29.3537Z" fill="white"/>
</svg>
