<svg width="65" height="65" viewBox="0 0 65 65" fill="none" xmlns="http://www.w3.org/2000/svg">
<rect width="65" height="65" rx="32.5" fill="#444444" fill-opacity="0.74"/>
<path d="M44.5312 17.1875H20.4688C19.5985 17.1875 18.7639 17.5332 18.1486 18.1486C17.5332 18.7639 17.1875 19.5985 17.1875 20.4688V44.5312C17.1875 45.4015 17.5332 46.2361 18.1486 46.8514C18.7639 47.4668 19.5985 47.8125 20.4688 47.8125H29.8511V37.4007H25.5444V32.5H29.8511V28.7648C29.8511 24.5163 32.3804 22.1695 36.2543 22.1695C38.1096 22.1695 40.0496 22.5004 40.0496 22.5004V26.6703H37.912C35.8059 26.6703 35.1489 27.9773 35.1489 29.3179V32.5H39.8507L39.0987 37.4007H35.1489V47.8125H44.5312C45.4015 47.8125 46.2361 47.4668 46.8514 46.8514C47.4668 46.2361 47.8125 45.4015 47.8125 44.5312V20.4688C47.8125 19.5985 47.4668 18.7639 46.8514 18.1486C46.2361 17.5332 45.4015 17.1875 44.5312 17.1875Z" fill="white"/>
</svg>
