<svg width="105" height="104" viewBox="0 0 105 104" fill="none" xmlns="http://www.w3.org/2000/svg">
<path d="M45.15 61.36L33.8625 50.18C32.9 49.2267 31.675 48.75 30.1875 48.75C28.7 48.75 27.475 49.2267 26.5125 50.18C25.55 51.1333 25.0687 52.3467 25.0687 53.82C25.0687 55.2933 25.55 56.5067 26.5125 57.46L41.475 72.28C42.525 73.32 43.75 73.84 45.15 73.84C46.55 73.84 47.775 73.32 48.825 72.28L78.4875 42.9C79.45 41.9467 79.9312 40.7333 79.9312 39.26C79.9312 37.7867 79.45 36.5733 78.4875 35.62C77.525 34.6667 76.3 34.19 74.8125 34.19C73.325 34.19 72.1 34.6667 71.1375 35.62L45.15 61.36ZM52.5 104C45.2375 104 38.4125 102.634 32.025 99.9024C25.6375 97.1707 20.0812 93.4665 15.3562 88.79C10.6313 84.11 6.8915 78.6067 4.137 72.28C1.3825 65.9533 0.0035 59.1933 0 52C0 44.8067 1.379 38.0467 4.137 31.72C6.895 25.3933 10.6348 19.89 15.3562 15.21C20.0812 10.53 25.6375 6.82587 32.025 4.0976C38.4125 1.36933 45.2375 0.00346667 52.5 0C59.7625 0 66.5875 1.36587 72.975 4.0976C79.3625 6.82933 84.9187 10.5335 89.6437 15.21C94.3687 19.89 98.1102 25.3933 100.868 31.72C103.626 38.0467 105.003 44.8067 105 52C105 59.1933 103.621 65.9533 100.863 72.28C98.105 78.6067 94.3652 84.11 89.6437 88.79C84.9187 93.47 79.3625 97.1758 72.975 99.9076C66.5875 102.639 59.7625 104.003 52.5 104Z" fill="url(#paint0_linear_4277_7414)"/>
<defs>
<linearGradient id="paint0_linear_4277_7414" x1="81.5" y1="16.5" x2="24" y2="104" gradientUnits="userSpaceOnUse">
<stop stop-color="#6DFF55"/>
<stop offset="0.9999" stop-color="#33782D"/>
</linearGradient>
</defs>
</svg>
