<svg width="36" height="40" viewBox="0 0 36 40" fill="none" xmlns="http://www.w3.org/2000/svg">
<path d="M8 18H12.4V22H8V18ZM8 26H12.4V30H8V26ZM16.8 18H21.2V22H16.8V18ZM16.8 26H21.2V30H16.8V26ZM25.6 18H30V22H25.6V18ZM25.6 26H30V30H25.6V26Z" fill="url(#paint0_linear_2813_3864)"/>
<path d="M4 40H32C34.206 40 36 38.206 36 36V8C36 5.794 34.206 4 32 4H28V0H24V4H12V0H8V4H4C1.794 4 0 5.794 0 8V36C0 38.206 1.794 40 4 40ZM32 12L32.002 36H4V12H32Z" fill="url(#paint1_linear_2813_3864)"/>
<defs>
<linearGradient id="paint0_linear_2813_3864" x1="8" y1="24" x2="30" y2="24" gradientUnits="userSpaceOnUse">
<stop stop-color="#6288E2"/>
<stop offset="1" stop-color="#73ACF9"/>
</linearGradient>
<linearGradient id="paint1_linear_2813_3864" x1="2.01166e-07" y1="20" x2="36" y2="20" gradientUnits="userSpaceOnUse">
<stop stop-color="#6288E2"/>
<stop offset="1" stop-color="#73ACF9"/>
</linearGradient>
</defs>
</svg>
