<svg width="32" height="44" viewBox="0 0 32 44" fill="none" xmlns="http://www.w3.org/2000/svg">
<path d="M16 0.125V11.0625C16 12.3057 16.4939 13.498 17.3729 14.3771C18.252 15.2561 19.4443 15.75 20.6875 15.75H31.625V39.1875C31.625 40.4307 31.1311 41.623 30.2521 42.5021C29.373 43.3811 28.1807 43.875 26.9375 43.875H5.0625C3.8193 43.875 2.62701 43.3811 1.74794 42.5021C0.86886 41.623 0.375 40.4307 0.375 39.1875V4.8125C0.375 3.5693 0.86886 2.37701 1.74794 1.49794C2.62701 0.61886 3.8193 0.125 5.0625 0.125H16ZM19.125 0.90625V11.0625C19.125 11.4769 19.2896 11.8743 19.5826 12.1674C19.8757 12.4604 20.2731 12.625 20.6875 12.625H30.8438L19.125 0.90625Z" fill="url(#paint0_linear_2813_3898)"/>
<defs>
<linearGradient id="paint0_linear_2813_3898" x1="0.375" y1="22" x2="31.625" y2="22" gradientUnits="userSpaceOnUse">
<stop stop-color="#6288E2"/>
<stop offset="1" stop-color="#73ACF9"/>
</linearGradient>
</defs>
</svg>
