<svg width="32" height="32" viewBox="0 0 32 32" fill="none" xmlns="http://www.w3.org/2000/svg">
<path d="M28.68 5.89L26.11 3.32C25.5743 2.79953 24.8569 2.50837 24.11 2.50837C23.3631 2.50837 22.6457 2.79953 22.11 3.32L5 20.44C4.54074 20.9264 4.1987 21.5113 4 22.15L2.67 26.15C2.54668 26.5298 2.51392 26.9332 2.57433 27.3279C2.63475 27.7226 2.78666 28.0977 3.01793 28.4233C3.2492 28.7488 3.55341 29.0157 3.90625 29.2026C4.25909 29.3896 4.65078 29.4914 5.05 29.5C5.32522 29.5003 5.5987 29.4564 5.86 29.37L9.86 28.04C10.4989 27.8282 11.0806 27.4724 11.56 27L28.68 9.86C29.2058 9.33318 29.5011 8.61929 29.5011 7.875C29.5011 7.13071 29.2058 6.41682 28.68 5.89ZM24.13 13.36C23.9894 13.5005 23.7988 13.5793 23.6 13.5793C23.4012 13.5793 23.2106 13.5005 23.07 13.36L18.64 8.94C18.5075 8.79782 18.4354 8.60978 18.4388 8.41548C18.4423 8.22118 18.521 8.03579 18.6584 7.89838C18.7958 7.76097 18.9812 7.68225 19.1755 7.67882C19.3698 7.6754 19.5578 7.74752 19.7 7.88L24.12 12.3C24.2605 12.4406 24.3393 12.6312 24.3393 12.83C24.3393 13.0288 24.2605 13.2194 24.12 13.36H24.13ZM27.67 30.75H16.75C16.5511 30.75 16.3603 30.671 16.2197 30.5303C16.079 30.3897 16 30.1989 16 30C16 29.8011 16.079 29.6103 16.2197 29.4697C16.3603 29.329 16.5511 29.25 16.75 29.25H27.67C28.089 29.25 28.4909 29.0835 28.7872 28.7872C29.0835 28.4909 29.25 28.089 29.25 27.67V16.75C29.25 16.5511 29.329 16.3603 29.4697 16.2197C29.6103 16.079 29.8011 16 30 16C30.1989 16 30.3897 16.079 30.5303 16.2197C30.671 16.3603 30.75 16.5511 30.75 16.75V27.67C30.75 28.4869 30.4255 29.2703 29.8479 29.8479C29.2703 30.4255 28.4869 30.75 27.67 30.75ZM2 16C1.80109 16 1.61032 15.921 1.46967 15.7803C1.32902 15.6397 1.25 15.4489 1.25 15.25V4.33C1.25 3.51313 1.5745 2.72972 2.15211 2.15211C2.72972 1.5745 3.51313 1.25 4.33 1.25H15.25C15.4489 1.25 15.6397 1.32902 15.7803 1.46967C15.921 1.61032 16 1.80109 16 2C16 2.19891 15.921 2.38968 15.7803 2.53033C15.6397 2.67098 15.4489 2.75 15.25 2.75H4.33C3.91096 2.75 3.50908 2.91646 3.21277 3.21277C2.91646 3.50908 2.75 3.91096 2.75 4.33V15.25C2.75 15.4489 2.67098 15.6397 2.53033 15.7803C2.38968 15.921 2.19891 16 2 16Z" fill="url(#paint0_linear_2813_4058)"/>
<defs>
<linearGradient id="paint0_linear_2813_4058" x1="1.25" y1="16" x2="30.75" y2="16" gradientUnits="userSpaceOnUse">
<stop stop-color="#6288E2"/>
<stop offset="1" stop-color="#73ACF9"/>
</linearGradient>
</defs>
</svg>
