<svg width="50" height="50" viewBox="0 0 50 50" fill="none" xmlns="http://www.w3.org/2000/svg">
<path d="M25 12.5C17.002 12.5 10.7715 17.2656 3.125 25C9.70703 31.6113 15.2344 37.5 25 37.5C34.7559 37.5 41.9336 30.0391 46.875 25.1367C41.8164 19.3945 34.6484 12.5 25 12.5ZM25 33.916C20.1758 33.916 16.25 29.9121 16.25 25C16.25 20.0781 20.1758 16.084 25 16.084C29.8242 16.084 33.75 20.0879 33.75 25C33.75 29.9219 29.8242 33.916 25 33.916Z" fill="url(#paint0_linear_2813_5197)"/>
<path d="M25 21.875C25 21.1035 25.2832 20.4004 25.7422 19.8535C25.498 19.8145 25.2539 19.7949 25 19.7949C22.1875 19.7949 19.8926 22.1289 19.8926 25C19.8926 27.8711 22.1875 30.2051 25 30.2051C27.8125 30.2051 30.1074 27.8711 30.1074 25C30.1074 24.7754 30.0879 24.5508 30.0684 24.3262C29.5312 24.7461 28.8672 25 28.1348 25C26.3965 25 25 23.6035 25 21.875Z" fill="url(#paint1_linear_2813_5197)"/>
<defs>
<linearGradient id="paint0_linear_2813_5197" x1="3.125" y1="25" x2="46.875" y2="25" gradientUnits="userSpaceOnUse">
<stop stop-color="#6288E2"/>
<stop offset="1" stop-color="#73ACF9"/>
</linearGradient>
<linearGradient id="paint1_linear_2813_5197" x1="19.8926" y1="25" x2="30.1074" y2="25" gradientUnits="userSpaceOnUse">
<stop stop-color="#6288E2"/>
<stop offset="1" stop-color="#73ACF9"/>
</linearGradient>
</defs>
</svg>
