<svg width="42" height="34" viewBox="0 0 42 34" fill="none" xmlns="http://www.w3.org/2000/svg">
<path d="M37.6665 0.333252H4.33317C2.03525 0.333252 0.166504 2.202 0.166504 4.49992V29.4999C0.166504 31.7978 2.03525 33.6666 4.33317 33.6666H37.6665C39.9644 33.6666 41.8332 31.7978 41.8332 29.4999V4.49992C41.8332 2.202 39.9644 0.333252 37.6665 0.333252ZM14.1561 8.66658C16.554 8.66658 18.3228 10.4353 18.3228 12.8333C18.3228 15.2312 16.554 16.9999 14.1561 16.9999C11.7582 16.9999 9.98942 15.2312 9.98942 12.8333C9.98942 10.4353 11.7561 8.66658 14.1561 8.66658ZM21.8957 25.3332H6.4165V24.3645C6.4165 21.5041 9.90817 18.5624 14.1561 18.5624C18.404 18.5624 21.8957 21.5041 21.8957 24.3645V25.3332ZM35.5832 23.2499H27.2498V19.0832H35.5832V23.2499ZM35.5832 14.9166H25.1665V10.7499H35.5832V14.9166Z" fill="url(#paint0_linear_2813_3941)"/>
<defs>
<linearGradient id="paint0_linear_2813_3941" x1="0.166504" y1="16.9999" x2="41.8332" y2="16.9999" gradientUnits="userSpaceOnUse">
<stop stop-color="#6288E2"/>
<stop offset="1" stop-color="#73ACF9"/>
</linearGradient>
</defs>
</svg>
