<svg width="45" height="43" viewBox="0 0 45 43" fill="none" xmlns="http://www.w3.org/2000/svg">
<path d="M22.5 0C34.9059 0 45 8.19 45 18.2588C45 22.2891 43.4391 25.9172 40.1766 29.4919C35.4572 34.9256 24.9019 41.5434 22.5 42.5559C20.1656 43.5403 20.4356 42.0019 20.5425 41.3944L20.5509 41.3438L20.8716 39.4172C20.9475 38.8434 21.0263 37.9519 20.7984 37.3838C20.5453 36.7566 19.5497 36.4303 18.8184 36.2728C8.00437 34.8469 0 27.2841 0 18.2588C0 8.19 10.0969 0 22.5 0ZM14.1244 21.6169H9.83531V13.8319C9.83531 13.716 9.78948 13.6048 9.7078 13.5226C9.62613 13.4404 9.51525 13.3939 9.39937 13.3931H7.81875C7.76113 13.3931 7.70408 13.4045 7.65085 13.4265C7.59762 13.4486 7.54925 13.4809 7.50851 13.5216C7.46777 13.5624 7.43545 13.6107 7.4134 13.664C7.39135 13.7172 7.38 13.7743 7.38 13.8319V23.6363C7.38 23.7516 7.42781 23.8612 7.50375 23.9372V23.94L7.50938 23.9456L7.515 23.9513C7.59656 24.0297 7.70559 24.0731 7.81875 24.0722H14.1244C14.3662 24.0722 14.5603 23.8753 14.5603 23.6334V22.0584C14.5607 22.0008 14.5497 21.9437 14.528 21.8903C14.5063 21.8369 14.4743 21.7884 14.4338 21.7474C14.3933 21.7064 14.3452 21.6737 14.2921 21.6513C14.239 21.629 14.182 21.6172 14.1244 21.6169ZM16.3491 13.3931C16.2327 13.3931 16.1211 13.4394 16.0388 13.5216C15.9565 13.6039 15.9103 13.7155 15.9103 13.8319V23.6363C15.9103 23.8781 16.1072 24.0722 16.3491 24.0722H17.9297C18.1716 24.0722 18.3656 23.8753 18.3656 23.6363V13.8319C18.3656 13.716 18.3198 13.6048 18.2381 13.5226C18.1564 13.4404 18.0456 13.3939 17.9297 13.3931H16.3491ZM27.2137 13.3931C27.0974 13.3931 26.9858 13.4394 26.9035 13.5216C26.8212 13.6039 26.775 13.7155 26.775 13.8319V19.6537L22.2834 13.59C22.2721 13.5752 22.2599 13.5612 22.2469 13.5478V13.545C22.238 13.5352 22.2286 13.5258 22.2188 13.5169L22.2103 13.5084C22.2007 13.4992 22.1903 13.4908 22.1794 13.4831H22.1766L22.1625 13.4719L22.1541 13.4663C22.1497 13.463 22.145 13.4601 22.14 13.4578L22.1175 13.4438H22.1119L22.1034 13.4381L22.0753 13.4269L22.0641 13.4212C22.0549 13.4179 22.0455 13.4151 22.0359 13.4128H22.0303L22.0219 13.41L21.9966 13.4044H21.9797L21.9712 13.4016H21.96L21.9544 13.3988H20.34C20.2241 13.3987 20.1129 13.4446 20.0307 13.5263C19.9485 13.6079 19.902 13.7188 19.9013 13.8347V23.6391C19.9013 23.8809 20.0981 24.075 20.34 24.075H21.915C22.1597 24.075 22.3566 23.8781 22.3566 23.6391V17.8172L26.8566 23.8922C26.8865 23.934 26.9236 23.9702 26.9663 23.9991L26.9691 24.0019L26.9972 24.0187L27.0084 24.0244C27.0157 24.0286 27.0232 24.0324 27.0309 24.0356L27.0506 24.0441L27.0647 24.0497C27.074 24.0528 27.0834 24.0556 27.0928 24.0581H27.1012C27.1379 24.0686 27.1757 24.0743 27.2137 24.075H28.7887C29.0334 24.075 29.2303 23.8781 29.2303 23.6391V13.8319C29.2303 13.7155 29.1841 13.6039 29.1018 13.5216C29.0195 13.4394 28.9079 13.3931 28.7916 13.3931H27.2137ZM37.9434 15.4097V13.8347C37.9438 13.7771 37.9328 13.7199 37.9111 13.6666C37.8894 13.6132 37.8574 13.5646 37.8169 13.5236C37.7764 13.4826 37.7283 13.45 37.6752 13.4276C37.6221 13.4052 37.5651 13.3935 37.5075 13.3931H31.2019C31.0884 13.3933 30.9794 13.4377 30.8981 13.5169H30.8953L30.8925 13.5225L30.8869 13.5309C30.8083 13.6115 30.764 13.7194 30.7631 13.8319V23.6363C30.7631 23.7516 30.8109 23.8612 30.8869 23.9372L30.8925 23.9456L30.8981 23.9513C30.9799 24.0294 31.0888 24.0728 31.2019 24.0722H37.5075C37.7494 24.0722 37.9434 23.8753 37.9434 23.6334V22.0584C37.9438 22.0008 37.9328 21.9437 37.9111 21.8903C37.8894 21.8369 37.8574 21.7884 37.8169 21.7474C37.7764 21.7064 37.7283 21.6737 37.6752 21.6513C37.6221 21.629 37.5651 21.6172 37.5075 21.6169H33.2156V19.9603H37.5047C37.7466 19.9603 37.9406 19.7634 37.9406 19.5216V17.9466C37.941 17.8889 37.93 17.8318 37.9083 17.7784C37.8866 17.7251 37.8546 17.6765 37.8141 17.6355C37.7736 17.5945 37.7255 17.5619 37.6724 17.5395C37.6193 17.5171 37.5623 17.5054 37.5047 17.505H33.2156V15.8484H37.5047C37.7466 15.8484 37.9406 15.6516 37.9406 15.4097H37.9434Z" fill="url(#paint0_linear_2813_3924)"/>
<defs>
<linearGradient id="paint0_linear_2813_3924" x1="2.51457e-07" y1="21.4384" x2="45" y2="21.4384" gradientUnits="userSpaceOnUse">
<stop stop-color="#6288E2"/>
<stop offset="1" stop-color="#73ACF9"/>
</linearGradient>
</defs>
</svg>
