<svg width="27" height="39" viewBox="0 0 27 39" fill="none" xmlns="http://www.w3.org/2000/svg">
<path d="M13.5 0.75C6.24375 0.75 0.375 6.61875 0.375 13.875C0.375 23.7188 13.5 38.25 13.5 38.25C13.5 38.25 26.625 23.7188 26.625 13.875C26.625 6.61875 20.7563 0.75 13.5 0.75ZM13.5 18.5625C12.2568 18.5625 11.0645 18.0686 10.1854 17.1896C9.30636 16.3105 8.8125 15.1182 8.8125 13.875C8.8125 12.6318 9.30636 11.4395 10.1854 10.5604C11.0645 9.68136 12.2568 9.1875 13.5 9.1875C14.7432 9.1875 15.9355 9.68136 16.8146 10.5604C17.6936 11.4395 18.1875 12.6318 18.1875 13.875C18.1875 15.1182 17.6936 16.3105 16.8146 17.1896C15.9355 18.0686 14.7432 18.5625 13.5 18.5625Z" fill="url(#paint0_linear_2813_3905)"/>
<defs>
<linearGradient id="paint0_linear_2813_3905" x1="0.375" y1="19.5" x2="26.625" y2="19.5" gradientUnits="userSpaceOnUse">
<stop stop-color="#6288E2"/>
<stop offset="1" stop-color="#73ACF9"/>
</linearGradient>
</defs>
</svg>
