<svg width="50" height="50" viewBox="0 0 50 50" fill="none" xmlns="http://www.w3.org/2000/svg">
<path d="M30.0813 15.8438C26.0701 16.4872 22.4171 18.5324 19.7719 21.6156C18.1035 21.1946 16.5999 20.2826 15.4555 18.9976C14.3112 17.7127 13.5787 16.1139 13.353 14.4081C13.1272 12.7023 13.4185 10.968 14.1892 9.4296C14.9599 7.89118 16.1744 6.61943 17.6758 5.77886C19.1772 4.93829 20.8963 4.56759 22.6106 4.71472C24.325 4.86185 25.9557 5.52004 27.2919 6.60413C28.6281 7.68823 29.6083 9.14834 30.1056 10.7956C30.6028 12.4428 30.5944 14.2014 30.0813 15.8438ZM17.5 25C16.3 27.3438 15.625 30 15.625 32.8125C15.625 36.9063 17.0563 40.6625 19.4438 43.6156C11.1094 42.6656 6.25 36.8844 6.25 31.25V29.6875C6.25 28.4443 6.74386 27.252 7.62294 26.3729C8.50201 25.4939 9.6943 25 10.9375 25H17.5ZM30.8594 26.5625C30.8594 26.0445 31.0651 25.5477 31.4314 25.1814C31.7977 24.8152 32.2945 24.6094 32.8125 24.6094C33.3305 24.6094 33.8273 24.8152 34.1936 25.1814C34.5599 25.5477 34.7656 26.0445 34.7656 26.5625C34.7656 27.0805 34.5599 27.5773 34.1936 27.9436C33.8273 28.3099 33.3305 28.5156 32.8125 28.5156C32.2945 28.5156 31.7977 28.3099 31.4314 27.9436C31.0651 27.5773 30.8594 27.0805 30.8594 26.5625ZM34.375 39.0625C34.375 39.4769 34.2104 39.8743 33.9174 40.1674C33.6243 40.4604 33.2269 40.625 32.8125 40.625C32.3981 40.625 32.0007 40.4604 31.7076 40.1674C31.4146 39.8743 31.25 39.4769 31.25 39.0625V32.8125C31.25 32.3981 31.4146 32.0007 31.7076 31.7076C32.0007 31.4146 32.3981 31.25 32.8125 31.25C33.2269 31.25 33.6243 31.4146 33.9174 31.7076C34.2104 32.0007 34.375 32.3981 34.375 32.8125V39.0625ZM18.75 32.8125C18.75 30.9658 19.1137 29.1372 19.8204 27.431C20.5272 25.7249 21.563 24.1746 22.8688 22.8688C24.1746 21.563 25.7249 20.5272 27.431 19.8204C29.1372 19.1137 30.9658 18.75 32.8125 18.75C34.6592 18.75 36.4878 19.1137 38.194 19.8204C39.9001 20.5272 41.4504 21.563 42.7562 22.8688C44.062 24.1746 45.0979 25.7249 45.8046 27.431C46.5113 29.1372 46.875 30.9658 46.875 32.8125C46.875 36.5421 45.3934 40.119 42.7562 42.7562C40.119 45.3934 36.5421 46.875 32.8125 46.875C29.0829 46.875 25.506 45.3934 22.8688 42.7562C20.2316 40.119 18.75 36.5421 18.75 32.8125ZM21.875 32.8125C21.875 35.7133 23.0273 38.4953 25.0785 40.5465C27.1297 42.5977 29.9117 43.75 32.8125 43.75C35.7133 43.75 38.4953 42.5977 40.5465 40.5465C42.5977 38.4953 43.75 35.7133 43.75 32.8125C43.75 29.9117 42.5977 27.1297 40.5465 25.0785C38.4953 23.0273 35.7133 21.875 32.8125 21.875C29.9117 21.875 27.1297 23.0273 25.0785 25.0785C23.0273 27.1297 21.875 29.9117 21.875 32.8125Z" fill="url(#paint0_linear_2813_3880)"/>
<defs>
<linearGradient id="paint0_linear_2813_3880" x1="6.25" y1="25.7791" x2="46.875" y2="25.7791" gradientUnits="userSpaceOnUse">
<stop stop-color="#6288E2"/>
<stop offset="1" stop-color="#73ACF9"/>
</linearGradient>
</defs>
</svg>
