<svg width="41" height="40" viewBox="0 0 41 40" fill="none" xmlns="http://www.w3.org/2000/svg">
<path d="M38.0002 9.24994C32.0002 -6.16312e-05 19.7502 -2.75006 10.2502 2.99994C1.00018 8.74994 -1.99982 21.2499 4.00018 30.4999L4.50018 31.2499L2.50018 38.7499L10.0002 36.7499L10.7502 37.2499C14.0002 38.9999 17.5002 39.9999 21.0002 39.9999C24.7502 39.9999 28.5002 38.9999 31.7502 36.9999C41.0002 30.9999 43.7502 18.7499 38.0002 9.24994ZM32.7502 28.4999C31.7502 29.9999 30.5002 30.9999 28.7502 31.2499C27.7502 31.2499 26.5002 31.7499 21.5002 29.7499C17.2502 27.7499 13.7502 24.4999 11.2502 20.7499C9.75018 18.9999 9.00018 16.7499 8.75018 14.4999C8.75018 12.4999 9.50018 10.7499 10.7502 9.49994C11.2502 8.99994 11.7502 8.74994 12.2502 8.74994H13.5002C14.0002 8.74994 14.5002 8.74994 14.7502 9.74994C15.2502 10.9999 16.5002 13.9999 16.5002 14.2499C16.7502 14.4999 16.7502 14.9999 16.5002 15.2499C16.7502 15.7499 16.5002 16.2499 16.2502 16.4999C16.0002 16.7499 15.7502 17.2499 15.5002 17.4999C15.0002 17.7499 14.7502 18.2499 15.0002 18.7499C16.0002 20.2499 17.2502 21.7499 18.5002 22.9999C20.0002 24.2499 21.5002 25.2499 23.2502 25.9999C23.7502 26.2499 24.2502 26.2499 24.5002 25.7499C24.7502 25.2499 26.0002 23.9999 26.5002 23.4999C27.0002 22.9999 27.2502 22.9999 27.7502 23.2499L31.7502 25.2499C32.2502 25.4999 32.7502 25.7499 33.0002 25.9999C33.2502 26.7499 33.2502 27.7499 32.7502 28.4999Z" fill="url(#paint0_linear_2813_3888)"/>
<defs>
<linearGradient id="paint0_linear_2813_3888" x1="0.889649" y1="20.0001" x2="40.9999" y2="20.0001" gradientUnits="userSpaceOnUse">
<stop stop-color="#6288E2"/>
<stop offset="1" stop-color="#73ACF9"/>
</linearGradient>
</defs>
</svg>
