<svg width="197" height="265" viewBox="0 0 197 265" fill="none" xmlns="http://www.w3.org/2000/svg">
<g filter="url(#filter0_d_7_508)">
<mask id="path-1-inside-1_7_508" fill="white">
<path d="M154.083 148.506C149.023 159.931 138.186 168.05 123.957 171.076C109.728 174.103 93.2723 171.789 78.2104 164.645C63.1484 157.501 50.7138 146.11 43.6419 132.98C36.57 119.85 35.4403 106.055 40.5011 94.6305L53.6595 100.872C49.7712 109.649 50.6392 120.248 56.0725 130.336C61.5059 140.424 71.0594 149.175 82.6316 154.664C94.2037 160.153 106.847 161.931 117.779 159.605C128.711 157.28 137.037 151.042 140.925 142.265L154.083 148.506Z"/>
</mask>
<path d="M154.083 148.506C149.023 159.931 138.186 168.05 123.957 171.076C109.728 174.103 93.2723 171.789 78.2104 164.645C63.1484 157.501 50.7138 146.11 43.6419 132.98C36.57 119.85 35.4403 106.055 40.5011 94.6305L53.6595 100.872C49.7712 109.649 50.6392 120.248 56.0725 130.336C61.5059 140.424 71.0594 149.175 82.6316 154.664C94.2037 160.153 106.847 161.931 117.779 159.605C128.711 157.28 137.037 151.042 140.925 142.265L154.083 148.506Z" fill="#121212" stroke="#121212" stroke-width="24.7887" mask="url(#path-1-inside-1_7_508)"/>
<rect width="20.952" height="45.0198" transform="matrix(0.903511 0.428566 -0.405018 0.914309 72.9854 150.583)" fill="#121212"/>
<rect width="66.1071" height="4.18789" transform="matrix(0.903511 0.428566 -0.405018 0.914309 32.4692 181.018)" fill="#0707DB"/>
<rect width="83.2698" height="126.563" rx="41.6349" transform="matrix(0.901436 0.433216 -0.398109 0.917553 97.8818 13.98)" fill="#F93636"/>
<path d="M117.715 82.1493C108.673 102.964 89.9241 122.529 69.1943 112.574C57.7455 107.076 67.2132 83.0536 76.2551 62.239C85.297 41.4245 97.3382 26.8135 113.357 34.5061C124.806 40.0042 126.757 61.3348 117.715 82.1493Z" fill="#FFF52F"/>
<path d="M57.4614 81.0862C58.5153 78.7071 61.2755 77.6825 63.6264 78.7976L147.692 118.673C150.043 119.788 151.094 122.621 150.041 125V125C148.987 127.379 146.227 128.403 143.876 127.288L59.81 87.4129C57.4591 86.2978 56.4076 83.4652 57.4614 81.0862V81.0862Z" fill="#0707DB"/>
<path d="M142.159 126.473C137.098 137.898 128.049 146.865 117.003 151.401C105.957 155.937 93.8188 155.672 83.2582 150.662C72.6975 145.653 64.5798 136.311 60.6909 124.69C56.8019 113.07 57.4603 100.123 62.5211 88.6985L102.34 107.586L142.159 126.473Z" fill="#121212"/>
<path d="M93.4437 105.684C100.238 108.907 88.5143 118.754 83.9975 119.136C73.6142 120.012 82.2343 130.327 77.0402 129.831C70.5205 128.566 78.2027 136.154 73.6683 137.443C70.8877 138.234 65.9013 132.013 63.3206 122.514C60.2995 111.393 60.2765 101.927 64.6602 92.031L77.3424 98.0467L93.4437 105.684Z" fill="url(#paint0_linear_7_508)"/>
<rect width="8.81428" height="20.9394" rx="4.40714" transform="matrix(0.903511 0.428566 -0.405018 0.914309 95.8125 111.441)" fill="#FF0000"/>
<ellipse cx="4.40714" cy="4.18789" rx="4.40714" ry="4.18789" transform="matrix(0.903511 0.428566 -0.405018 0.914309 84.7891 136.332)" fill="#F01616"/>
<rect width="82.6339" height="8.37578" transform="matrix(0.903511 0.428566 -0.405018 0.914309 22.8076 181.068)" fill="#121212"/>
</g>
<defs>
<filter id="filter0_d_7_508" x="-14.3878" y="0.920828" width="208.067" height="263.783" filterUnits="userSpaceOnUse" color-interpolation-filters="sRGB">
<feFlood flood-opacity="0" result="BackgroundImageFix"/>
<feColorMatrix in="SourceAlpha" type="matrix" values="0 0 0 0 0 0 0 0 0 0 0 0 0 0 0 0 0 0 127 0" result="hardAlpha"/>
<feOffset dy="6.76056"/>
<feGaussianBlur stdDeviation="16.9014"/>
<feComposite in2="hardAlpha" operator="out"/>
<feColorMatrix type="matrix" values="0 0 0 0 0 0 0 0 0 0 0 0 0 0 0 0 0 0 0.4 0"/>
<feBlend mode="normal" in2="BackgroundImageFix" result="effect1_dropShadow_7_508"/>
<feBlend mode="normal" in="SourceGraphic" in2="effect1_dropShadow_7_508" result="shape"/>
</filter>
<linearGradient id="paint0_linear_7_508" x1="64.8075" y1="94.4177" x2="120.783" y2="128.767" gradientUnits="userSpaceOnUse">
<stop stop-color="#2E2E2E"/>
<stop offset="1" stop-color="#5C5C5C"/>
</linearGradient>
</defs>
</svg>
