<svg width="166" height="133" viewBox="0 0 166 133" fill="none" xmlns="http://www.w3.org/2000/svg">
<rect x="27.6729" width="144" height="95" rx="13.4262" transform="rotate(16.9356 27.6729 0)" fill="#0707DB"/>
<path d="M27.0972 30.1394L149.109 67.2921L135.542 111.846C133.382 118.94 125.881 122.939 118.787 120.779L22.4634 91.4484C15.3698 89.2884 11.3704 81.787 13.5304 74.6935L27.0972 30.1394Z" fill="#FFF52F"/>
<path d="M86.7791 83.8533C87.3211 82.6385 87.8237 81.4117 88.2198 80.1107C88.616 78.8096 88.8824 77.5109 89.1095 76.2002L95.7611 78.2257C95.7031 79.546 95.5096 80.8878 95.1076 82.208C94.7056 83.5281 94.1185 84.7501 93.4307 85.8787M80.0567 93.4304C81.8841 91.6662 83.4885 89.646 84.8464 87.4461L90.6518 89.2139C87.7733 91.8252 84.0123 93.3219 80.0567 93.4304ZM82.8039 82.6428L73.594 79.8384C73.7817 78.5157 74.0481 77.217 74.4443 75.916C74.8405 74.615 75.3489 73.369 75.9244 72.1853L85.1343 74.9898C84.9327 76.2873 84.6801 77.6112 84.284 78.9122C83.8878 80.2132 83.3655 81.434 82.8039 82.6428ZM74.7267 92.6437C73.7924 89.8504 73.2488 86.9043 73.275 83.9226L80.7925 86.2117C79.1525 88.702 77.0592 90.8451 74.7267 92.6437ZM73.8228 67.3641L68.0764 65.6143C70.9379 62.9884 74.698 61.4871 78.6519 61.3918C76.8245 63.156 75.2398 65.1822 73.8228 67.3641ZM63.4157 80.9204L69.162 82.6702C69.1226 85.2715 69.309 87.8371 69.8431 90.3204C66.6248 88.0268 64.3428 84.6894 63.4157 80.9204ZM62.9672 76.6025C63.0252 75.2822 63.2187 73.9403 63.6207 72.6202C64.0227 71.3 64.6098 70.0781 65.2975 68.9495L71.9491 70.9749C71.4072 72.1897 70.9046 73.4165 70.5084 74.7175C70.1123 76.0185 69.8458 77.3173 69.6188 78.628M84.0074 62.1654C84.9417 64.9587 85.4795 67.9239 85.4532 70.9056L77.9357 68.6165C79.5757 66.1262 81.6749 63.9639 84.0074 62.1654ZM95.3126 73.9078L89.5072 72.14C89.6128 69.5828 89.3973 67.0177 88.8655 64.5018C92.1194 66.8098 94.3905 70.1565 95.3126 73.9078ZM85.19 58.2814C74.3074 54.9677 62.8891 60.8988 59.6848 71.4217C58.1397 76.496 58.7312 81.9938 61.3292 86.7057C62.6156 89.0388 64.3559 91.1087 66.4507 92.7972C68.5456 94.4857 70.9539 95.7598 73.5382 96.5468C78.7575 98.136 84.3768 97.6445 89.1599 95.1802C93.9431 92.7159 97.4983 88.4808 99.0434 83.4065C99.8085 80.8939 100.057 78.251 99.7749 75.6286C99.4928 73.0061 98.6854 70.4556 97.399 68.1225C96.1126 65.7894 94.3723 63.7195 92.2775 62.031C90.1827 60.3425 87.7744 59.0684 85.19 58.2814Z" fill="#FF0000"/>
<ellipse cx="146.008" cy="52.7593" rx="5.14286" ry="5" transform="rotate(16.9356 146.008 52.7593)" fill="#F93636"/>
<ellipse cx="134.2" cy="49.1638" rx="5.14286" ry="5" transform="rotate(16.9356 134.2 49.1638)" fill="#F93636"/>
<ellipse cx="122.393" cy="45.5686" rx="5.14286" ry="5" transform="rotate(16.9356 122.393 45.5686)" fill="#F93636"/>
</svg>
