<svg width="120" height="101" viewBox="0 0 120 101" fill="none" xmlns="http://www.w3.org/2000/svg">
<path d="M1.07516 28.5573C-0.0709184 21.9117 4.9189 15.5037 12.2202 14.2445L93.1941 0.279944C100.495 -0.979224 107.343 3.38733 108.49 10.0329L119.125 71.7015C120.271 78.3471 115.281 84.7552 107.98 86.0144L27.0058 99.9789C19.7044 101.238 12.8564 96.8715 11.7104 90.2259L1.07516 28.5573Z" fill="#0707DB"/>
<path d="M6.66036 37.9197L106.363 20.7253L115.269 72.3665C116.081 77.0738 112.546 81.6128 107.374 82.5048L26.4005 96.4693C21.2287 97.3612 16.3781 94.2682 15.5663 89.5609L6.66036 37.9197Z" fill="#FFF52F"/>
<path d="M75.5519 13.5547C75.3696 12.4975 76.1634 11.478 77.3249 11.2777L81.2684 10.5977C82.4299 10.3973 83.5193 11.092 83.7017 12.1492L84.3207 15.7385C84.503 16.7957 83.7092 17.8151 82.5476 18.0155L78.6042 18.6955C77.4427 18.8959 76.3532 18.2012 76.1709 17.144L75.5519 13.5547Z" fill="#FFF52F"/>
<path d="M88.6973 11.2872C88.515 10.23 89.3088 9.21052 90.4703 9.0102L94.4137 8.33013C95.5753 8.12981 96.6647 8.82448 96.847 9.8817L97.466 13.471C97.6484 14.5282 96.8546 15.5476 95.693 15.7479L91.7496 16.428C90.588 16.6283 89.4986 15.9337 89.3163 14.8765L88.6973 11.2872Z" fill="#F93636"/>
<path d="M62.408 15.821C62.2257 14.7637 63.0195 13.7443 64.181 13.544L68.1244 12.8639C69.286 12.6636 70.3754 13.3583 70.5577 14.4155L71.1767 18.0047C71.3591 19.062 70.5652 20.0814 69.4037 20.2817L65.4603 20.9618C64.2987 21.1621 63.2093 20.4675 63.027 19.4102L62.408 15.821Z" fill="#F4F4F4"/>
<path d="M41.2664 63.1514L52.7664 65.6516C54.3629 65.9987 55.3087 67.474 54.8789 68.9469L54.7357 69.4374C54.3058 70.9102 52.6631 71.8228 51.0665 71.4757L32.8589 67.5172C31.5401 67.2305 30.6653 66.174 30.6431 64.9849C30.264 63.8564 30.7342 62.5663 31.8818 61.8538L47.7122 52.0259C49.1004 51.1641 50.9539 51.4738 51.8522 52.7176L52.1513 53.1319C53.0496 54.3756 52.6526 56.0826 51.2645 56.9443L41.2664 63.1514Z" fill="black"/>
<path d="M81.1257 56.2523L69.6257 53.7521C68.0291 53.405 67.0833 51.9297 67.5132 50.4569L67.6564 49.9663C68.0862 48.4935 69.729 47.5809 71.3255 47.928L89.5332 51.8865C90.852 52.1732 91.7267 53.2298 91.7489 54.4188C92.1281 55.5473 91.6579 56.8374 90.5102 57.5499L74.6798 67.3778C73.2917 68.2396 71.4382 67.9299 70.5399 66.6861L70.2407 66.2719C69.3424 65.0281 69.7395 63.3212 71.1276 62.4594L81.1257 56.2523Z" fill="black"/>
<path d="M60.7202 43.9323C61.0027 42.2572 62.7091 41.0662 64.5315 41.272C66.3538 41.4779 67.602 43.0027 67.3195 44.6778L62.2148 74.937C61.9322 76.6121 60.2258 77.8032 58.4035 77.5973C56.5812 77.3915 55.3329 75.8666 55.6155 74.1915L60.7202 43.9323Z" fill="black"/>
</svg>
