<svg width="48" height="49" viewBox="0 0 48 49" fill="none" xmlns="http://www.w3.org/2000/svg">
<path d="M24.0141 5.30905C30.4303 5.30905 31.1902 5.33718 33.7135 5.4497C36.0586 5.55284 37.325 5.94667 38.1692 6.27486C39.2855 6.7062 40.0922 7.2313 40.9271 8.06584C41.7714 8.90975 42.2873 9.70678 42.7188 10.8226C43.0471 11.6665 43.4411 12.9418 43.5443 15.2766C43.6568 17.8084 43.685 18.5679 43.685 24.9723C43.685 31.386 43.6568 32.1455 43.5443 34.6679C43.4411 37.0121 43.0471 38.278 42.7188 39.1219C42.2873 40.2377 41.762 41.0442 40.9271 41.8787C40.0829 42.7226 39.2855 43.2383 38.1692 43.6697C37.325 43.9979 36.0492 44.3917 33.7135 44.4948C31.1808 44.6073 30.421 44.6355 24.0141 44.6355C17.5978 44.6355 16.838 44.6073 14.3146 44.4948C11.9695 44.3917 10.7031 43.9979 9.8589 43.6697C8.74262 43.2383 7.9359 42.7132 7.10104 41.8787C6.25679 41.0348 5.74086 40.2377 5.30936 39.1219C4.98104 38.278 4.58706 37.0027 4.48388 34.6679C4.37131 32.1362 4.34317 31.3766 4.34317 24.9723C4.34317 18.5585 4.37131 17.799 4.48388 15.2766C4.58706 12.9324 4.98104 11.6665 5.30936 10.8226C5.74086 9.70678 6.26617 8.90037 7.10104 8.06584C7.94528 7.22192 8.74262 6.7062 9.8589 6.27486C10.7031 5.94667 11.9789 5.55284 14.3146 5.4497C16.838 5.33718 17.5978 5.30905 24.0141 5.30905ZM24.0141 0.986328C17.4946 0.986328 16.6785 1.01446 14.1176 1.12698C11.5662 1.2395 9.812 1.65208 8.29236 2.24282C6.70706 2.86169 5.36564 3.67748 4.03361 5.01837C2.6922 6.34988 1.8761 7.69076 1.25699 9.26607C0.666015 10.7945 0.253273 12.5386 0.140707 15.0891C0.0281415 17.6583 0 18.4741 0 24.991C0 31.5079 0.0281415 32.3237 0.140707 34.8836C0.253273 37.4341 0.666015 39.1875 1.25699 40.7066C1.8761 42.2913 2.6922 43.6322 4.03361 44.9637C5.36564 46.2952 6.70706 47.1203 8.28298 47.7298C9.812 48.3206 11.5568 48.7332 14.1083 48.8457C16.6691 48.9582 17.4852 48.9863 24.0047 48.9863C30.5241 48.9863 31.3402 48.9582 33.9011 48.8457C36.4526 48.7332 38.2068 48.3206 39.7264 47.7298C41.3023 47.1203 42.6437 46.2952 43.9758 44.9637C45.3078 43.6322 46.1333 42.2913 46.743 40.716C47.334 39.1875 47.7467 37.4435 47.8593 34.893C47.9719 32.3331 48 31.5173 48 25.0004C48 18.4835 47.9719 17.6677 47.8593 15.1078C47.7467 12.5573 47.334 10.8039 46.743 9.28482C46.152 7.69076 45.3359 6.34988 43.9945 5.01837C42.6625 3.68686 41.3211 2.86169 39.7452 2.2522C38.2161 1.66146 36.4714 1.24888 33.9199 1.13636C31.3496 1.01446 30.5335 0.986328 24.0141 0.986328Z" fill="#FF3E3E"/>
<path d="M24.0141 12.6605C17.2038 12.6605 11.6787 18.1834 11.6787 24.991C11.6787 31.7986 17.2038 37.3215 24.0141 37.3215C30.8243 37.3215 36.3494 31.7986 36.3494 24.991C36.3494 18.1834 30.8243 12.6605 24.0141 12.6605ZM24.0141 32.9894C19.5959 32.9894 16.0125 29.4075 16.0125 24.991C16.0125 20.5745 19.5959 16.9926 24.0141 16.9926C28.4323 16.9926 32.0156 20.5745 32.0156 24.991C32.0156 29.4075 28.4323 32.9894 24.0141 32.9894Z" fill="#FF3E3E"/>
<path d="M39.717 12.1733C39.717 13.7674 38.4225 15.052 36.8372 15.052C35.2425 15.052 33.9574 13.758 33.9574 12.1733C33.9574 10.5792 35.2519 9.29462 36.8372 9.29462C38.4225 9.29462 39.717 10.5886 39.717 12.1733Z" fill="#FF3E3E"/>
</svg>
