<svg width="59" height="49" viewBox="0 0 59 49" fill="none" xmlns="http://www.w3.org/2000/svg">
<path d="M18.9204 48.9863C40.6509 48.9863 52.5399 30.5174 52.5399 14.5061C52.5399 13.9868 52.5286 13.4561 52.5061 12.9369C54.8189 11.2215 56.8148 9.09677 58.4 6.6625C56.2461 7.64536 53.9591 8.28726 51.6174 8.56628C54.0831 7.05045 55.9293 4.66916 56.8137 1.86383C54.4941 3.27373 51.9574 4.26829 49.3123 4.80488C47.53 2.86267 45.1736 1.5767 42.6072 1.14579C40.0409 0.714875 37.4077 1.16302 35.1146 2.42093C32.8215 3.67884 30.9963 5.67646 29.9212 8.10494C28.8461 10.5334 28.581 13.2575 29.1669 15.856C24.47 15.6143 19.875 14.3629 15.68 12.183C11.4849 10.0032 7.78327 6.94345 4.81513 3.20224C3.30656 5.86978 2.84494 9.02635 3.52408 12.0304C4.20321 15.0345 5.97215 17.6606 8.47138 19.3751C6.59511 19.314 4.75994 18.7959 3.1175 17.8636V18.0136C3.11582 20.813 4.05944 23.5266 5.78795 25.6931C7.51645 27.8596 9.92318 29.3454 12.599 29.8978C10.8609 30.3855 9.03676 30.4566 7.26763 30.1055C8.02269 32.513 9.49178 34.6186 11.4699 36.1286C13.4479 37.6385 15.8363 38.4774 18.3016 38.5282C14.1162 41.9001 8.94602 43.729 3.62375 43.7204C2.67989 43.7189 1.73696 43.6596 0.800003 43.5427C6.20686 47.1003 12.4965 48.9898 18.9204 48.9863Z" fill="#FF3E3E"/>
</svg>
