<svg width="300" height="300" viewBox="0 0 300 300" fill="none" xmlns="http://www.w3.org/2000/svg">
<g clip-path="url(#clip0_3219_4024)">
<mask id="mask0_3219_4024" style="mask-type:luminance" maskUnits="userSpaceOnUse" x="0" y="0" width="300" height="300">
<path d="M0 0H300V300H0V0Z" fill="white"/>
</mask>
<g mask="url(#mask0_3219_4024)">
<path d="M155.649 40.9182C155.649 44.1373 153.04 46.7467 149.821 46.7467C146.602 46.7467 143.992 44.1373 143.992 40.9182C143.992 37.6991 146.602 35.0897 149.821 35.0897C153.04 35.0897 155.649 37.6991 155.649 40.9182Z" fill="#50B5EB"/>
<path d="M150.029 28.6702C157.079 28.6702 162.822 34.1951 163.205 41.1489H171.307C171.111 29.3597 161.499 19.8618 149.663 19.8618C137.826 19.8618 128.214 29.3597 128.017 41.1489H136.854C137.237 34.1951 142.98 28.6702 150.029 28.6702Z" fill="#7EDFF4"/>
<path d="M74.9821 48.3788C74.9821 55.4607 69.2411 61.2017 62.1593 61.2017C55.0774 61.2017 49.3364 55.4607 49.3364 48.3788C49.3364 41.297 55.0774 35.556 62.1593 35.556C69.2411 35.556 74.9821 41.297 74.9821 48.3788Z" fill="#8357FC"/>
<path d="M65.656 95.2405H58.6616V59.8028H65.656V95.2405Z" fill="#D8CAFF"/>
<path d="M83.8411 127.414C83.8411 146.47 74.6555 161.919 63.3246 161.919C51.9937 161.919 42.8081 146.47 42.8081 127.414C42.8081 108.357 51.9937 92.9089 63.3246 92.9089C74.6555 92.9089 83.8411 108.357 83.8411 127.414Z" fill="#AD8FFF"/>
<path d="M225.592 48.3788C225.592 55.4607 231.333 61.2017 238.414 61.2017C245.496 61.2017 251.237 55.4607 251.237 48.3788C251.237 41.297 245.496 35.556 238.414 35.556C231.333 35.556 225.592 41.297 225.592 48.3788Z" fill="#8357FC"/>
<path d="M234.917 95.2405H241.912V59.8028H234.917V95.2405Z" fill="#D8CAFF"/>
<path d="M216.732 127.414C216.732 146.47 225.918 161.919 237.249 161.919C248.58 161.919 257.765 146.47 257.765 127.414C257.765 108.357 248.58 92.9089 237.249 92.9089C225.918 92.9089 216.732 108.357 216.732 127.414Z" fill="#AD8FFF"/>
<path d="M236.782 137.206C236.782 185.105 197.952 223.935 150.053 223.935C102.154 223.935 63.3247 185.105 63.3247 137.206C63.3247 89.3069 102.154 50.4772 150.053 50.4772C197.952 50.4772 236.782 89.3069 236.782 137.206Z" fill="url(#paint0_linear_3219_4024)"/>
<path d="M18.6251 257.22C21.8663 260.461 36.8047 250.777 51.9911 235.591C67.1773 220.405 76.8607 205.466 73.6197 202.225C70.3784 198.984 55.4401 208.667 40.2539 223.854C25.0675 239.04 15.3839 253.978 18.6251 257.22Z" fill="#8BE1F5"/>
<path d="M299.3 137.204C302.187 140.764 291.003 154.615 274.32 168.14C257.637 181.666 241.773 189.744 238.887 186.183C236 182.623 247.184 168.772 263.867 155.246C280.549 141.721 296.413 133.643 299.3 137.204Z" fill="#8BE1F5"/>
<path d="M186.424 239.322C186.424 245.76 169.932 250.979 149.587 250.979C129.243 250.979 112.751 245.76 112.751 239.322C112.751 232.884 129.243 227.665 149.587 227.665C169.932 227.665 186.424 232.884 186.424 239.322Z" fill="url(#paint1_linear_3219_4024)"/>
<path d="M177.098 264.163C177.098 269.383 164.886 273.616 149.821 273.616C134.755 273.616 122.543 269.383 122.543 264.163C122.543 258.942 134.755 254.71 149.821 254.71C164.886 254.71 177.098 258.942 177.098 264.163Z" fill="url(#paint2_linear_3219_4024)"/>
<path d="M223.727 130.212C218.131 168.447 185.025 155.857 150.287 155.857C118.346 155.857 82.4426 170.312 75.4482 130.212C75.4482 99.8017 100.161 77.5215 150.287 77.5215C199.946 77.5215 227.457 105.032 223.727 130.212Z" fill="url(#paint3_linear_3219_4024)"/>
<path d="M197.224 124.526C197.224 133.662 192.281 141.068 186.183 141.068C180.085 141.068 175.142 133.662 175.142 124.526C175.142 115.389 180.085 107.983 186.183 107.983C192.281 107.983 197.224 115.389 197.224 124.526Z" fill="url(#paint4_linear_3219_4024)"/>
<path d="M124.962 124.388C124.962 133.524 120.019 140.93 113.921 140.93C107.823 140.93 102.879 133.524 102.879 124.388C102.879 115.251 107.823 107.845 113.921 107.845C120.019 107.845 124.962 115.251 124.962 124.388Z" fill="url(#paint5_linear_3219_4024)"/>
</g>
</g>
<defs>
<linearGradient id="paint0_linear_3219_4024" x1="174.569" y1="222.905" x2="150.053" y2="50.4772" gradientUnits="userSpaceOnUse">
<stop stop-color="#8BE1F5"/>
<stop offset="0.0001" stop-color="#ACEFFF"/>
<stop offset="1" stop-color="#42DBFF"/>
</linearGradient>
<linearGradient id="paint1_linear_3219_4024" x1="149.587" y1="250.979" x2="149.587" y2="227.665" gradientUnits="userSpaceOnUse">
<stop stop-color="#D0EFFF"/>
<stop offset="1" stop-color="#A7EFFF"/>
</linearGradient>
<linearGradient id="paint2_linear_3219_4024" x1="149.821" y1="273.616" x2="149.821" y2="254.71" gradientUnits="userSpaceOnUse">
<stop stop-color="#F2FAFF"/>
<stop offset="1" stop-color="#CDEFFF"/>
</linearGradient>
<linearGradient id="paint3_linear_3219_4024" x1="149.755" y1="158.394" x2="148.733" y2="79.1378" gradientUnits="userSpaceOnUse">
<stop stop-color="#CEEEFB"/>
<stop offset="1" stop-color="#F7FDFF"/>
</linearGradient>
<linearGradient id="paint4_linear_3219_4024" x1="186.183" y1="141.068" x2="186.183" y2="107.983" gradientUnits="userSpaceOnUse">
<stop stop-color="#085D94"/>
<stop offset="1" stop-color="#004673"/>
</linearGradient>
<linearGradient id="paint5_linear_3219_4024" x1="113.921" y1="140.93" x2="113.921" y2="107.845" gradientUnits="userSpaceOnUse">
<stop stop-color="#085D94"/>
<stop offset="1" stop-color="#004673"/>
</linearGradient>
<clipPath id="clip0_3219_4024">
<rect width="300" height="300" fill="white"/>
</clipPath>
</defs>
</svg>
