<svg width="115" height="102" viewBox="0 0 115 102" fill="none" xmlns="http://www.w3.org/2000/svg">
<path d="M0.624338 39.9063C-1.37733 34.0372 2.21537 27.5006 8.64886 25.3065L79.9981 0.972866C86.4316 -1.22127 93.2696 1.75792 95.2713 7.62706L113.846 62.0906C115.848 67.9597 112.255 74.4963 105.822 76.6904L34.4723 101.024C28.0388 103.218 21.2007 100.239 19.1991 94.3698L0.624338 39.9063Z" fill="#0707DB"/>
<path d="M7.0422 47.6034L94.894 17.6417L110.448 63.2493C111.866 67.4066 109.321 72.0367 104.764 73.5909L33.4152 97.9245C28.8581 99.4787 24.0145 97.3684 22.5967 93.2111L7.0422 47.6034Z" fill="#FFF52F"/>
<path d="M65.9358 15.5653C65.6174 14.6316 66.189 13.5917 67.2124 13.2426L70.6872 12.0576C71.7106 11.7085 72.7985 12.1825 73.1169 13.1162L74.198 16.2861C74.5164 17.2198 73.9449 18.2597 72.9214 18.6087L69.4467 19.7938C68.4232 20.1428 67.3354 19.6689 67.0169 18.7352L65.9358 15.5653Z" fill="#FFF52F"/>
<path d="M77.5187 11.6145C77.2002 10.6808 77.7718 9.64089 78.7953 9.29183L82.27 8.10679C83.2935 7.75773 84.3813 8.23168 84.6997 9.16538L85.7808 12.3353C86.0993 13.269 85.5277 14.3089 84.5042 14.6579L81.0295 15.843C80.0061 16.192 78.9182 15.7181 78.5998 14.7844L77.5187 11.6145Z" fill="#F93636"/>
<path d="M54.3542 19.5147C54.0357 18.581 54.6073 17.5411 55.6307 17.1921L59.1055 16.007C60.1289 15.658 61.2168 16.1319 61.5352 17.0656L62.6163 20.2355C62.9348 21.1692 62.3632 22.2091 61.3397 22.5582L57.865 23.7432C56.8415 24.0923 55.7537 23.6183 55.4352 22.6846L54.3542 19.5147Z" fill="#F4F4F4"/>
<path d="M42.0568 65.5328L52.8397 66.1478C54.3367 66.2332 55.4075 67.4367 55.2315 68.8358L55.1728 69.3018C54.9968 70.701 53.6405 71.766 52.1435 71.6807L35.0712 70.7069C33.8346 70.6364 32.8889 69.803 32.6964 68.7266C32.1893 67.7565 32.4284 66.5174 33.365 65.7053L46.2851 54.5033C47.4181 53.521 49.1425 53.5355 50.1367 54.5355L50.4678 54.8686C51.4621 55.8687 51.3497 57.4757 50.2168 58.4579L42.0568 65.5328Z" fill="black"/>
<path d="M77.1747 53.5319L66.3918 52.9169C64.8948 52.8315 63.824 51.628 64 50.2288L64.0587 49.7628C64.2347 48.3637 65.591 47.2986 67.088 47.384L84.1603 48.3578C85.3969 48.4283 86.3426 49.2617 86.5351 50.3381C87.0422 51.3082 86.8031 52.5473 85.8664 53.3594L72.9464 64.5614C71.8134 65.5436 70.089 65.5292 69.0948 64.5291L68.7636 64.1961C67.7694 63.196 67.8818 61.589 69.0147 60.6067L77.1747 53.5319Z" fill="black"/>
<path d="M56.899 45.2823C56.9123 43.7207 58.2859 42.3936 59.967 42.3183C61.6481 42.2429 63.0002 43.4478 62.9869 45.0094L62.747 73.219C62.7337 74.7807 61.3601 76.1077 59.679 76.1831C57.9979 76.2584 56.6458 75.0535 56.6591 73.4919L56.899 45.2823Z" fill="black"/>
</svg>
