<svg width="149" height="194" viewBox="0 0 149 194" fill="none" xmlns="http://www.w3.org/2000/svg">
<mask id="path-1-inside-1_1246_1538" fill="white">
<path d="M119.801 81.819C123.627 92.3786 122.547 104.227 116.799 114.757C111.051 125.286 101.106 133.636 89.1504 137.968C77.1952 142.299 64.2097 142.259 53.0506 137.855C41.8915 133.452 33.4728 125.045 29.6466 114.486L40.0908 110.701C43.0305 118.814 49.4986 125.273 58.0722 128.656C66.6458 132.04 76.6225 132.071 85.8077 128.743C94.9929 125.414 102.634 119 107.05 110.909C111.467 102.819 112.296 93.7164 109.356 85.6034L119.801 81.819Z"/>
</mask>
<path d="M119.801 81.819C123.627 92.3786 122.547 104.227 116.799 114.757C111.051 125.286 101.106 133.636 89.1504 137.968C77.1952 142.299 64.2097 142.259 53.0506 137.855C41.8915 133.452 33.4728 125.045 29.6466 114.486L40.0908 110.701C43.0305 118.814 49.4986 125.273 58.0722 128.656C66.6458 132.04 76.6225 132.071 85.8077 128.743C94.9929 125.414 102.634 119 107.05 110.909C111.467 102.819 112.296 93.7164 109.356 85.6034L119.801 81.819Z" fill="black" stroke="black" stroke-width="22" mask="url(#path-1-inside-1_1246_1538)"/>
<rect x="78.4331" y="131.842" width="15.9816" height="40.4662" transform="rotate(-19.9177 78.4331 131.842)" fill="black"/>
<rect x="74.4417" y="176.193" width="50.4247" height="3.7643" transform="rotate(-19.9177 74.4417 176.193)" fill="#0707DB"/>
<rect x="14.0527" y="27.5752" width="64.5709" height="112.929" rx="32.2854" transform="rotate(-19.9177 14.0527 27.5752)" fill="#F93636"/>
<path d="M63.3838 59.7476C70.2892 78.8051 71.2562 102.939 54.4506 109.028C45.1691 112.391 36.6779 90.9839 29.7725 71.9265C22.8672 52.8691 21.0887 36.0361 34.0749 31.3306C43.3564 27.9675 56.4785 40.6902 63.3838 59.7476Z" fill="#FFF52F"/>
<path d="M30.8614 95.3919C30.0646 93.193 31.2013 90.7645 33.4002 89.9677L98.9203 66.2269C101.119 65.4301 103.548 66.5668 104.344 68.7657V68.7657C105.141 70.9646 104.005 73.3931 101.806 74.1899L36.2856 97.9308C34.0867 98.7275 31.6582 97.5908 30.8614 95.3919V95.3919Z" fill="#0707DB"/>
<path d="M101.046 74.4646C104.872 85.0243 105.212 96.358 101.99 105.972C98.7686 115.587 92.2496 122.695 83.8672 125.732C75.4849 128.769 65.9259 127.487 57.2932 122.168C48.6604 116.849 41.661 107.929 37.8348 97.3689L69.4404 85.9168L101.046 74.4646Z" fill="black"/>
<path d="M63.6931 90.002C69.086 88.0479 68.522 101.567 66.3686 104.528C61.4185 111.334 71.7925 112.955 68.7862 115.745C64.648 118.823 72.9829 119.211 71.3355 122.78C70.3253 124.969 64.1803 123.865 57.4371 119.157C49.5432 113.647 44.1609 107.427 40.8467 98.2803L50.913 94.6328L63.6931 90.002Z" fill="url(#paint0_linear_1246_1538)"/>
<rect x="68.2034" y="92.3717" width="6.7233" height="18.8215" rx="3.36165" transform="rotate(-19.9177 68.2034 92.3717)" fill="#FF0000"/>
<ellipse cx="80.9823" cy="117.77" rx="3.36165" ry="3.7643" transform="rotate(-19.9177 80.9823 117.77)" fill="#F01616"/>
<rect x="69.4023" y="182.022" width="63.0309" height="7.52859" transform="rotate(-19.9177 69.4023 182.022)" fill="black"/>
<defs>
<linearGradient id="paint0_linear_1246_1538" x1="42.278" y1="99.7635" x2="90.9707" y2="88.1263" gradientUnits="userSpaceOnUse">
<stop stop-color="#2E2E2E"/>
<stop offset="1" stop-color="#5C5C5C"/>
</linearGradient>
</defs>
</svg>
