<svg width="90" height="94" viewBox="0 0 90 94" fill="none" xmlns="http://www.w3.org/2000/svg">
<circle cx="44.7726" cy="46.0511" r="40.5" transform="rotate(-7.02688 44.7726 46.0511)" fill="#121212" stroke="#2E2E2E"/>
<circle cx="44.7727" cy="46.0506" r="15.5" transform="rotate(-7.02688 44.7727 46.0506)" fill="#FF0000" stroke="#2E2E2E"/>
<circle cx="44.7729" cy="46.0508" r="5.5" transform="rotate(-7.02688 44.7729 46.0508)" fill="white" stroke="#2E2E2E"/>
<mask id="path-4-outside-1_1246_1522" maskUnits="userSpaceOnUse" x="9.74365" y="5.48853" width="34.9468" height="34.9468" fill="black">
<rect fill="white" x="9.74365" y="5.48853" width="34.9468" height="34.9468"/>
<path fill-rule="evenodd" clip-rule="evenodd" d="M13.8544 22.7495C12.2839 21.6878 18.4863 16.693 24.7459 13.2751C30.8765 9.92751 36.1125 7.56111 38.2608 8.97289C38.6415 9.10686 38.9352 9.46665 38.9318 9.92488L38.7789 31.0144C38.7757 31.4667 38.4672 31.8555 38.0398 32.0034C36.4312 32.5602 35.0088 33.5191 33.862 34.7625C33.5101 35.1441 32.9344 35.2455 32.4989 34.963L14.1663 23.0689C14.0328 22.9823 13.929 22.8724 13.8544 22.7495Z"/>
</mask>
<path fill-rule="evenodd" clip-rule="evenodd" d="M13.8544 22.7495C12.2839 21.6878 18.4863 16.693 24.7459 13.2751C30.8765 9.92751 36.1125 7.56111 38.2608 8.97289C38.6415 9.10686 38.9352 9.46665 38.9318 9.92488L38.7789 31.0144C38.7757 31.4667 38.4672 31.8555 38.0398 32.0034C36.4312 32.5602 35.0088 33.5191 33.862 34.7625C33.5101 35.1441 32.9344 35.2455 32.4989 34.963L14.1663 23.0689C14.0328 22.9823 13.929 22.8724 13.8544 22.7495Z" fill="#FFF52F"/>
<path d="M13.8544 22.7495L14.7092 22.2306L14.5957 22.0436L14.4145 21.9211L13.8544 22.7495ZM24.7459 13.2751L24.2666 12.3974L24.7459 13.2751ZM38.2608 8.97289L37.7116 9.80858L37.8137 9.87563L37.9288 9.91617L38.2608 8.97289ZM38.9318 9.92488L39.9318 9.93213L39.9318 9.93213L38.9318 9.92488ZM38.7789 31.0144L37.779 31.0072L38.7789 31.0144ZM38.0398 32.0034L37.7127 31.0585L38.0398 32.0034ZM33.862 34.7625L34.5971 35.4405L33.862 34.7625ZM32.4989 34.963L31.9547 35.8019L31.9547 35.8019L32.4989 34.963ZM14.1663 23.0689L13.622 23.9078L13.622 23.9078L14.1663 23.0689ZM14.4145 21.9211C14.4618 21.9531 14.5309 22.0206 14.5742 22.1259C14.6146 22.2243 14.6078 22.2959 14.6065 22.3055C14.6058 22.3108 14.6103 22.2748 14.6491 22.1902C14.6868 22.108 14.7474 22.0001 14.8391 21.866C15.22 21.3084 15.9606 20.5474 17.0099 19.6592C19.0858 17.9021 22.1429 15.8358 25.2251 14.1528L24.2666 12.3974C21.0893 14.1324 17.9155 16.2724 15.7178 18.1326C14.6304 19.053 13.7236 19.9534 13.1877 20.7377C12.9273 21.1189 12.6845 21.5715 12.6229 22.0501C12.5902 22.3045 12.605 22.5956 12.7241 22.8855C12.8459 23.1823 13.0506 23.4132 13.2943 23.578L14.4145 21.9211ZM25.2251 14.1528C28.2856 12.4817 31.068 11.0865 33.3318 10.2814C34.4644 9.87864 35.4212 9.64055 36.1897 9.57516C36.9685 9.50889 37.4389 9.62932 37.7116 9.80858L38.81 8.13719C38.0087 7.61056 37.0189 7.49738 36.0202 7.58236C35.0111 7.66821 33.873 7.96624 32.6617 8.39704C30.2377 9.2591 27.3368 10.721 24.2666 12.3974L25.2251 14.1528ZM37.9288 9.91617C37.93 9.91657 37.9317 9.9174 37.9333 9.91859C37.9349 9.91974 37.9352 9.92037 37.9347 9.91972C37.9341 9.91882 37.9329 9.91689 37.9321 9.91439C37.9317 9.91326 37.9316 9.91262 37.9316 9.91273C37.9316 9.91282 37.9319 9.91436 37.9319 9.91764L39.9318 9.93213C39.9385 9.01225 39.3425 8.29346 38.5928 8.02961L37.9288 9.91617ZM37.9319 9.91763L37.779 31.0072L39.7789 31.0217L39.9318 9.93213L37.9319 9.91763ZM37.779 31.0072C37.779 31.0073 37.779 31.007 37.779 31.0066C37.7791 31.0062 37.7791 31.0063 37.779 31.0067C37.7786 31.0077 37.7771 31.0116 37.7724 31.0178C37.7621 31.0313 37.7421 31.0483 37.7127 31.0585L38.3669 32.9484C39.151 32.677 39.7722 31.9418 39.7789 31.0217L37.779 31.0072ZM37.7127 31.0585C35.9398 31.6721 34.3794 32.7265 33.1269 34.0845L34.5971 35.4405C35.6382 34.3116 36.9227 33.4483 38.3669 32.9484L37.7127 31.0585ZM33.1269 34.0845C33.1046 34.1087 33.0779 34.1206 33.0579 34.1237C33.0489 34.1251 33.0441 34.1243 33.0432 34.1241C33.043 34.1241 33.0437 34.1244 33.0432 34.124L31.9547 35.8019C32.841 36.3769 33.9502 36.1419 34.5971 35.4405L33.1269 34.0845ZM33.0432 34.124L14.7105 22.23L13.622 23.9078L31.9547 35.8019L33.0432 34.124ZM14.7105 22.23C14.7068 22.2275 14.7059 22.2264 14.7066 22.2271C14.7072 22.2278 14.7082 22.229 14.7092 22.2306L12.9995 23.2684C13.1515 23.5188 13.3611 23.7385 13.622 23.9078L14.7105 22.23Z" fill="#2E2E2E" mask="url(#path-4-outside-1_1246_1522)"/>
<mask id="path-6-outside-2_1246_1522" maskUnits="userSpaceOnUse" x="45.9643" y="52.3423" width="33.9963" height="33.9963" fill="black">
<rect fill="white" x="45.9643" y="52.3423" width="33.9963" height="33.9963"/>
<path fill-rule="evenodd" clip-rule="evenodd" d="M76.0268 68.5449C77.5218 69.6134 71.6185 74.927 65.5816 78.6619C59.6318 82.3429 54.5246 84.9872 52.3024 83.6601C51.9107 83.5483 51.5939 83.2014 51.5745 82.7391L50.6723 61.2149C50.6534 60.7635 50.9418 60.3604 51.3606 60.1907C52.9372 59.552 54.3085 58.5137 55.3913 57.1987C55.726 56.7922 56.3062 56.6616 56.7584 56.9314L75.7004 68.2332C75.8385 68.3156 75.9473 68.4231 76.0268 68.5449Z"/>
</mask>
<path fill-rule="evenodd" clip-rule="evenodd" d="M76.0268 68.5449C77.5218 69.6134 71.6185 74.927 65.5816 78.6619C59.6318 82.3429 54.5246 84.9872 52.3024 83.6601C51.9107 83.5483 51.5939 83.2014 51.5745 82.7391L50.6723 61.2149C50.6534 60.7635 50.9418 60.3604 51.3606 60.1907C52.9372 59.552 54.3085 58.5137 55.3913 57.1987C55.726 56.7922 56.3062 56.6616 56.7584 56.9314L75.7004 68.2332C75.8385 68.3156 75.9473 68.4231 76.0268 68.5449Z" fill="#FFF52F"/>
<path d="M76.0268 68.5449L75.1892 69.0912L75.2921 69.2489L75.4453 69.3585L76.0268 68.5449ZM65.5816 78.6619L66.1077 79.5123L65.5816 78.6619ZM52.3024 83.6601L52.8152 82.8016L52.7027 82.7345L52.5768 82.6985L52.3024 83.6601ZM51.5745 82.7391L50.5754 82.7809L50.5754 82.7809L51.5745 82.7391ZM50.6723 61.2149L49.6732 61.2568L50.6723 61.2149ZM51.3606 60.1907L51.736 61.1176L51.736 61.1176L51.3606 60.1907ZM55.3913 57.1987L54.6194 56.563L54.6194 56.563L55.3913 57.1987ZM56.7584 56.9314L57.2708 56.0726L57.2708 56.0726L56.7584 56.9314ZM75.7004 68.2332L76.2128 67.3745L76.2128 67.3745L75.7004 68.2332ZM75.4453 69.3585C75.387 69.3168 75.3236 69.2442 75.2873 69.1485C75.2546 69.0625 75.2627 69.0075 75.2617 69.0158C75.2569 69.0561 75.214 69.218 75.0241 69.5248C74.6558 70.1198 73.9449 70.9299 72.9423 71.8762C70.9563 73.7507 68.0273 75.9729 65.0555 77.8115L66.1077 79.5123C69.1728 77.616 72.2139 75.3139 74.3151 73.3307C75.356 72.3482 76.2179 71.3961 76.7246 70.5776C76.9722 70.1776 77.1924 69.7199 77.2479 69.2506C77.3107 68.7194 77.156 68.1228 76.6082 67.7313L75.4453 69.3585ZM65.0555 77.8115C62.0853 79.6491 59.3791 81.1934 57.1603 82.1157C56.0503 82.5771 55.1079 82.8631 54.3449 82.9656C53.5727 83.0693 53.0978 82.9704 52.8152 82.8016L51.7897 84.5187C52.6181 85.0135 53.615 85.0816 54.6112 84.9478C55.6168 84.8127 56.7397 84.4564 57.928 83.9625C60.3058 82.9741 63.1281 81.3558 66.1077 79.5123L65.0555 77.8115ZM52.5768 82.6985C52.5757 82.6982 52.5739 82.6975 52.5722 82.6963C52.5705 82.6953 52.5701 82.6946 52.5706 82.6952C52.5713 82.696 52.5725 82.6979 52.5735 82.7004C52.574 82.7016 52.5741 82.7022 52.5741 82.7021C52.5741 82.702 52.5737 82.7005 52.5736 82.6972L50.5754 82.7809C50.6143 83.7093 51.2567 84.4016 52.028 84.6218L52.5768 82.6985ZM52.5736 82.6972L51.6714 61.173L49.6732 61.2568L50.5754 82.7809L52.5736 82.6972ZM51.6714 61.173C51.6714 61.1729 51.6714 61.1732 51.6714 61.1736C51.6713 61.174 51.6713 61.174 51.6715 61.1735C51.6717 61.1725 51.6731 61.1684 51.6776 61.1619C51.6873 61.1477 51.7068 61.1294 51.736 61.1176L50.9851 59.2639C50.218 59.5747 49.6347 60.3382 49.6732 61.2568L51.6714 61.173ZM51.736 61.1176C53.4765 60.4125 54.9813 59.2697 56.1633 57.8344L54.6194 56.563C53.6357 57.7576 52.3979 58.6916 50.9851 59.2639L51.736 61.1176ZM56.1633 57.8344C56.1843 57.8088 56.2108 57.7953 56.2311 57.7912C56.2402 57.7893 56.2452 57.7899 56.246 57.7901C56.2462 57.7901 56.2455 57.7898 56.246 57.7901L57.2708 56.0726C56.3503 55.5234 55.2346 55.8159 54.6194 56.563L56.1633 57.8344ZM56.246 57.7901L75.188 69.092L76.2128 67.3745L57.2708 56.0726L56.246 57.7901ZM75.188 69.092C75.1918 69.0942 75.1927 69.0953 75.1919 69.0946C75.1912 69.0939 75.1902 69.0927 75.1892 69.0912L76.8644 67.9986C76.7026 67.7506 76.4831 67.5357 76.2128 67.3745L75.188 69.092Z" fill="#2E2E2E" mask="url(#path-6-outside-2_1246_1522)"/>
</svg>
