<svg width="180" height="46" viewBox="0 0 180 46" fill="none" xmlns="http://www.w3.org/2000/svg">
<path d="M22.9449 45.8325C35.617 45.8325 45.8898 35.5725 45.8898 22.9162C45.8898 10.2599 35.617 0 22.9449 0C10.2728 0 0 10.2599 0 22.9162C0 35.5725 10.2728 45.8325 22.9449 45.8325Z" fill="#219ED9"/>
<path d="M35.4264 28.7645C35.2364 28.7645 35.0543 28.6891 34.92 28.5548C34.7857 28.4205 34.7102 28.2383 34.7102 28.0484C34.71 27.9311 34.7387 27.8155 34.7936 27.7119C34.8486 27.6083 34.9281 27.5197 35.0253 27.454C37.0348 26.5122 38.9304 25.3445 40.6756 23.9736C40.329 20.2735 39.0259 16.7271 36.8944 13.6828C35.6636 12.9847 34.3802 12.3837 33.056 11.8853C31.994 11.4821 30.9082 11.1449 29.8047 10.8755C29.6148 10.8565 29.4402 10.7629 29.3193 10.6151C29.1984 10.4674 29.1412 10.2777 29.1602 10.0878C29.1792 9.89785 29.2729 9.72325 29.4206 9.60238C29.5683 9.48151 29.758 9.42427 29.9479 9.44326H30.084C30.8192 9.62468 31.5354 9.83236 32.2324 10.0663C31.9889 9.54352 31.7311 9.02075 31.4518 8.51229C29.777 7.4266 27.9787 6.54431 26.0951 5.88408L25.866 5.80531C25.6146 5.73645 25.3512 5.72288 25.0941 5.76552C24.8369 5.80816 24.592 5.90601 24.3763 6.05232C24.1606 6.19864 23.9791 6.38995 23.8444 6.6131C23.7096 6.83625 23.6249 7.08594 23.5958 7.34499V17.9366C24.7072 18.0911 25.7347 18.6139 26.5137 19.4215C27.2927 20.2291 27.7783 21.2747 27.8926 22.3909C27.9044 22.5626 27.9044 22.7349 27.8926 22.9066C27.893 24.1122 27.4587 25.2776 26.6696 26.1891C25.8804 27.1006 24.7891 27.6971 23.5958 27.8694V36.5847C23.5936 36.8253 23.6176 37.0654 23.6675 37.3008C23.816 38.0801 24.2191 38.7881 24.8136 39.3135C25.408 39.8388 26.1601 40.1519 26.9518 40.2035C27.7434 40.2552 28.5298 40.0424 29.1875 39.5987C29.8451 39.155 30.3368 38.5054 30.5853 37.752C30.084 37.8809 29.5899 37.9955 29.0814 38.1029H28.9382C28.7483 38.1238 28.5578 38.0684 28.4087 37.9489C28.2597 37.8293 28.1642 37.6555 28.1433 37.4655C28.1224 37.2756 28.1778 37.0852 28.2973 36.9361C28.4169 36.787 28.5907 36.6915 28.7806 36.6706H28.8165C29.6543 36.4916 29.9193 36.42 30.7572 36.1908C32.9011 35.5864 34.9678 34.7357 36.9159 33.6557C37.6947 31.5782 38.2189 29.4141 38.4771 27.2105C37.5819 27.7543 36.6566 28.2468 35.7056 28.6858C35.6189 28.7308 35.5239 28.7576 35.4264 28.7645Z" fill="white"/>
<path d="M10.3557 28.7639C10.5456 28.7639 10.7278 28.6885 10.8621 28.5542C10.9964 28.4199 11.0718 28.2377 11.0718 28.0478C11.072 27.9305 11.0434 27.8149 10.9884 27.7113C10.9335 27.6076 10.8539 27.5191 10.7567 27.4534C8.74727 26.5115 6.85162 25.3439 5.10645 23.973C5.45565 20.2734 6.75846 16.7277 8.88763 13.6822C10.1208 12.984 11.4066 12.383 12.7333 11.8847C13.7974 11.481 14.8857 11.1437 15.9917 10.8749C16.1816 10.8559 16.3562 10.7623 16.4771 10.6145C16.5979 10.4668 16.6552 10.2771 16.6362 10.0872C16.6172 9.89724 16.5235 9.72264 16.3758 9.60177C16.2281 9.4809 16.0384 9.42366 15.8484 9.44265H15.7124C14.9962 9.62169 14.2801 9.82937 13.564 10.0657C13.8075 9.54291 14.0653 9.02014 14.3446 8.51168C16.0211 7.42446 17.8219 6.5421 19.7084 5.88348L19.9376 5.8047C20.0913 5.76126 20.2504 5.73957 20.4102 5.74025C20.8548 5.73926 21.2841 5.90242 21.6158 6.19845C21.9475 6.49448 22.1583 6.90254 22.2077 7.34439V17.936C21.0963 18.0904 20.0688 18.6133 19.2898 19.4209C18.5108 20.2285 18.0252 21.2741 17.9109 22.3903C17.8992 22.562 17.8992 22.7343 17.9109 22.9059C17.9106 24.1116 18.3448 25.277 19.134 26.1885C19.9232 27.1 21.0144 27.6965 22.2077 27.8687V36.5841C22.2099 36.8247 22.1859 37.0648 22.1361 37.3002C22.0365 37.819 21.8211 38.3086 21.5059 38.7325C21.1196 39.2634 20.5949 39.678 19.9889 39.9307C19.3829 40.1835 18.7191 40.2648 18.0701 40.1658C17.421 40.0667 16.8117 39.7911 16.3087 39.3691C15.8058 38.9471 15.4285 38.3949 15.2182 37.7729C15.7124 37.9018 16.2065 38.0163 16.715 38.1238H16.8582C17.0481 38.1456 17.2389 38.0911 17.3887 37.9723C17.5384 37.8534 17.6348 37.6799 17.6567 37.49C17.6785 37.3001 17.624 37.1092 17.5052 36.9595C17.3863 36.8097 17.2128 36.7133 17.0229 36.6915H16.9799C16.1492 36.5125 15.8771 36.4409 15.0464 36.2117C12.882 35.6041 10.7959 34.7461 8.83034 33.6551C8.05491 31.5766 7.5308 29.4128 7.26917 27.2099C8.16678 27.7537 9.09446 28.2462 10.0478 28.6851C10.1432 28.7341 10.2484 28.7611 10.3557 28.7639Z" fill="white"/>
<path d="M26.4943 22.9182C26.5284 23.8282 26.2145 24.7171 25.6164 25.4039C25.0183 26.0906 24.181 26.5237 23.2749 26.615C22.3688 26.7062 21.462 26.4488 20.739 25.895C20.016 25.3413 19.5311 24.5329 19.3831 23.6343C19.3333 23.3989 19.3092 23.1588 19.3115 22.9182C19.2621 21.9685 19.592 21.0382 20.2286 20.3317C20.8652 19.6253 21.7563 19.2007 22.706 19.1513C23.6556 19.1019 24.586 19.4318 25.2924 20.0684C25.9988 20.705 26.4234 21.5961 26.4728 22.5458C26.4873 22.6694 26.4945 22.7937 26.4943 22.9182Z" fill="white"/>
<path d="M86.0025 0H85.9954C84.2235 0 82.7871 1.43639 82.7871 3.20827V31.1661C82.7871 32.938 84.2235 34.3744 85.9954 34.3744H86.0025C87.7744 34.3744 89.2108 32.938 89.2108 31.1661V3.20827C89.2108 1.43639 87.7744 0 86.0025 0Z" fill="white"/>
<path d="M121.929 0H121.922C120.142 0 118.699 1.44281 118.699 3.2226C118.699 5.00239 120.142 6.44519 121.922 6.44519H121.929C123.709 6.44519 125.152 5.00239 125.152 3.2226C125.152 1.44281 123.709 0 121.929 0Z" fill="white"/>
<path d="M125.158 12.9094C125.158 11.1257 123.714 9.67969 121.932 9.67969C120.15 9.67969 118.706 11.1257 118.706 12.9094V31.3069C118.706 33.0906 120.15 34.5366 121.932 34.5366C123.714 34.5366 125.158 33.0906 125.158 31.3069V12.9094Z" fill="white"/>
<path d="M113.421 21.9844H116.565V31.4087C116.565 32.2425 116.234 33.0421 115.644 33.6317C115.055 34.2213 114.255 34.5525 113.421 34.5525C112.587 34.5525 111.788 34.2213 111.198 33.6317C110.609 33.0421 110.277 32.2425 110.277 31.4087V25.1282C110.277 24.2944 110.609 23.4948 111.198 22.9052C111.788 22.3156 112.587 21.9844 113.421 21.9844Z" fill="white"/>
<path d="M103.987 9.40918C101.5 9.40918 99.0689 10.1467 97.0009 11.5285C94.933 12.9103 93.3211 14.8743 92.3694 17.1721C91.4176 19.4699 91.1685 21.9984 91.6537 24.4378C92.139 26.8771 93.3367 29.1179 95.0953 30.8765C96.854 32.6352 99.0947 33.8329 101.534 34.3181C103.973 34.8033 106.502 34.5543 108.8 33.6025C111.098 32.6507 113.062 31.0389 114.443 28.9709C115.825 26.9029 116.563 24.4716 116.563 21.9845C116.561 18.6499 115.235 15.4524 112.877 13.0945C110.519 10.7366 107.322 9.41108 103.987 9.40918ZM103.987 28.2721C102.744 28.2721 101.528 27.9033 100.494 27.2125C99.4602 26.5216 98.6543 25.5396 98.1784 24.3906C97.7025 23.2417 97.578 21.9775 97.8206 20.7578C98.0632 19.5381 98.662 18.4178 99.5414 17.5384C100.421 16.6591 101.541 16.0602 102.761 15.8176C103.98 15.575 105.245 15.6995 106.394 16.1754C107.542 16.6513 108.524 17.4572 109.215 18.4912C109.906 19.5252 110.275 20.7409 110.275 21.9845C110.273 23.6515 109.61 25.2497 108.431 26.4284C107.253 27.6072 105.654 28.2702 103.987 28.2721Z" fill="white"/>
<path d="M133.495 12.5537C133.495 10.8332 132.1 9.43848 130.38 9.43848C128.659 9.43848 127.265 10.8332 127.265 12.5537V31.4166C127.265 33.1371 128.659 34.5318 130.38 34.5318C132.1 34.5318 133.495 33.1371 133.495 31.4166V12.5537Z" fill="white"/>
<path d="M139.837 15.855C141.617 15.855 143.059 14.4186 143.059 12.6467C143.059 10.8749 141.617 9.43848 139.837 9.43848C138.057 9.43848 136.614 10.8749 136.614 12.6467C136.614 14.4186 138.057 15.855 139.837 15.855Z" fill="white"/>
<path d="M139.727 15.8407V9.43848C136.375 9.48563 133.18 10.8618 130.844 13.2643C128.507 15.6668 127.22 18.899 127.266 22.2501H133.496C133.477 20.5753 134.122 18.961 135.289 17.76C136.456 16.559 138.052 15.869 139.727 15.8407Z" fill="white"/>
<path d="M67.0812 9.14258C64.594 9.14258 62.1627 9.88011 60.0947 11.2619C58.0267 12.6437 56.4149 14.6077 55.4631 16.9055C54.5113 19.2033 54.2623 21.7318 54.7475 24.1712C55.2327 26.6105 56.4304 28.8513 58.1891 30.6099C59.9478 32.3686 62.1885 33.5663 64.6278 34.0515C67.0672 34.5367 69.5957 34.2877 71.8935 33.3359C74.1913 32.3841 76.1553 30.7723 77.5371 28.7043C78.9189 26.6363 79.6564 24.205 79.6564 21.7179C79.6545 18.3833 78.329 15.1858 75.9711 12.8279C73.6132 10.47 70.4157 9.14448 67.0812 9.14258ZM67.0812 27.9983C65.8373 27.9983 64.6213 27.6294 63.5872 26.9382C62.553 26.247 61.7471 25.2646 61.2714 24.1152C60.7958 22.9659 60.6717 21.7013 60.9149 20.4814C61.158 19.2615 61.7576 18.1412 62.6377 17.2621C63.5177 16.3831 64.6387 15.7848 65.8589 15.543C67.079 15.3012 68.3435 15.4267 69.4923 15.9037C70.6411 16.3807 71.6226 17.1877 72.3126 18.2227C73.0027 19.2576 73.3702 20.474 73.3688 21.7179C73.365 23.3836 72.7011 24.98 71.5226 26.1572C70.344 27.3344 68.7469 27.9965 67.0812 27.9983Z" fill="white"/>
<path d="M73.368 31.8984C73.3728 33.145 73.0068 34.3649 72.3167 35.4031C71.6266 36.4412 70.6434 37.2508 69.4922 37.729C68.3409 38.2072 67.0735 38.3323 65.8509 38.0885C64.6284 37.8448 63.5059 37.2431 62.626 36.3599C62.1397 35.8756 61.5083 35.5638 60.8282 35.472C60.148 35.3802 59.4565 35.5135 58.8592 35.8515C58.4289 36.09 58.0607 36.4264 57.7844 36.8335C57.5082 37.2406 57.3315 37.7069 57.2688 38.1949C57.206 38.6829 57.259 39.1788 57.4233 39.6425C57.5876 40.1062 57.8587 40.5248 58.2147 40.8644C59.9792 42.6185 62.2244 43.8098 64.6662 44.2875C67.1079 44.7652 69.6365 44.5078 71.932 43.5479C74.2274 42.588 76.1865 40.9688 77.5614 38.8951C78.9363 36.8214 79.6651 34.3865 79.6557 31.8984H73.368Z" fill="white"/>
<path d="M76.511 9.14258C77.3448 9.14258 78.1444 9.4738 78.734 10.0634C79.3236 10.653 79.6548 11.4526 79.6548 12.2864V31.8941H73.3672V12.2864C73.3672 11.4526 73.6984 10.653 74.288 10.0634C74.8776 9.4738 75.6772 9.14258 76.511 9.14258Z" fill="white"/>
<path d="M139.767 28.1387H139.76C137.988 28.1387 136.552 29.5751 136.552 31.3469C136.552 33.1188 137.988 34.5552 139.76 34.5552H139.767C141.539 34.5552 142.975 33.1188 142.975 31.3469C142.975 29.5751 141.539 28.1387 139.767 28.1387Z" fill="white"/>
<path d="M176.725 0H176.718C174.938 0 173.495 1.44281 173.495 3.2226C173.495 5.00239 174.938 6.44519 176.718 6.44519H176.725C178.505 6.44519 179.947 5.00239 179.947 3.2226C179.947 1.44281 178.505 0 176.725 0Z" fill="white"/>
<path d="M176.792 9.45801H176.784C175.013 9.45801 173.576 10.8944 173.576 12.6663V31.343C173.576 33.1149 175.013 34.5513 176.784 34.5513H176.792C178.564 34.5513 180 33.1149 180 31.343V12.6663C180 10.8944 178.564 9.45801 176.792 9.45801Z" fill="white"/>
<path d="M168.292 21.9844H171.436V31.4087C171.436 32.2425 171.105 33.0421 170.515 33.6317C169.926 34.2213 169.126 34.5525 168.292 34.5525C167.458 34.5525 166.659 34.2213 166.069 33.6317C165.48 33.0421 165.148 32.2425 165.148 31.4087V25.1282C165.148 24.2944 165.48 23.4948 166.069 22.9052C166.659 22.3156 167.458 21.9844 168.292 21.9844Z" fill="white"/>
<path d="M158.849 9.40918C156.363 9.4106 153.932 10.1493 151.865 11.532C149.798 12.9146 148.187 14.8791 147.236 17.1771C146.286 19.475 146.038 22.0033 146.524 24.4422C147.01 26.8811 148.208 29.1211 149.967 30.8791C151.726 32.637 153.967 33.834 156.406 34.3186C158.845 34.8033 161.373 34.5538 163.671 33.6018C165.968 32.6498 167.932 31.038 169.313 28.9702C170.694 26.9023 171.432 24.4713 171.432 21.9845C171.432 20.3325 171.106 18.6966 170.474 17.1705C169.842 15.6443 168.915 14.2577 167.746 13.0899C166.578 11.922 165.19 10.9959 163.664 10.3644C162.137 9.73282 160.501 9.40824 158.849 9.40918ZM158.849 28.2721C157.606 28.2721 156.39 27.9033 155.356 27.2125C154.322 26.5216 153.516 25.5396 153.04 24.3906C152.564 23.2417 152.44 21.9775 152.683 20.7578C152.925 19.5381 153.524 18.4178 154.403 17.5384C155.283 16.6591 156.403 16.0603 157.623 15.8176C158.842 15.575 160.107 15.6995 161.256 16.1754C162.404 16.6513 163.386 17.4572 164.077 18.4912C164.768 19.5252 165.137 20.7409 165.137 21.9845C165.135 23.6515 164.472 25.2497 163.293 26.4284C162.115 27.6072 160.516 28.2702 158.849 28.2721Z" fill="white"/>
</svg>
