<svg width="210" height="210" viewBox="0 0 210 210" fill="none" xmlns="http://www.w3.org/2000/svg">
<g filter="url(#filter0_d_1585_2849)">
<path d="M117.989 34.5173C114.139 21.464 95.6401 21.464 91.7894 34.5173L90.857 37.6874C90.2816 39.6416 89.2762 41.4423 87.9143 42.9573C86.5525 44.4724 84.8688 45.6634 82.9867 46.4431C81.1047 47.2227 79.0719 47.5712 77.0377 47.463C75.0034 47.3548 73.0191 46.7927 71.2304 45.8178L68.34 44.2327C56.3775 37.7247 43.2962 50.806 49.8136 62.7591L51.3893 65.6588C55.5477 73.3044 51.6037 82.824 43.2589 85.2855L40.0888 86.2178C27.0355 90.0686 27.0355 108.567 40.0888 112.418L43.2589 113.35C45.2131 113.925 47.0138 114.931 48.5289 116.293C50.0439 117.655 51.2349 119.338 52.0146 121.22C52.7942 123.102 53.1427 125.135 53.0345 127.169C52.9263 129.204 52.3642 131.188 51.3893 132.977L49.8042 135.867C43.2962 147.83 56.3775 160.911 68.3307 154.394L71.2304 152.818C73.0191 151.843 75.0034 151.281 77.0377 151.173C79.0719 151.064 81.1047 151.413 82.9867 152.193C84.8688 152.972 86.5525 154.163 87.9143 155.678C89.2762 157.193 90.2816 158.994 90.857 160.948L91.7894 164.118C95.6401 177.172 114.139 177.172 117.989 164.118L118.922 160.948C119.497 158.994 120.502 157.193 121.864 155.678C123.226 154.163 124.91 152.972 126.792 152.193C128.674 151.413 130.707 151.064 132.741 151.173C134.775 151.281 136.76 151.843 138.548 152.818L141.439 154.403C153.401 160.911 166.482 147.83 159.965 135.876L158.389 132.977C157.414 131.188 156.852 129.204 156.744 127.169C156.636 125.135 156.984 123.102 157.764 121.22C158.544 119.338 159.735 117.655 161.25 116.293C162.765 114.931 164.566 113.925 166.52 113.35L169.69 112.418C182.743 108.567 182.743 90.0686 169.69 86.2178L166.52 85.2855C164.566 84.7101 162.765 83.7046 161.25 82.3428C159.735 80.9809 158.544 79.2972 157.764 77.4152C156.984 75.5331 156.636 73.5004 156.744 71.4661C156.852 69.4319 157.414 67.4476 158.389 65.6588L159.974 62.7684C166.482 50.806 153.401 37.7247 141.448 44.242L138.548 45.8178C136.76 46.7927 134.775 47.3548 132.741 47.463C130.707 47.5712 128.674 47.2227 126.792 46.4431C124.91 45.6634 123.226 44.4724 121.864 42.9573C120.502 41.4423 119.497 39.6416 118.922 37.6874L117.989 34.5173ZM104.889 126.637C97.6439 126.637 90.6953 123.758 85.572 118.635C80.4488 113.512 77.5706 106.563 77.5706 99.3178C77.5706 92.0724 80.4488 85.1238 85.572 80.0005C90.6953 74.8772 97.6439 71.999 104.889 71.999C112.132 71.999 119.079 74.8763 124.2 79.9978C129.322 85.1193 132.199 92.0656 132.199 99.3085C132.199 106.551 129.322 113.498 124.2 118.619C119.079 123.741 112.132 126.618 104.889 126.618V126.637Z" fill="#FFF52F"/>
<mask id="mask0_1585_2849" style="mask-type:alpha" maskUnits="userSpaceOnUse" x="30" y="24" width="150" height="150">
<path d="M117.989 34.5173C114.139 21.464 95.6401 21.464 91.7894 34.5173L90.857 37.6874C90.2816 39.6416 89.2762 41.4423 87.9143 42.9573C86.5525 44.4724 84.8688 45.6634 82.9867 46.4431C81.1047 47.2227 79.0719 47.5712 77.0377 47.463C75.0034 47.3548 73.0191 46.7927 71.2304 45.8178L68.34 44.2327C56.3775 37.7247 43.2962 50.806 49.8136 62.7591L51.3893 65.6588C55.5477 73.3044 51.6037 82.824 43.2589 85.2855L40.0888 86.2178C27.0355 90.0686 27.0355 108.567 40.0888 112.418L43.2589 113.35C45.2131 113.925 47.0138 114.931 48.5289 116.293C50.0439 117.655 51.2349 119.338 52.0146 121.22C52.7942 123.102 53.1427 125.135 53.0345 127.169C52.9263 129.204 52.3642 131.188 51.3893 132.977L49.8042 135.867C43.2962 147.83 56.3775 160.911 68.3307 154.394L71.2304 152.818C73.0191 151.843 75.0034 151.281 77.0377 151.173C79.0719 151.064 81.1047 151.413 82.9867 152.193C84.8688 152.972 86.5525 154.163 87.9143 155.678C89.2762 157.193 90.2816 158.994 90.857 160.948L91.7894 164.118C95.6401 177.172 114.139 177.172 117.989 164.118L118.922 160.948C119.497 158.994 120.502 157.193 121.864 155.678C123.226 154.163 124.91 152.972 126.792 152.193C128.674 151.413 130.707 151.064 132.741 151.173C134.775 151.281 136.76 151.843 138.548 152.818L141.439 154.403C153.401 160.911 166.482 147.83 159.965 135.876L158.389 132.977C157.414 131.188 156.852 129.204 156.744 127.169C156.636 125.135 156.984 123.102 157.764 121.22C158.544 119.338 159.735 117.655 161.25 116.293C162.765 114.931 164.566 113.925 166.52 113.35L169.69 112.418C182.743 108.567 182.743 90.0686 169.69 86.2178L166.52 85.2855C164.566 84.7101 162.765 83.7046 161.25 82.3428C159.735 80.9809 158.544 79.2972 157.764 77.4152C156.984 75.5331 156.636 73.5004 156.744 71.4661C156.852 69.4319 157.414 67.4476 158.389 65.6588L159.974 62.7684C166.482 50.806 153.401 37.7247 141.448 44.242L138.548 45.8178C136.76 46.7927 134.775 47.3548 132.741 47.463C130.707 47.5712 128.674 47.2227 126.792 46.4431C124.91 45.6634 123.226 44.4724 121.864 42.9573C120.502 41.4423 119.497 39.6416 118.922 37.6874L117.989 34.5173ZM104.889 126.637C97.6439 126.637 90.6953 123.758 85.572 118.635C80.4488 113.512 77.5706 106.563 77.5706 99.3178C77.5706 92.0724 80.4488 85.1238 85.572 80.0005C90.6953 74.8772 97.6439 71.999 104.889 71.999C112.132 71.999 119.079 74.8763 124.2 79.9978C129.322 85.1193 132.199 92.0656 132.199 99.3085C132.199 106.551 129.322 113.498 124.2 118.619C119.079 123.741 112.132 126.618 104.889 126.618V126.637Z" fill="#FFF52F"/>
</mask>
<g mask="url(#mask0_1585_2849)">
<path d="M-25.9041 43.5469L97.7623 -60.9917L120.798 112.105L-25.9041 43.5469Z" fill="#F93636"/>
<path d="M13.6346 -17.741L173.269 -44.9202L105.134 115.862L13.6346 -17.741Z" fill="#F93636"/>
</g>
<mask id="mask1_1585_2849" style="mask-type:alpha" maskUnits="userSpaceOnUse" x="30" y="24" width="150" height="150">
<path d="M117.989 34.5173C114.139 21.464 95.6401 21.464 91.7894 34.5173L90.857 37.6874C90.2816 39.6416 89.2762 41.4423 87.9143 42.9573C86.5525 44.4724 84.8688 45.6634 82.9867 46.4431C81.1047 47.2227 79.0719 47.5712 77.0377 47.463C75.0034 47.3548 73.0191 46.7927 71.2304 45.8178L68.34 44.2327C56.3775 37.7247 43.2962 50.806 49.8136 62.7591L51.3893 65.6588C55.5477 73.3044 51.6037 82.824 43.2589 85.2855L40.0888 86.2178C27.0355 90.0686 27.0355 108.567 40.0888 112.418L43.2589 113.35C45.2131 113.925 47.0138 114.931 48.5289 116.293C50.0439 117.655 51.2349 119.338 52.0146 121.22C52.7942 123.102 53.1427 125.135 53.0345 127.169C52.9263 129.204 52.3642 131.188 51.3893 132.977L49.8042 135.867C43.2962 147.83 56.3775 160.911 68.3307 154.394L71.2304 152.818C73.0191 151.843 75.0034 151.281 77.0377 151.173C79.0719 151.064 81.1047 151.413 82.9867 152.193C84.8688 152.972 86.5525 154.163 87.9143 155.678C89.2762 157.193 90.2816 158.994 90.857 160.948L91.7894 164.118C95.6401 177.172 114.139 177.172 117.989 164.118L118.922 160.948C119.497 158.994 120.502 157.193 121.864 155.678C123.226 154.163 124.91 152.972 126.792 152.193C128.674 151.413 130.707 151.064 132.741 151.173C134.775 151.281 136.76 151.843 138.548 152.818L141.439 154.403C153.401 160.911 166.482 147.83 159.965 135.876L158.389 132.977C157.414 131.188 156.852 129.204 156.744 127.169C156.636 125.135 156.984 123.102 157.764 121.22C158.544 119.338 159.735 117.655 161.25 116.293C162.765 114.931 164.566 113.925 166.52 113.35L169.69 112.418C182.743 108.567 182.743 90.0686 169.69 86.2178L166.52 85.2855C164.566 84.7101 162.765 83.7046 161.25 82.3428C159.735 80.9809 158.544 79.2972 157.764 77.4152C156.984 75.5331 156.636 73.5004 156.744 71.4661C156.852 69.4319 157.414 67.4476 158.389 65.6588L159.974 62.7684C166.482 50.806 153.401 37.7247 141.448 44.242L138.548 45.8178C136.76 46.7927 134.775 47.3548 132.741 47.463C130.707 47.5712 128.674 47.2227 126.792 46.4431C124.91 45.6634 123.226 44.4724 121.864 42.9573C120.502 41.4423 119.497 39.6416 118.922 37.6874L117.989 34.5173ZM104.889 126.637C97.6439 126.637 90.6953 123.758 85.572 118.635C80.4488 113.512 77.5706 106.563 77.5706 99.3178C77.5706 92.0724 80.4488 85.1238 85.572 80.0005C90.6953 74.8772 97.6439 71.999 104.889 71.999C112.132 71.999 119.079 74.8763 124.2 79.9978C129.322 85.1193 132.199 92.0656 132.199 99.3085C132.199 106.551 129.322 113.498 124.2 118.619C119.079 123.741 112.132 126.618 104.889 126.618V126.637Z" fill="#FFF52F"/>
</mask>
<g mask="url(#mask1_1585_2849)">
<path d="M45.9906 240.422L-55.0278 113.864L118.649 95.707L45.9906 240.422Z" fill="#0707DB"/>
<path d="M-14.1596 199.176L-36.8373 38.8409L121.964 111.472L-14.1596 199.176Z" fill="#0707DB"/>
</g>
<mask id="mask2_1585_2849" style="mask-type:alpha" maskUnits="userSpaceOnUse" x="30" y="24" width="150" height="150">
<path d="M118.457 34.2726C114.678 21.1983 96.1795 21.0964 92.257 34.1284L91.3072 37.2933C90.7211 39.2443 89.7057 41.0394 88.3355 42.5469C86.9654 44.0545 85.2751 45.2362 83.3888 46.0055C81.5025 46.7748 79.4679 47.1121 77.4343 46.9927C75.4006 46.8733 73.4194 46.3002 71.6361 45.3155L68.7545 43.7145C56.828 37.1408 43.6749 50.1499 50.1264 62.1387L51.6861 65.047C55.8024 72.7153 51.806 82.2131 43.4478 84.6286L40.2726 85.5435C27.1983 89.3223 27.0964 107.82 40.1284 111.743L43.2933 112.693C45.2443 113.279 47.0394 114.294 48.547 115.664C50.0545 117.035 51.2362 118.725 52.0055 120.611C52.7748 122.498 53.1121 124.532 52.9927 126.566C52.8733 128.599 52.3002 130.581 51.3155 132.364L49.7146 135.246C43.1408 147.172 56.1499 160.325 68.1387 153.874L71.047 152.314C72.8411 151.349 74.8285 150.798 76.8633 150.701C78.8982 150.604 80.9289 150.963 82.8066 151.753C84.6844 152.543 86.3615 153.744 87.715 155.266C89.0685 156.789 90.064 158.595 90.6286 160.552L91.5435 163.727C95.3223 176.802 113.82 176.904 117.743 163.872L118.693 160.707C119.279 158.756 120.294 156.961 121.664 155.453C123.035 153.946 124.725 152.764 126.611 151.995C128.498 151.225 130.532 150.888 132.566 151.007C134.599 151.127 136.581 151.7 138.364 152.685L141.246 154.285C153.172 160.859 166.325 147.85 159.874 135.861L158.314 132.953C157.349 131.159 156.798 129.172 156.701 127.137C156.604 125.102 156.963 123.071 157.753 121.193C158.543 119.316 159.744 117.639 161.266 116.285C162.789 114.932 164.595 113.936 166.552 113.371L169.727 112.457C182.802 108.678 182.904 90.1795 169.872 86.257L166.707 85.3072C164.756 84.7211 162.961 83.7057 161.453 82.3355C159.946 80.9654 158.764 79.2751 157.995 77.3888C157.225 75.5025 156.888 73.4679 157.007 71.4342C157.127 69.4006 157.7 67.4194 158.685 65.6361L160.285 62.7545C166.859 50.828 153.85 37.6749 141.861 44.1263L138.953 45.6861C137.159 46.6511 135.172 47.2023 133.137 47.2993C131.102 47.3963 129.071 47.0366 127.193 46.2466C125.316 45.4566 123.639 44.2564 122.285 42.7338C120.932 41.2113 119.936 39.4052 119.371 37.4478L118.457 34.2726ZM104.85 126.318C97.6043 126.278 90.6717 123.362 85.5767 118.211C80.4817 113.059 77.6418 106.095 77.6817 98.8496C77.7215 91.6043 80.638 84.6716 85.7894 79.5767C90.9408 74.4817 97.9051 71.6418 105.15 71.6816C112.393 71.7215 119.324 74.637 124.417 79.7866C129.51 84.9362 132.349 91.8982 132.309 99.141C132.269 106.384 129.354 113.314 124.204 118.407C119.055 123.501 112.093 126.34 104.85 126.3L104.85 126.318Z" fill="#FFF52F"/>
</mask>
<g mask="url(#mask2_1585_2849)">
<path d="M166.206 -24.0511L273.244 97.4589L100.652 124.018L166.206 -24.0511Z" fill="#F4F4F4"/>
<path d="M228.286 14.2315L258.713 173.278L96.5758 108.435L228.286 14.2315Z" fill="#F4F4F4"/>
</g>
</g>
<defs>
<filter id="filter0_d_1585_2849" x="0.298828" y="0.4104" width="209.291" height="209.498" filterUnits="userSpaceOnUse" color-interpolation-filters="sRGB">
<feFlood flood-opacity="0" result="BackgroundImageFix"/>
<feColorMatrix in="SourceAlpha" type="matrix" values="0 0 0 0 0 0 0 0 0 0 0 0 0 0 0 0 0 0 127 0" result="hardAlpha"/>
<feOffset dy="6"/>
<feGaussianBlur stdDeviation="15"/>
<feComposite in2="hardAlpha" operator="out"/>
<feColorMatrix type="matrix" values="0 0 0 0 0 0 0 0 0 0 0 0 0 0 0 0 0 0 0.4 0"/>
<feBlend mode="normal" in2="BackgroundImageFix" result="effect1_dropShadow_1585_2849"/>
<feBlend mode="normal" in="SourceGraphic" in2="effect1_dropShadow_1585_2849" result="shape"/>
</filter>
</defs>
</svg>
