<svg width="33" height="40" viewBox="0 0 33 40" fill="none" xmlns="http://www.w3.org/2000/svg">
<path d="M1.25 29.5374C1.25 28.2462 2.215 27.155 3.49999 27.0125C13.1437 25.945 19.3999 26.0412 29.0224 27.0362C29.5029 27.0867 29.9583 27.276 30.333 27.581C30.7077 27.886 30.9854 28.2936 31.1323 28.7538C31.2792 29.2141 31.2889 29.7072 31.1601 30.1729C31.0314 30.6386 30.7698 31.0567 30.4074 31.3762C19.0512 41.2749 12.5612 41.1386 2.05 31.3862C1.5375 30.9112 1.25 30.2362 1.25 29.5387V29.5374Z" fill="url(#paint0_linear_2058_1241)"/>
<path fill-rule="evenodd" clip-rule="evenodd" d="M28.8936 28.2787C19.3474 27.2912 13.1812 27.1987 3.63624 28.255C3.32205 28.2916 3.03239 28.4428 2.82274 28.6796C2.61309 28.9165 2.49818 29.2224 2.49999 29.5387C2.49999 29.8962 2.64874 30.2349 2.89999 30.4699C8.10997 35.3024 12.0574 37.4862 15.9162 37.4999C19.7887 37.5137 23.9486 35.3474 29.5861 30.4349C29.7652 30.2755 29.8941 30.0675 29.9572 29.8362C30.0203 29.6049 30.0149 29.3602 29.9415 29.132C29.8682 28.9037 29.7301 28.7017 29.544 28.5504C29.358 28.3992 29.132 28.3052 28.8936 28.28V28.2787ZM3.36249 25.77C13.1074 24.6912 19.4549 24.7887 29.1524 25.7925C29.8752 25.8679 30.5604 26.1525 31.1241 26.6114C31.6877 27.0702 32.1053 27.6835 32.3257 28.3761C32.5462 29.0686 32.56 29.8104 32.3653 30.5107C32.1707 31.2109 31.7761 31.8392 31.2299 32.3187C25.5111 37.3037 20.7487 40.0186 15.9087 39.9999C11.055 39.9824 6.50248 37.2212 1.20125 32.3024C0.821694 31.9489 0.51912 31.5209 0.312434 31.0451C0.105748 30.5694 -0.000609409 30.0561 7.24906e-06 29.5374C-0.00181576 28.6055 0.34026 27.7056 0.960708 27.0102C1.58116 26.3148 2.43635 25.8727 3.36249 25.7687V25.77Z" fill="url(#paint1_linear_2058_1241)"/>
<path d="M26.2499 9.99995C26.2499 12.6521 25.1963 15.1956 23.321 17.071C21.4456 18.9463 18.9021 19.9999 16.2499 19.9999C13.5978 19.9999 11.0543 18.9463 9.17892 17.071C7.30356 15.1956 6.25 12.6521 6.25 9.99995C6.25 7.3478 7.30356 4.80427 9.17892 2.92892C11.0543 1.05356 13.5978 0 16.2499 0C18.9021 0 21.4456 1.05356 23.321 2.92892C25.1963 4.80427 26.2499 7.3478 26.2499 9.99995Z" fill="url(#paint2_linear_2058_1241)"/>
<path fill-rule="evenodd" clip-rule="evenodd" d="M16.2499 17.4999C18.2391 17.4999 20.1467 16.7097 21.5532 15.3032C22.9597 13.8967 23.7499 11.9891 23.7499 9.99995C23.7499 8.01084 22.9597 6.10319 21.5532 4.69668C20.1467 3.29016 18.2391 2.49999 16.2499 2.49999C14.2608 2.49999 12.3532 3.29016 10.9467 4.69668C9.54016 6.10319 8.74999 8.01084 8.74999 9.99995C8.74999 11.9891 9.54016 13.8967 10.9467 15.3032C12.3532 16.7097 14.2608 17.4999 16.2499 17.4999ZM16.2499 19.9999C18.9021 19.9999 21.4456 18.9463 23.321 17.071C25.1963 15.1956 26.2499 12.6521 26.2499 9.99995C26.2499 7.3478 25.1963 4.80427 23.321 2.92892C21.4456 1.05356 18.9021 0 16.2499 0C13.5978 0 11.0543 1.05356 9.17892 2.92892C7.30356 4.80427 6.25 7.3478 6.25 9.99995C6.25 12.6521 7.30356 15.1956 9.17892 17.071C11.0543 18.9463 13.5978 19.9999 16.2499 19.9999Z" fill="url(#paint3_linear_2058_1241)"/>
<defs>
<linearGradient id="paint0_linear_2058_1241" x1="1.25" y1="32.5003" x2="31.2501" y2="32.5003" gradientUnits="userSpaceOnUse">
<stop stop-color="#6288E2"/>
<stop offset="1" stop-color="#73ACF9"/>
</linearGradient>
<linearGradient id="paint1_linear_2058_1241" x1="1.81618e-07" y1="32.4998" x2="32.5018" y2="32.4998" gradientUnits="userSpaceOnUse">
<stop stop-color="#6288E2"/>
<stop offset="1" stop-color="#73ACF9"/>
</linearGradient>
<linearGradient id="paint2_linear_2058_1241" x1="6.25" y1="9.99995" x2="26.2499" y2="9.99995" gradientUnits="userSpaceOnUse">
<stop stop-color="#6288E2"/>
<stop offset="1" stop-color="#73ACF9"/>
</linearGradient>
<linearGradient id="paint3_linear_2058_1241" x1="6.25" y1="9.99995" x2="26.2499" y2="9.99995" gradientUnits="userSpaceOnUse">
<stop stop-color="#6288E2"/>
<stop offset="1" stop-color="#73ACF9"/>
</linearGradient>
</defs>
</svg>
