<svg width="37" height="34" viewBox="0 0 37 34" fill="none" xmlns="http://www.w3.org/2000/svg">
<path d="M32.5302 2L29.305 5.15374M29.305 5.15374L34.1429 9.88434L28.4986 15.4034L23.6607 10.6728M29.305 5.15374L23.6607 10.6728M17.0328 17.1537C17.8655 17.9571 18.5274 18.9135 18.9805 19.9681C19.4336 21.0226 19.6688 22.1544 19.6727 23.2982C19.6767 24.442 19.4492 25.5752 19.0033 26.6327C18.5575 27.6902 17.9021 28.651 17.075 29.4598C16.2478 30.2686 15.2653 30.9094 14.1838 31.3454C13.1023 31.7813 11.9434 32.0038 10.7736 32C9.60385 31.9961 8.44643 31.7661 7.36798 31.323C6.28953 30.88 5.31135 30.2328 4.48977 29.4186C2.87412 27.7829 1.98013 25.5921 2.00034 23.3181C2.02054 21.0442 2.95334 18.8689 4.59781 17.2609C6.24228 15.6529 8.46686 14.7408 10.7924 14.7211C13.118 14.7013 15.3584 15.5755 17.0312 17.1553L17.0328 17.1537ZM17.0328 17.1537L23.6607 10.6728" stroke="url(#paint0_linear_2058_1257)" stroke-width="4" stroke-linecap="round" stroke-linejoin="round"/>
<defs>
<linearGradient id="paint0_linear_2058_1257" x1="2" y1="17" x2="34.1429" y2="17" gradientUnits="userSpaceOnUse">
<stop stop-color="#6288E2"/>
<stop offset="1" stop-color="#73ACF9"/>
</linearGradient>
</defs>
</svg>
