<svg width="31" height="40" viewBox="0 0 31 40" fill="none" xmlns="http://www.w3.org/2000/svg">
<path d="M20.202 0V3.33333H24.5556L18.8333 8.99833C16.8653 7.54 14.431 6.66667 11.7845 6.66667C5.27609 6.66667 0 11.89 0 18.3333C0 24.21 4.39226 29.0567 10.101 29.8667V33.3333H5.05051V36.6667H10.101V40H13.468V36.6667H18.5185V33.3333H13.468V29.8667C19.1768 29.0567 23.569 24.2083 23.569 18.3333C23.569 15.7133 22.6869 13.3033 21.2138 11.355L26.936 5.69V10H30.303V0H20.202V0ZM11.7845 26.6667C7.1431 26.6667 3.367 22.9283 3.367 18.3333C3.367 13.7383 7.1431 10 11.7845 10C16.4259 10 20.202 13.7383 20.202 18.3333C20.202 22.9283 16.4259 26.6667 11.7845 26.6667Z" fill="url(#paint0_linear_1686_857)"/>
<defs>
<linearGradient id="paint0_linear_1686_857" x1="1.69331e-07" y1="20" x2="30.303" y2="20" gradientUnits="userSpaceOnUse">
<stop stop-color="#6288E2"/>
<stop offset="1" stop-color="#73ACF9"/>
</linearGradient>
</defs>
</svg>
