<svg width="50" height="50" viewBox="0 0 50 50" fill="none" xmlns="http://www.w3.org/2000/svg">
<path d="M41.667 8.33325H8.33366C6.03574 8.33325 4.16699 10.202 4.16699 12.4999V37.4999C4.16699 39.7978 6.03574 41.6666 8.33366 41.6666H41.667C43.9649 41.6666 45.8337 39.7978 45.8337 37.4999V12.4999C45.8337 10.202 43.9649 8.33325 41.667 8.33325ZM18.1566 16.6666C20.5545 16.6666 22.3232 18.4353 22.3232 20.8333C22.3232 23.2312 20.5545 24.9999 18.1566 24.9999C15.7587 24.9999 13.9899 23.2312 13.9899 20.8333C13.9899 18.4353 15.7566 16.6666 18.1566 16.6666ZM25.8962 33.3332H10.417V32.3645C10.417 29.5041 13.9087 26.5624 18.1566 26.5624C22.4045 26.5624 25.8962 29.5041 25.8962 32.3645V33.3332ZM39.5837 31.2499H31.2503V27.0832H39.5837V31.2499ZM39.5837 22.9166H29.167V18.7499H39.5837V22.9166Z" fill="url(#paint0_linear_2086_1271)"/>
<defs>
<linearGradient id="paint0_linear_2086_1271" x1="4.16699" y1="24.9999" x2="45.8337" y2="24.9999" gradientUnits="userSpaceOnUse">
<stop stop-color="#6288E2"/>
<stop offset="1" stop-color="#73ACF9"/>
</linearGradient>
</defs>
</svg>
