<svg width="36" height="40" viewBox="0 0 36 40" fill="none" xmlns="http://www.w3.org/2000/svg">
<path d="M35.0357 37.5H33.4286V1.875C33.4286 0.839453 32.5651 0 31.5 0H4.5C3.43487 0 2.57143 0.839453 2.57143 1.875V37.5H0.964286C0.431759 37.5 0 37.9198 0 38.4375V40H36V38.4375C36 37.9198 35.5682 37.5 35.0357 37.5ZM10.2857 5.9375C10.2857 5.41977 10.7175 5 11.25 5H14.4643C14.9968 5 15.4286 5.41977 15.4286 5.9375V9.0625C15.4286 9.58023 14.9968 10 14.4643 10H11.25C10.7175 10 10.2857 9.58023 10.2857 9.0625V5.9375ZM10.2857 13.4375C10.2857 12.9198 10.7175 12.5 11.25 12.5H14.4643C14.9968 12.5 15.4286 12.9198 15.4286 13.4375V16.5625C15.4286 17.0802 14.9968 17.5 14.4643 17.5H11.25C10.7175 17.5 10.2857 17.0802 10.2857 16.5625V13.4375ZM14.4643 25H11.25C10.7175 25 10.2857 24.5802 10.2857 24.0625V20.9375C10.2857 20.4198 10.7175 20 11.25 20H14.4643C14.9968 20 15.4286 20.4198 15.4286 20.9375V24.0625C15.4286 24.5802 14.9968 25 14.4643 25ZM20.5714 37.5H15.4286V30.9375C15.4286 30.4198 15.8603 30 16.3929 30H19.6071C20.1397 30 20.5714 30.4198 20.5714 30.9375V37.5ZM25.7143 24.0625C25.7143 24.5802 25.2825 25 24.75 25H21.5357C21.0032 25 20.5714 24.5802 20.5714 24.0625V20.9375C20.5714 20.4198 21.0032 20 21.5357 20H24.75C25.2825 20 25.7143 20.4198 25.7143 20.9375V24.0625ZM25.7143 16.5625C25.7143 17.0802 25.2825 17.5 24.75 17.5H21.5357C21.0032 17.5 20.5714 17.0802 20.5714 16.5625V13.4375C20.5714 12.9198 21.0032 12.5 21.5357 12.5H24.75C25.2825 12.5 25.7143 12.9198 25.7143 13.4375V16.5625ZM25.7143 9.0625C25.7143 9.58023 25.2825 10 24.75 10H21.5357C21.0032 10 20.5714 9.58023 20.5714 9.0625V5.9375C20.5714 5.41977 21.0032 5 21.5357 5H24.75C25.2825 5 25.7143 5.41977 25.7143 5.9375V9.0625Z" fill="url(#paint0_linear_2086_1265)"/>
<defs>
<linearGradient id="paint0_linear_2086_1265" x1="2.01166e-07" y1="20" x2="36" y2="20" gradientUnits="userSpaceOnUse">
<stop stop-color="#6288E2"/>
<stop offset="1" stop-color="#73ACF9"/>
</linearGradient>
</defs>
</svg>
