<svg width="50" height="50" viewBox="0 0 50 50" fill="none" xmlns="http://www.w3.org/2000/svg">
<path d="M25 3.125V14.0625C25 15.3057 25.4939 16.498 26.3729 17.3771C27.252 18.2561 28.4443 18.75 29.6875 18.75H40.625V42.1875C40.625 43.4307 40.1311 44.623 39.2521 45.5021C38.373 46.3811 37.1807 46.875 35.9375 46.875H14.0625C12.8193 46.875 11.627 46.3811 10.7479 45.5021C9.86886 44.623 9.375 43.4307 9.375 42.1875V7.8125C9.375 6.5693 9.86886 5.37701 10.7479 4.49794C11.627 3.61886 12.8193 3.125 14.0625 3.125H25ZM28.125 3.90625V14.0625C28.125 14.4769 28.2896 14.8743 28.5826 15.1674C28.8757 15.4604 29.2731 15.625 29.6875 15.625H39.8438L28.125 3.90625Z" fill="url(#paint0_linear_2086_1273)"/>
<defs>
<linearGradient id="paint0_linear_2086_1273" x1="9.375" y1="25" x2="40.625" y2="25" gradientUnits="userSpaceOnUse">
<stop stop-color="#6288E2"/>
<stop offset="1" stop-color="#73ACF9"/>
</linearGradient>
</defs>
</svg>
