<svg width="50" height="50" viewBox="0 0 50 50" fill="none" xmlns="http://www.w3.org/2000/svg">
<path d="M30.0813 15.8436C26.0701 16.4871 22.4171 18.5322 19.7719 21.6155C18.1035 21.1945 16.5999 20.2825 15.4555 18.9975C14.3112 17.7126 13.5787 16.1138 13.353 14.408C13.1272 12.7022 13.4185 10.9679 14.1892 9.42948C14.9599 7.89106 16.1744 6.6193 17.6758 5.77873C19.1772 4.93817 20.8963 4.56747 22.6106 4.7146C24.325 4.86173 25.9557 5.51992 27.2919 6.60401C28.6281 7.68811 29.6083 9.14822 30.1056 10.7955C30.6028 12.4427 30.5944 14.2013 30.0813 15.8436ZM17.5 24.9999C16.3 27.3436 15.625 29.9999 15.625 32.8124C15.625 36.9061 17.0563 40.6624 19.4438 43.6155C11.1094 42.6655 6.25 36.8843 6.25 31.2499V29.6874C6.25 28.4442 6.74386 27.2519 7.62294 26.3728C8.50201 25.4937 9.6943 24.9999 10.9375 24.9999H17.5ZM30.8594 26.5624C30.8594 26.0444 31.0651 25.5476 31.4314 25.1813C31.7977 24.815 32.2945 24.6093 32.8125 24.6093C33.3305 24.6093 33.8273 24.815 34.1936 25.1813C34.5599 25.5476 34.7656 26.0444 34.7656 26.5624C34.7656 27.0804 34.5599 27.5772 34.1936 27.9435C33.8273 28.3097 33.3305 28.5155 32.8125 28.5155C32.2945 28.5155 31.7977 28.3097 31.4314 27.9435C31.0651 27.5772 30.8594 27.0804 30.8594 26.5624ZM34.375 39.0624C34.375 39.4768 34.2104 39.8742 33.9174 40.1672C33.6243 40.4603 33.2269 40.6249 32.8125 40.6249C32.3981 40.6249 32.0007 40.4603 31.7076 40.1672C31.4146 39.8742 31.25 39.4768 31.25 39.0624V32.8124C31.25 32.398 31.4146 32.0006 31.7076 31.7075C32.0007 31.4145 32.3981 31.2499 32.8125 31.2499C33.2269 31.2499 33.6243 31.4145 33.9174 31.7075C34.2104 32.0006 34.375 32.398 34.375 32.8124V39.0624ZM18.75 32.8124C18.75 30.9657 19.1137 29.137 19.8204 27.4309C20.5272 25.7248 21.563 24.1745 22.8688 22.8687C24.1746 21.5629 25.7249 20.527 27.431 19.8203C29.1372 19.1136 30.9658 18.7499 32.8125 18.7499C34.6592 18.7499 36.4878 19.1136 38.194 19.8203C39.9001 20.527 41.4504 21.5629 42.7562 22.8687C44.062 24.1745 45.0979 25.7248 45.8046 27.4309C46.5113 29.137 46.875 30.9657 46.875 32.8124C46.875 36.542 45.3934 40.1188 42.7562 42.7561C40.119 45.3933 36.5421 46.8749 32.8125 46.8749C29.0829 46.8749 25.506 45.3933 22.8688 42.7561C20.2316 40.1188 18.75 36.542 18.75 32.8124ZM21.875 32.8124C21.875 35.7132 23.0273 38.4952 25.0785 40.5464C27.1297 42.5975 29.9117 43.7499 32.8125 43.7499C35.7133 43.7499 38.4953 42.5975 40.5465 40.5464C42.5977 38.4952 43.75 35.7132 43.75 32.8124C43.75 29.9116 42.5977 27.1296 40.5465 25.0784C38.4953 23.0272 35.7133 21.8749 32.8125 21.8749C29.9117 21.8749 27.1297 23.0272 25.0785 25.0784C23.0273 27.1296 21.875 29.9116 21.875 32.8124Z" fill="url(#paint0_linear_2086_1283)"/>
<defs>
<linearGradient id="paint0_linear_2086_1283" x1="6.25" y1="25.779" x2="46.875" y2="25.779" gradientUnits="userSpaceOnUse">
<stop stop-color="#6288E2"/>
<stop offset="1" stop-color="#73ACF9"/>
</linearGradient>
</defs>
</svg>
