<svg width="45" height="45" viewBox="0 0 45 45" fill="none" xmlns="http://www.w3.org/2000/svg">
<path d="M22.5 3.75C15.2438 3.75 9.375 9.61875 9.375 16.875C9.375 26.7188 22.5 41.25 22.5 41.25C22.5 41.25 35.625 26.7188 35.625 16.875C35.625 9.61875 29.7563 3.75 22.5 3.75ZM22.5 21.5625C21.2568 21.5625 20.0645 21.0686 19.1854 20.1896C18.3064 19.3105 17.8125 18.1182 17.8125 16.875C17.8125 15.6318 18.3064 14.4395 19.1854 13.5604C20.0645 12.6814 21.2568 12.1875 22.5 12.1875C23.7432 12.1875 24.9355 12.6814 25.8146 13.5604C26.6936 14.4395 27.1875 15.6318 27.1875 16.875C27.1875 18.1182 26.6936 19.3105 25.8146 20.1896C24.9355 21.0686 23.7432 21.5625 22.5 21.5625Z" fill="url(#paint0_linear_2058_1246)"/>
<defs>
<linearGradient id="paint0_linear_2058_1246" x1="9.375" y1="22.5" x2="35.625" y2="22.5" gradientUnits="userSpaceOnUse">
<stop stop-color="#6288E2"/>
<stop offset="1" stop-color="#73ACF9"/>
</linearGradient>
</defs>
</svg>
