<svg width="14" height="8" viewBox="0 0 14 8" fill="none" xmlns="http://www.w3.org/2000/svg">
<path fill-rule="evenodd" clip-rule="evenodd" d="M6.64614 0.646039C6.69259 0.599476 6.74776 0.562533 6.80851 0.537326C6.86926 0.51212 6.93438 0.499146 7.00014 0.499146C7.06591 0.499146 7.13103 0.51212 7.19178 0.537326C7.25252 0.562533 7.3077 0.599476 7.35414 0.646039L13.3541 6.64604C13.448 6.73993 13.5008 6.86726 13.5008 7.00004C13.5008 7.13281 13.448 7.26015 13.3541 7.35404C13.2603 7.44793 13.1329 7.50067 13.0001 7.50067C12.8674 7.50067 12.74 7.44793 12.6461 7.35404L7.00014 1.70704L1.35414 7.35404C1.26026 7.44793 1.13292 7.50067 1.00014 7.50067C0.867368 7.50067 0.74003 7.44793 0.646143 7.35404C0.552257 7.26015 0.499512 7.13281 0.499512 7.00004C0.499512 6.86726 0.552257 6.73993 0.646143 6.64604L6.64614 0.646039Z" fill="#F4F4F4" stroke="#F4F4F4" stroke-width="0.5"/>
</svg>
