<svg width="240" height="103" viewBox="0 0 240 103" fill="none" xmlns="http://www.w3.org/2000/svg">
<path d="M119.641 50.6926L119.714 47.6286C119.749 46.1459 121.608 43.0353 125.291 38.1979L130.54 31.3293C132.935 28.1355 134.144 26.0939 134.165 25.2043C134.229 22.5356 132.925 21.1126 130.429 21.0393C127.755 20.9609 125.674 22.1856 123.921 24.607L104.037 16.803C110.276 5.8092 119.414 0.439443 131.358 0.789951C139.827 1.03844 146.817 3.41959 152.324 8.13108C157.746 12.6423 160.368 18.6538 160.189 26.1658C160.014 33.48 156.846 39.1239 150.78 42.9023L141.996 48.3813L141.925 51.3466L119.641 50.6926ZM118.321 57.3798L142.389 58.0861L141.936 77.0636L117.868 76.3574L118.321 57.3798Z" fill="#F4F4F4"/>
<path d="M23.0624 75.9874L22.2247 74.2433C21.8194 73.3994 21.9695 71.0003 22.648 66.9897L23.6217 61.2887C24.0492 58.6537 24.1414 57.083 23.8982 56.5767C23.1686 55.0576 22.0292 54.719 20.6086 55.5572C19.0864 56.4554 18.2707 57.8753 17.9822 59.8507L4.59351 62.4795C4.93966 54.1161 8.52407 47.8855 15.323 43.8739C20.1432 41.0299 24.746 39.9026 29.1855 40.6045C33.5202 41.2239 36.7143 43.6715 38.7679 47.9474C40.7674 52.1108 40.6095 56.3918 38.2908 60.6481L34.9364 66.8152L35.747 68.5031L23.0624 75.9874ZM24.2402 80.2024L37.9396 72.1193L43.1275 82.9215L29.4281 91.0046L24.2402 80.2024Z" fill="#F4F4F4"/>
<path d="M219.266 86.1349L219.738 85.137C219.966 84.6542 221.034 83.9612 222.955 83.0259L225.69 81.7012C226.947 81.0772 227.644 80.6203 227.781 80.3306C228.192 79.4615 227.969 78.758 227.156 78.2861C226.285 77.7804 225.42 77.8112 224.488 78.2957L219.067 72.1534C222.731 69.6453 226.53 69.5128 230.42 71.7714C233.178 73.3727 235.137 75.4124 236.266 77.9551C237.396 80.4164 237.383 82.8703 236.227 85.3167C235.101 87.6988 233.232 88.9927 230.679 89.151L226.98 89.383L226.524 90.3487L219.266 86.1349ZM217.855 88.1047L225.693 92.6556L222.772 98.8361L214.934 94.2851L217.855 88.1047Z" fill="#F4F4F4"/>
</svg>
