<svg width="38" height="38" viewBox="0 0 38 38" fill="none" xmlns="http://www.w3.org/2000/svg">
<g clip-path="url(#clip0_1585_2328)">
<path d="M38 19C38 8.50658 29.4934 0 19 0C8.50658 0 0 8.50658 0 19C0 28.4833 6.94799 36.3438 16.0312 37.7692V24.4922H11.207V19H16.0312V14.8141C16.0312 10.0522 18.8679 7.42188 23.2078 7.42188C25.286 7.42188 27.4609 7.79297 27.4609 7.79297V12.4688H25.0652C22.705 12.4688 21.9688 13.9335 21.9688 15.4375V19H27.2383L26.3959 24.4922H21.9688V37.7692C31.052 36.3438 38 28.4833 38 19Z" fill="#F4F4F4"/>
</g>
<defs>
<clipPath id="clip0_1585_2328">
<rect width="38" height="38" fill="white"/>
</clipPath>
</defs>
</svg>
