<svg width="154" height="154" viewBox="0 0 154 154" fill="none" xmlns="http://www.w3.org/2000/svg">
<path d="M101.622 27.5099C101.457 16.1699 86.609 12.0242 80.593 21.6383L79.1342 23.9737C78.2344 25.4133 77.0238 26.6333 75.5912 27.5441C74.1586 28.4549 72.5403 29.0336 70.855 29.2375C69.1697 29.4415 67.4601 29.2657 65.8515 28.723C64.243 28.1802 62.7763 27.2843 61.5591 26.101L59.5944 24.181C51.4514 16.2766 38.0203 23.8445 40.5726 34.899L41.1875 37.5795C42.8117 44.648 37.5127 51.4049 30.2633 51.5105L27.5099 51.5484C16.1699 51.7137 12.0242 66.5612 21.6383 72.5773L23.9738 74.0361C25.4134 74.9359 26.6333 76.1464 27.5441 77.579C28.455 79.0116 29.0336 80.6299 29.2376 82.3153C29.4416 84.0006 29.2657 85.7102 28.723 87.3187C28.1802 88.9273 27.2844 90.3939 26.101 91.6112L24.181 93.5759C16.2766 101.719 23.8445 115.15 34.899 112.598L37.5796 111.983C39.2338 111.601 40.9524 111.595 42.6094 111.964C44.2665 112.333 45.8199 113.068 47.1557 114.116C48.4916 115.163 49.5761 116.496 50.3296 118.018C51.0832 119.539 51.4866 121.21 51.5105 122.907L51.5484 125.66C51.7138 137 66.5612 141.146 72.5773 131.532L74.0361 129.196C74.9359 127.757 76.1464 126.537 77.579 125.626C79.0116 124.715 80.6299 124.137 82.3153 123.933C84.0006 123.729 85.7102 123.905 87.3188 124.447C88.9273 124.99 90.394 125.886 91.6112 127.069L93.5759 128.989C101.719 136.894 115.15 129.326 112.598 118.271L111.983 115.591C111.601 113.936 111.595 112.218 111.964 110.561C112.333 108.904 113.068 107.35 114.116 106.015C115.163 104.679 116.496 103.594 118.018 102.841C119.539 102.087 121.21 101.684 122.907 101.66L125.66 101.622C137 101.456 141.146 86.609 131.532 80.5929L129.197 79.1341C127.757 78.2344 126.537 77.0238 125.626 75.5912C124.715 74.1586 124.137 72.5403 123.933 70.855C123.729 69.1696 123.905 67.46 124.447 65.8515C124.99 64.243 125.886 62.7763 127.069 61.5591L128.989 59.5944C136.894 51.4514 129.326 38.0203 118.271 40.5725L115.591 41.1874C113.937 41.569 112.218 41.5756 110.561 41.2065C108.904 40.8374 107.35 40.1022 106.015 39.0546C104.679 38.0071 103.594 36.6738 102.841 35.1526C102.087 33.6313 101.684 31.9607 101.66 30.2633L101.622 27.5099ZM70.4628 98.5121C64.6474 96.8883 59.7152 93.0209 56.7513 87.7607C53.7874 82.5004 53.0344 76.2782 54.6582 70.4628C56.2819 64.6474 60.1493 59.7152 65.4096 56.7513C70.6699 53.7873 76.8921 53.0344 82.7075 54.6582C88.5209 56.2814 93.4514 60.1474 96.4143 65.4059C99.3772 70.6644 100.13 76.8845 98.5067 82.6979C96.8835 88.5113 93.0174 93.4418 87.759 96.4047C82.5005 99.3676 76.2804 100.12 70.467 98.4971L70.4628 98.5121Z" fill="#FFF52F"/>
<mask id="mask0_4000_4501" style="mask-type:alpha" maskUnits="userSpaceOnUse" x="16" y="16" width="121" height="121">
<path d="M101.622 27.5099C101.457 16.1699 86.609 12.0242 80.593 21.6383L79.1342 23.9737C78.2344 25.4133 77.0238 26.6333 75.5912 27.5441C74.1586 28.4549 72.5403 29.0336 70.855 29.2375C69.1697 29.4415 67.4601 29.2657 65.8515 28.723C64.243 28.1802 62.7763 27.2843 61.5591 26.101L59.5944 24.181C51.4514 16.2766 38.0203 23.8445 40.5726 34.899L41.1875 37.5795C42.8117 44.648 37.5127 51.4049 30.2633 51.5105L27.5099 51.5484C16.1699 51.7137 12.0242 66.5612 21.6383 72.5773L23.9738 74.0361C25.4134 74.9359 26.6333 76.1464 27.5441 77.579C28.455 79.0116 29.0336 80.6299 29.2376 82.3153C29.4416 84.0006 29.2657 85.7102 28.723 87.3187C28.1802 88.9273 27.2844 90.3939 26.101 91.6112L24.181 93.5759C16.2766 101.719 23.8445 115.15 34.899 112.598L37.5796 111.983C39.2338 111.601 40.9524 111.595 42.6094 111.964C44.2665 112.333 45.8199 113.068 47.1557 114.116C48.4916 115.163 49.5761 116.496 50.3296 118.018C51.0832 119.539 51.4866 121.21 51.5105 122.907L51.5484 125.66C51.7138 137 66.5612 141.146 72.5773 131.532L74.0361 129.196C74.9359 127.757 76.1464 126.537 77.579 125.626C79.0116 124.715 80.6299 124.137 82.3153 123.933C84.0006 123.729 85.7102 123.905 87.3188 124.447C88.9273 124.99 90.394 125.886 91.6112 127.069L93.5759 128.989C101.719 136.894 115.15 129.326 112.598 118.271L111.983 115.591C111.601 113.936 111.595 112.218 111.964 110.561C112.333 108.904 113.068 107.35 114.116 106.015C115.163 104.679 116.496 103.594 118.018 102.841C119.539 102.087 121.21 101.684 122.907 101.66L125.66 101.622C137 101.456 141.146 86.609 131.532 80.5929L129.197 79.1341C127.757 78.2344 126.537 77.0238 125.626 75.5912C124.715 74.1586 124.137 72.5403 123.933 70.855C123.729 69.1696 123.905 67.46 124.447 65.8515C124.99 64.243 125.886 62.7763 127.069 61.5591L128.989 59.5944C136.894 51.4514 129.326 38.0203 118.271 40.5725L115.591 41.1874C113.937 41.569 112.218 41.5756 110.561 41.2065C108.904 40.8374 107.35 40.1022 106.015 39.0546C104.679 38.0071 103.594 36.6738 102.841 35.1526C102.087 33.6313 101.684 31.9607 101.66 30.2633L101.622 27.5099ZM70.4628 98.5121C64.6474 96.8883 59.7152 93.0209 56.7513 87.7607C53.7874 82.5004 53.0344 76.2782 54.6582 70.4628C56.2819 64.6474 60.1493 59.7152 65.4096 56.7513C70.6699 53.7873 76.8921 53.0344 82.7075 54.6582C88.5209 56.2814 93.4514 60.1474 96.4143 65.4059C99.3772 70.6644 100.13 76.8845 98.5067 82.6979C96.8835 88.5113 93.0174 93.4418 87.759 96.4047C82.5005 99.3676 76.2804 100.12 70.467 98.4971L70.4628 98.5121Z" fill="#FFF52F"/>
</mask>
<g mask="url(#mask0_4000_4501)">
<path d="M76.264 76.2203L92.9376 16.5044L33.2217 -0.169189L16.5481 59.5467L76.264 76.2203Z" fill="#F93636"/>
</g>
<mask id="mask1_4000_4501" style="mask-type:alpha" maskUnits="userSpaceOnUse" x="16" y="16" width="121" height="121">
<path d="M101.622 27.5099C101.457 16.1699 86.609 12.0242 80.593 21.6383L79.1342 23.9737C78.2344 25.4133 77.0238 26.6333 75.5912 27.5441C74.1586 28.4549 72.5403 29.0336 70.855 29.2375C69.1697 29.4415 67.4601 29.2657 65.8515 28.723C64.243 28.1802 62.7763 27.2843 61.5591 26.101L59.5944 24.181C51.4514 16.2766 38.0203 23.8445 40.5726 34.899L41.1875 37.5795C42.8117 44.648 37.5127 51.4049 30.2633 51.5105L27.5099 51.5484C16.1699 51.7137 12.0242 66.5612 21.6383 72.5773L23.9738 74.0361C25.4134 74.9359 26.6333 76.1464 27.5441 77.579C28.455 79.0116 29.0336 80.6299 29.2376 82.3153C29.4416 84.0006 29.2657 85.7102 28.723 87.3187C28.1802 88.9273 27.2844 90.3939 26.101 91.6112L24.181 93.5759C16.2766 101.719 23.8445 115.15 34.899 112.598L37.5796 111.983C39.2338 111.601 40.9524 111.595 42.6094 111.964C44.2665 112.333 45.8199 113.068 47.1557 114.116C48.4916 115.163 49.5761 116.496 50.3296 118.018C51.0832 119.539 51.4866 121.21 51.5105 122.907L51.5484 125.66C51.7138 137 66.5612 141.146 72.5773 131.532L74.0361 129.196C74.9359 127.757 76.1464 126.537 77.579 125.626C79.0116 124.715 80.6299 124.137 82.3153 123.933C84.0006 123.729 85.7102 123.905 87.3188 124.447C88.9273 124.99 90.394 125.886 91.6112 127.069L93.5759 128.989C101.719 136.894 115.15 129.326 112.598 118.271L111.983 115.591C111.601 113.936 111.595 112.218 111.964 110.561C112.333 108.904 113.068 107.35 114.116 106.015C115.163 104.679 116.496 103.594 118.018 102.841C119.539 102.087 121.21 101.684 122.907 101.66L125.66 101.622C137 101.456 141.146 86.609 131.532 80.5929L129.197 79.1341C127.757 78.2344 126.537 77.0238 125.626 75.5912C124.715 74.1586 124.137 72.5403 123.933 70.855C123.729 69.1696 123.905 67.46 124.447 65.8515C124.99 64.243 125.886 62.7763 127.069 61.5591L128.989 59.5944C136.894 51.4514 129.326 38.0203 118.271 40.5725L115.591 41.1874C113.937 41.569 112.218 41.5756 110.561 41.2065C108.904 40.8374 107.35 40.1022 106.015 39.0546C104.679 38.0071 103.594 36.6738 102.841 35.1526C102.087 33.6313 101.684 31.9607 101.66 30.2633L101.622 27.5099ZM70.4628 98.5121C64.6474 96.8883 59.7152 93.0209 56.7513 87.7607C53.7874 82.5004 53.0344 76.2782 54.6582 70.4628C56.2819 64.6474 60.1493 59.7152 65.4096 56.7513C70.6699 53.7873 76.8921 53.0344 82.7075 54.6582C88.5209 56.2814 93.4514 60.1474 96.4143 65.4059C99.3772 70.6644 100.13 76.8845 98.5067 82.6979C96.8835 88.5113 93.0174 93.4418 87.759 96.4047C82.5005 99.3676 76.2804 100.12 70.467 98.4971L70.4628 98.5121Z" fill="#FFF52F"/>
</mask>
<g mask="url(#mask1_4000_4501)">
<path d="M76.1294 76.702L92.9375 16.5045L153.135 33.3126L136.327 93.5101L76.1294 76.702Z" fill="#F4F4F4"/>
</g>
<mask id="mask2_4000_4501" style="mask-type:alpha" maskUnits="userSpaceOnUse" x="16" y="16" width="121" height="121">
<path d="M101.622 27.5099C101.457 16.1699 86.609 12.0242 80.593 21.6383L79.1342 23.9737C78.2344 25.4133 77.0238 26.6333 75.5912 27.5441C74.1586 28.4549 72.5403 29.0336 70.855 29.2375C69.1697 29.4415 67.4601 29.2657 65.8515 28.723C64.243 28.1802 62.7763 27.2843 61.5591 26.101L59.5944 24.181C51.4514 16.2766 38.0203 23.8444 40.5726 34.899L41.1875 37.5795C42.8117 44.648 37.5127 51.4049 30.2633 51.5105L27.5099 51.5484C16.1699 51.7137 12.0242 66.5612 21.6383 72.5773L23.9738 74.0361C25.4134 74.9359 26.6333 76.1464 27.5441 77.579C28.455 79.0116 29.0336 80.6299 29.2376 82.3153C29.4416 84.0006 29.2657 85.7102 28.723 87.3187C28.1802 88.9273 27.2844 90.3939 26.101 91.6112L24.181 93.5759C16.2766 101.719 23.8445 115.15 34.899 112.598L37.5796 111.983C39.2338 111.601 40.9524 111.595 42.6094 111.964C44.2665 112.333 45.8199 113.068 47.1557 114.116C48.4916 115.163 49.5761 116.496 50.3296 118.018C51.0832 119.539 51.4866 121.21 51.5105 122.907L51.5484 125.66C51.7138 137 66.5612 141.146 72.5773 131.532L74.0361 129.196C74.9359 127.757 76.1464 126.537 77.579 125.626C79.0116 124.715 80.63 124.137 82.3153 123.933C84.0006 123.729 85.7102 123.905 87.3188 124.447C88.9273 124.99 90.394 125.886 91.6112 127.069L93.5759 128.989C101.719 136.894 115.15 129.326 112.598 118.271L111.983 115.591C111.601 113.936 111.595 112.218 111.964 110.561C112.333 108.904 113.068 107.35 114.116 106.015C115.163 104.679 116.496 103.594 118.018 102.841C119.539 102.087 121.21 101.684 122.907 101.66L125.66 101.622C137 101.456 141.146 86.609 131.532 80.5929L129.197 79.1341C127.757 78.2344 126.537 77.0238 125.626 75.5912C124.715 74.1586 124.137 72.5403 123.933 70.855C123.729 69.1696 123.905 67.46 124.447 65.8515C124.99 64.243 125.886 62.7763 127.069 61.5591L128.989 59.5944C136.894 51.4514 129.326 38.0203 118.271 40.5725L115.591 41.1874C113.937 41.569 112.218 41.5756 110.561 41.2065C108.904 40.8374 107.35 40.1022 106.015 39.0546C104.679 38.0071 103.594 36.6738 102.841 35.1526C102.087 33.6313 101.684 31.9607 101.66 30.2633L101.622 27.5099ZM70.4628 98.5121C64.6474 96.8883 59.7152 93.0209 56.7513 87.7607C53.7874 82.5004 53.0344 76.2782 54.6582 70.4628C56.2819 64.6474 60.1493 59.7152 65.4096 56.7513C70.6699 53.7873 76.8921 53.0344 82.7075 54.6582C88.5209 56.2814 93.4514 60.1474 96.4143 65.4059C99.3772 70.6644 100.13 76.8845 98.5067 82.6979C96.8835 88.5113 93.0174 93.4418 87.759 96.4047C82.5005 99.3676 76.2804 100.12 70.467 98.4971L70.4628 98.5121Z" fill="#FFF52F"/>
</mask>
<g mask="url(#mask2_4000_4501)">
<path d="M76.3985 75.7388L59.456 136.418L-0.259914 119.744L16.6826 59.0652L76.3985 75.7388Z" fill="#0707DB"/>
</g>
</svg>
