<svg width="575" height="325" viewBox="0 0 575 325" fill="none" xmlns="http://www.w3.org/2000/svg">
<g clip-path="url(#clip0_1199_1049)">
<mask id="mask0_1199_1049" style="mask-type:luminance" maskUnits="userSpaceOnUse" x="0" y="0" width="575" height="575">
<path d="M6.07457 2.562e-05L574.667 6.07459L568.592 574.667L0 568.592L6.07457 2.562e-05Z" fill="white"/>
</mask>
<g mask="url(#mask0_1199_1049)">
<path d="M301.464 79.1597C301.39 86.133 295.677 91.726 288.703 91.6515C281.73 91.577 276.137 85.8632 276.211 78.8899C276.286 71.9166 281.999 66.3237 288.973 66.3982C295.946 66.4727 301.539 72.1864 301.464 79.1597Z" fill="#50B5EB"/>
</g>
<mask id="mask1_1199_1049" style="mask-type:luminance" maskUnits="userSpaceOnUse" x="0" y="0" width="575" height="575">
<path d="M6.07457 2.562e-05L574.667 6.07459L568.592 574.667L0 568.592L6.07457 2.562e-05Z" fill="white"/>
</mask>
<g mask="url(#mask1_1199_1049)">
<path d="M289.599 56.3591C302.008 56.4917 312.013 66.325 312.557 78.5726L326.819 78.725C326.694 57.9692 309.953 41.0699 289.118 40.8473C268.284 40.6247 251.186 57.1625 250.618 77.9109L266.172 78.0771C266.977 65.8438 277.19 56.2266 289.599 56.3591Z" fill="#7EDFF4"/>
</g>
<mask id="mask2_1199_1049" style="mask-type:luminance" maskUnits="userSpaceOnUse" x="0" y="0" width="575" height="575">
<path d="M6.07457 2.562e-05L574.667 6.07459L568.592 574.667L0 568.592L6.07457 2.562e-05Z" fill="white"/>
</mask>
<g mask="url(#mask2_1199_1049)">
<path d="M431.877 96.2525C431.733 109.675 442.498 120.672 455.92 120.815C469.343 120.959 480.34 110.194 480.483 96.7717C480.627 83.3494 469.862 72.3523 456.44 72.2089C443.017 72.0655 432.02 82.8302 431.877 96.2525Z" fill="#8357FC"/>
<path d="M448.603 185.258L461.859 185.4L462.577 118.234L449.32 118.093L448.603 185.258Z" fill="#D8CAFF"/>
<path d="M413.485 245.869C413.099 281.987 430.196 311.452 451.671 311.682C473.147 311.911 490.869 282.818 491.255 246.7C491.641 210.582 474.544 181.116 453.069 180.887C431.593 180.657 413.871 209.751 413.485 245.869Z" fill="#AD8FFF"/>
</g>
<mask id="mask3_1199_1049" style="mask-type:luminance" maskUnits="userSpaceOnUse" x="0" y="0" width="575" height="575">
<path d="M6.07457 2.562e-05L574.667 6.07459L568.592 574.667L0 568.592L6.07457 2.562e-05Z" fill="white"/>
</mask>
<g mask="url(#mask3_1199_1049)">
<path d="M147.209 93.211C147.065 106.633 136.068 117.398 122.646 117.255C109.224 117.111 98.459 106.114 98.6024 92.6917C98.7458 79.2694 109.743 68.5047 123.165 68.6481C136.588 68.7915 147.352 79.7886 147.209 93.211Z" fill="#8357FC"/>
<path d="M128.585 181.839L115.328 181.698L116.046 114.532L129.302 114.674L128.585 181.839Z" fill="#D8CAFF"/>
<path d="M162.399 243.186C162.014 279.304 144.291 308.398 122.816 308.168C101.34 307.939 84.2435 278.474 84.6293 242.355C85.0152 206.237 102.738 177.144 124.213 177.373C145.689 177.603 162.785 207.068 162.399 243.186Z" fill="#AD8FFF"/>
</g>
<path d="M123.316 261.329C122.346 352.113 195.154 426.494 285.938 427.463C376.721 428.433 451.102 355.625 452.071 264.841C453.041 174.058 380.233 99.6779 289.45 98.7081C198.666 97.7382 124.286 170.546 123.316 261.329Z" fill="url(#paint0_linear_1199_1049)"/>
<path d="M146.436 248.319C158.88 324.463 227.221 297.794 287.758 298.441C353.598 299.144 416.089 323.676 427.469 251.322C435.048 203.674 383.464 150.976 289.344 149.97C194.341 148.955 147.052 190.683 146.436 248.319Z" fill="url(#paint1_linear_1199_1049)"/>
<path d="M334.499 244.988C334.297 263.886 344.833 279.32 358.032 279.461C371.23 279.602 382.093 264.396 382.295 245.498C382.497 226.6 371.961 211.166 358.763 211.025C345.564 210.884 334.701 226.089 334.499 244.988Z" fill="url(#paint2_linear_1199_1049)"/>
<path d="M191.476 243.573C191.274 262.472 201.81 277.906 215.008 278.047C228.207 278.188 239.07 262.983 239.272 244.084C239.474 225.186 228.938 209.752 215.74 209.611C202.541 209.47 191.678 224.675 191.476 243.573Z" fill="url(#paint3_linear_1199_1049)"/>
</g>
<defs>
<linearGradient id="paint0_linear_1199_1049" x1="287.357" y1="423.236" x2="288.119" y2="61.0254" gradientUnits="userSpaceOnUse">
<stop stop-color="#ACEFFF"/>
<stop offset="3.3e-07" stop-color="#ACEFFF"/>
<stop offset="1" stop-color="#42DBFF"/>
</linearGradient>
<linearGradient id="paint1_linear_1199_1049" x1="287.386" y1="300.296" x2="287.04" y2="18.6104" gradientUnits="userSpaceOnUse">
<stop stop-color="#CEEEFB"/>
<stop offset="0.511006" stop-color="#F7FDFF"/>
<stop offset="1" stop-color="#F7FDFF"/>
</linearGradient>
<linearGradient id="paint2_linear_1199_1049" x1="358.37" y1="271.612" x2="358.42" y2="223.814" gradientUnits="userSpaceOnUse">
<stop stop-color="#085D94"/>
<stop offset="1" stop-color="#004673"/>
</linearGradient>
<linearGradient id="paint3_linear_1199_1049" x1="215.346" y1="270.199" x2="215.396" y2="222.4" gradientUnits="userSpaceOnUse">
<stop stop-color="#085D94"/>
<stop offset="1" stop-color="#004673"/>
</linearGradient>
<clipPath id="clip0_1199_1049">
<rect width="568.625" height="568.625" fill="white" transform="translate(6.07422) rotate(0.612097)"/>
</clipPath>
</defs>
</svg>
