<svg width="15" height="24" viewBox="0 0 15 24" fill="none" xmlns="http://www.w3.org/2000/svg">
<path d="M1.39588 0.979192C1.20275 1.17193 1.04952 1.40086 0.944979 1.65289C0.840434 1.90492 0.786621 2.17509 0.786621 2.44794C0.786621 2.72079 0.840434 2.99097 0.944979 3.24299C1.04952 3.49502 1.20275 3.72396 1.39588 3.91669L9.47921 12L1.39588 20.0834C1.00634 20.4729 0.787503 21.0012 0.787503 21.5521C0.787503 22.103 1.00634 22.6313 1.39588 23.0209C1.78542 23.4104 2.31374 23.6292 2.86463 23.6292C3.41552 23.6292 3.94384 23.4104 4.33338 23.0209L13.8959 13.4584C14.089 13.2656 14.2422 13.0367 14.3468 12.7847C14.4513 12.5326 14.5051 12.2625 14.5051 11.9896C14.5051 11.7168 14.4513 11.4466 14.3468 11.1946C14.2422 10.9425 14.089 10.7136 13.8959 10.5209L4.33338 0.958359C3.54171 0.166692 2.20838 0.166692 1.39588 0.979192Z" fill="#676767"/>
</svg>
