<svg width="26" height="30" viewBox="0 0 26 30" fill="none" xmlns="http://www.w3.org/2000/svg">
<path d="M2.63977 15.7181L13.2478 5.11007C13.7586 4.59936 14.365 4.19427 15.0324 3.91792C15.6998 3.64158 16.4151 3.49939 17.1375 3.49949C17.8598 3.49958 18.5751 3.64195 19.2424 3.91846C19.9097 4.19498 20.5161 4.60023 21.0268 5.11107C21.5375 5.62191 21.9426 6.22834 22.2189 6.89574C22.4953 7.56314 22.6374 8.27843 22.6373 9.00078C22.6373 9.72312 22.4949 10.4384 22.2184 11.1057C21.9419 11.773 21.5366 12.3794 21.0258 12.8901L8.29777 25.6181C7.8286 26.0872 7.19227 26.3508 6.52877 26.3508C5.86527 26.3508 5.22894 26.0872 4.75977 25.6181C4.2906 25.1489 4.02703 24.5126 4.02703 23.8491C4.02703 23.1856 4.2906 22.5492 4.75977 22.0801L16.0738 10.7661C16.3387 10.4817 16.483 10.1056 16.4761 9.71703C16.4693 9.32842 16.3118 8.95765 16.037 8.68283C15.7622 8.408 15.3914 8.25058 15.0028 8.24372C14.6142 8.23686 14.2381 8.38111 13.9538 8.64607L2.63977 19.9601C1.60808 20.9918 1.02848 22.391 1.02848 23.8501C1.02848 25.3091 1.60808 26.7084 2.63977 27.7401C3.67146 28.7718 5.07074 29.3514 6.52977 29.3514C7.9888 29.3514 9.38808 28.7718 10.4198 27.7401L23.1458 15.0101C24.7092 13.4098 25.5786 11.2577 25.5656 9.02057C25.5526 6.78342 24.6581 4.6416 23.0762 3.05966C21.4942 1.47773 19.3524 0.583241 17.1153 0.570213C14.8781 0.557185 12.726 1.42667 11.1258 2.99007L0.519771 13.5961C0.254811 13.8804 0.110565 14.2565 0.117421 14.6451C0.124278 15.0337 0.281701 15.4045 0.556527 15.6793C0.831353 15.9541 1.20212 16.1116 1.59073 16.1184C1.97933 16.1253 2.35542 15.981 2.63977 15.7161V15.7181Z" fill="url(#paint0_linear_2805_1983)"/>
<defs>
<linearGradient id="paint0_linear_2805_1983" x1="0.117188" y1="14.9607" x2="25.5658" y2="14.9607" gradientUnits="userSpaceOnUse">
<stop stop-color="#6288E2"/>
<stop offset="1" stop-color="#73ACF9"/>
</linearGradient>
</defs>
</svg>
