<svg width="23" height="25" viewBox="0 0 23 25" fill="none" xmlns="http://www.w3.org/2000/svg">
<path d="M8.03778 23.1011V19.4064C8.03778 18.4632 8.80796 17.6986 9.75803 17.6986H13.231C13.6872 17.6986 14.1248 17.8785 14.4474 18.1988C14.77 18.5191 14.9512 18.9534 14.9512 19.4064V23.1011C14.9484 23.4932 15.1032 23.8703 15.3815 24.1485C15.6598 24.4268 16.0385 24.5833 16.4335 24.5833H18.8029C19.9095 24.5862 20.9717 24.1518 21.7552 23.376C22.5387 22.6002 22.9791 21.5468 22.9791 20.4482V9.92245C22.9791 9.03505 22.5828 8.19331 21.8972 7.62397L13.8369 1.23334C12.4348 0.112843 10.4258 0.149021 9.0656 1.31926L1.18922 7.62397C0.471147 8.17652 0.041961 9.02077 0.020752 9.92245V20.4375C0.020752 22.7272 1.8905 24.5833 4.19696 24.5833H6.51227C7.33265 24.5833 7.99937 23.9263 8.00532 23.1119L8.03778 23.1011Z" fill="#808080"/>
</svg>
