<svg width="24" height="24" viewBox="0 0 24 24" fill="none" xmlns="http://www.w3.org/2000/svg">
<path d="M9 2H18C19.1 2 20 2.9 20 4V20C20 21.1 19.1 22 18 22H9C7.9 22 7 21.1 7 20V19C7 18.7348 7.10536 18.4804 7.29289 18.2929C7.48043 18.1054 7.73478 18 8 18C8.26522 18 8.51957 18.1054 8.70711 18.2929C8.89464 18.4804 9 18.7348 9 19V20H18V4H9V5C9 5.26522 8.89464 5.51957 8.70711 5.70711C8.51957 5.89464 8.26522 6 8 6C7.73478 6 7.48043 5.89464 7.29289 5.70711C7.10536 5.51957 7 5.26522 7 5V4C7 2.9 7.9 2 9 2Z" fill="#676767"/>
<path d="M10.795 16.2951C11.185 16.6851 11.815 16.6851 12.205 16.2951L15.793 12.7071C15.9805 12.5196 16.0858 12.2653 16.0858 12.0001C16.0858 11.735 15.9805 11.4807 15.793 11.2931L12.205 7.70513C12.0149 7.53332 11.7661 7.44112 11.5099 7.44758C11.2538 7.45405 11.0099 7.55869 10.8287 7.73987C10.6476 7.92104 10.5429 8.16491 10.5365 8.42106C10.53 8.6772 10.6222 8.92604 10.794 9.11613L12.67 11.0001H4C3.73478 11.0001 3.48043 11.1055 3.29289 11.293C3.10536 11.4806 3 11.7349 3 12.0001C3 12.2653 3.10536 12.5197 3.29289 12.7072C3.48043 12.8948 3.73478 13.0001 4 13.0001H12.67L10.794 14.8841C10.6073 15.0715 10.5026 15.3253 10.5028 15.5898C10.503 15.8543 10.6081 16.108 10.795 16.2951Z" fill="#676767"/>
</svg>
