<svg width="22" height="23" viewBox="0 0 22 23" fill="none" xmlns="http://www.w3.org/2000/svg">
<path d="M21.1789 11.595C21.1891 10.8102 20.764 10.089 20.0737 9.71042L3.98717 0.872009C3.26665 0.464792 2.41729 0.514821 1.73835 0.978437C1.04695 1.44986 0.693066 2.5721 0.886343 3.38264L2.38809 9.67439C2.54226 10.3196 3.11968 10.7738 3.78398 10.771L12.7361 10.7432C13.1945 10.734 13.5663 11.1058 13.5571 11.5642C13.5557 12.0149 13.1894 12.3812 12.731 12.3904L3.77034 12.4112C3.10605 12.4125 2.5258 12.8688 2.36763 13.5149L0.812777 19.8317C0.623993 20.5782 0.839229 21.3234 1.36592 21.8501C1.42789 21.912 1.49759 21.9817 1.56735 22.0359C2.24944 22.5621 3.14272 22.6293 3.90539 22.2229L20.0465 13.471C20.7391 13.1036 21.1687 12.3797 21.1789 11.595Z" fill="white"/>
</svg>
