<svg width="21" height="23" viewBox="0 0 21 23" fill="none" xmlns="http://www.w3.org/2000/svg">
<path d="M12.5998 10.4546V16.7273M1.0498 5.22728H19.9498H1.0498ZM17.8498 5.22728V19.8636C17.8498 20.4182 17.6286 20.95 17.2347 21.3421C16.8409 21.7343 16.3068 21.9546 15.7498 21.9546H5.2498C4.69285 21.9546 4.15871 21.7343 3.76488 21.3421C3.37105 20.95 3.1498 20.4182 3.1498 19.8636V5.22728H17.8498ZM6.29981 5.22728V3.13637C6.29981 2.58183 6.52105 2.05 6.91488 1.65788C7.30871 1.26576 7.84285 1.04546 8.39981 1.04546L12.5998 1.04546C13.1568 1.04546 13.6909 1.26576 14.0847 1.65788C14.4786 2.05 14.6998 2.58183 14.6998 3.13637V5.22728H6.29981ZM8.39981 10.4546V16.7273V10.4546Z" stroke="url(#paint0_linear_2813_3605)" stroke-width="2" stroke-linecap="round" stroke-linejoin="round"/>
<defs>
<linearGradient id="paint0_linear_2813_3605" x1="1.0498" y1="11.5" x2="19.9498" y2="11.5" gradientUnits="userSpaceOnUse">
<stop stop-color="#6288E2"/>
<stop offset="1" stop-color="#73ACF9"/>
</linearGradient>
</defs>
</svg>
