<svg width="76" height="72" viewBox="0 0 76 72" fill="none" xmlns="http://www.w3.org/2000/svg">
<path d="M5.10857 65.5033C-2.51227 57.5077 0.653106 43.5021 8.64875 35.8813C13.2815 31.4657 26.8097 30.2955 34.3857 24.4747C39.2466 20.7399 41.0091 14.5504 43.5358 11.609C43.7556 11.3533 47.9604 6.01043 48.2749 5.71063C48.4061 5.57629 49.5856 4.46137 49.7227 4.33076C55.9193 -1.57539 65.3686 -0.994951 71.2747 5.20167C77.1809 11.3983 76.9454 21.2095 70.7488 27.1157C69.0499 28.735 67.0792 29.8926 64.9918 30.5923C60.5137 32.9633 52.0582 31.2332 46.8385 36.0905C42.45 40.1743 41.0871 50.539 39.004 55.8659C38.117 59.4154 35.5561 62.0402 32.7117 64.7512C24.7161 72.372 12.7294 73.499 5.10857 65.5033Z" fill="url(#paint0_linear_3426_3807)"/>
<defs>
<linearGradient id="paint0_linear_3426_3807" x1="82.7784" y1="17.2711" x2="-13.8291" y2="68.4481" gradientUnits="userSpaceOnUse">
<stop stop-color="#246FFF"/>
<stop offset="0.564948" stop-color="#075BFF"/>
<stop offset="1" stop-color="#003FBA"/>
</linearGradient>
</defs>
</svg>
