<svg width="192" height="192" viewBox="0 0 192 192" fill="none" xmlns="http://www.w3.org/2000/svg">
<path d="M74.8801 60.9599C80.2561 60.9599 84.5761 56.6399 84.5761 51.2639C84.5761 45.8879 80.2561 41.5679 74.8801 41.5679C69.5041 41.5679 65.1841 45.8879 65.1841 51.2639C65.1841 56.6399 69.5041 60.9599 74.8801 60.9599Z" fill="#F4F4F4"/>
<path fill-rule="evenodd" clip-rule="evenodd" d="M94.3682 82.0796C94.3682 71.7116 85.6322 64.2236 74.8802 64.2236C64.1282 64.2236 55.3922 71.7116 55.3922 82.0796V86.9756C55.3922 87.8396 55.7762 88.7036 56.3522 89.2796C56.9282 89.8556 57.7922 90.2396 58.6562 90.2396H91.1042C91.9682 90.2396 92.8322 89.8556 93.4082 89.2796C93.9842 88.7036 94.3682 87.8396 94.3682 86.9756V82.0796ZM55.2002 110.4C55.2002 108.49 55.9588 106.659 57.309 105.308C58.6593 103.958 60.4906 103.2 62.4002 103.2H129.6C131.51 103.2 133.341 103.958 134.691 105.308C136.042 106.659 136.8 108.49 136.8 110.4C136.8 112.309 136.042 114.141 134.691 115.491C133.341 116.841 131.51 117.6 129.6 117.6H62.4002C60.4906 117.6 58.6593 116.841 57.309 115.491C55.9588 114.141 55.2002 112.309 55.2002 110.4ZM55.2002 139.2C55.2002 137.29 55.9588 135.459 57.309 134.108C58.6593 132.758 60.4906 132 62.4002 132H129.6C131.51 132 133.341 132.758 134.691 134.108C136.042 135.459 136.8 137.29 136.8 139.2C136.8 141.109 136.042 142.941 134.691 144.291C133.341 145.641 131.51 146.4 129.6 146.4H62.4002C60.4906 146.4 58.6593 145.641 57.309 144.291C55.9588 142.941 55.2002 141.109 55.2002 139.2Z" fill="#F4F4F4"/>
<path fill-rule="evenodd" clip-rule="evenodd" d="M24 23.9998C24 13.4206 32.6208 4.7998 43.2 4.7998H107.424C112.819 4.7998 117.907 7.0846 121.488 10.8574L121.546 10.9246L162.941 56.0638C166.387 59.7406 168 64.5502 168 69.1198V168C168 178.579 159.379 187.2 148.8 187.2H43.2C32.6208 187.2 24 178.579 24 168V23.9998ZM107.414 23.9998H43.2V168H148.8V69.043L107.558 24.067L107.53 24.0574C107.495 24.032 107.456 24.0125 107.414 23.9998Z" fill="#F4F4F4"/>
<path fill-rule="evenodd" clip-rule="evenodd" d="M107.424 4.7998C109.97 4.7998 112.412 5.81123 114.212 7.61158C116.013 9.41193 117.024 11.8537 117.024 14.3998V59.5198H158.4C159.661 59.5198 160.909 59.7681 162.074 60.2506C163.239 60.733 164.297 61.4401 165.188 62.3316C166.08 63.223 166.787 64.2813 167.269 65.446C167.752 66.6108 168 67.8591 168 69.1198C168 70.3805 167.752 71.6288 167.269 72.7936C166.787 73.9583 166.08 75.0166 165.188 75.908C164.297 76.7995 163.239 77.5066 162.074 77.9891C160.909 78.4715 159.661 78.7198 158.4 78.7198H107.424C104.878 78.7198 102.436 77.7084 100.636 75.908C98.8356 74.1077 97.8242 71.6659 97.8242 69.1198V14.3998C97.8242 11.8537 98.8356 9.41193 100.636 7.61158C102.436 5.81123 104.878 4.7998 107.424 4.7998Z" fill="#F4F4F4"/>
</svg>
