<svg width="32" height="29" viewBox="0 0 32 29" fill="none" xmlns="http://www.w3.org/2000/svg">
<path fill-rule="evenodd" clip-rule="evenodd" d="M0 14.5005C0 13.9701 0.210691 13.4614 0.585721 13.0864C0.960752 12.7114 1.4694 12.5007 1.99978 12.5007H25.1692L16.5821 3.91766C16.2066 3.54215 15.9957 3.03286 15.9957 2.50181C15.9957 1.97077 16.2066 1.46148 16.5821 1.08597C16.9577 0.710468 17.4669 0.499512 17.998 0.499512C18.529 0.499512 19.0383 0.710468 19.4138 1.08597L31.4125 13.0846C31.5987 13.2704 31.7465 13.4911 31.8473 13.734C31.9481 13.977 32 14.2374 32 14.5005C32 14.7635 31.9481 15.0239 31.8473 15.2669C31.7465 15.5099 31.5987 15.7305 31.4125 15.9163L19.4138 27.915C19.0383 28.2905 18.529 28.5014 17.998 28.5014C17.4669 28.5014 16.9577 28.2905 16.5821 27.915C16.2066 27.5395 15.9957 27.0302 15.9957 26.4991C15.9957 25.9681 16.2066 25.4588 16.5821 25.0833L25.1692 16.5002H1.99978C1.4694 16.5002 0.960752 16.2895 0.585721 15.9145C0.210691 15.5395 0 15.0308 0 14.5005Z" fill="#075BFF"/>
</svg>
