<svg width="48" height="50" viewBox="0 0 48 50" fill="none" xmlns="http://www.w3.org/2000/svg">
<path d="M24.0141 5.31074C30.4303 5.31074 31.1902 5.33888 33.7135 5.45144C36.0586 5.55463 37.325 5.94861 38.1692 6.27693C39.2855 6.70843 40.0922 7.23374 40.9271 8.0686C41.7714 8.91285 42.2873 9.71019 42.7188 10.8265C43.0471 11.6707 43.4411 12.9465 43.5443 15.2822C43.6568 17.8149 43.685 18.5748 43.685 24.9816C43.685 31.3979 43.6568 32.1577 43.5443 34.6811C43.4411 37.0262 43.0471 38.2926 42.7188 39.1368C42.2873 40.2531 41.762 41.0598 40.9271 41.8947C40.0829 42.7389 39.2855 43.2548 38.1692 43.6864C37.325 44.0147 36.0492 44.4086 33.7135 44.5118C31.1808 44.6244 30.421 44.6525 24.0141 44.6525C17.5978 44.6525 16.838 44.6244 14.3146 44.5118C11.9695 44.4086 10.7031 44.0147 9.8589 43.6864C8.74262 43.2548 7.9359 42.7295 7.10104 41.8947C6.25679 41.0504 5.74086 40.2531 5.30936 39.1368C4.98104 38.2926 4.58706 37.0168 4.48388 34.6811C4.37131 32.1483 4.34317 31.3885 4.34317 24.9816C4.34317 18.5654 4.37131 17.8056 4.48388 15.2822C4.58706 12.9371 4.98104 11.6707 5.30936 10.8265C5.74086 9.71019 6.26617 8.90347 7.10104 8.0686C7.94528 7.22436 8.74262 6.70843 9.8589 6.27693C10.7031 5.94861 11.9789 5.55463 14.3146 5.45144C16.838 5.33888 17.5978 5.31074 24.0141 5.31074ZM24.0141 0.986328C17.4946 0.986328 16.6785 1.01447 14.1176 1.12704C11.5662 1.2396 9.812 1.65234 8.29236 2.24331C6.70706 2.86243 5.36564 3.67853 4.03361 5.01994C2.6922 6.35197 1.8761 7.69338 1.25699 9.26931C0.666015 10.7983 0.253273 12.5431 0.140707 15.0946C0.0281415 17.6648 0 18.481 0 25.0004C0 31.5198 0.0281415 32.3359 0.140707 34.8968C0.253273 37.4483 0.666015 39.2025 1.25699 40.7221C1.8761 42.3074 2.6922 43.6488 4.03361 44.9809C5.36564 46.3129 6.70706 47.1384 8.28298 47.7481C9.812 48.3391 11.5568 48.7518 14.1083 48.8644C16.6691 48.9769 17.4852 49.0051 24.0047 49.0051C30.5241 49.0051 31.3402 48.9769 33.9011 48.8644C36.4526 48.7518 38.2068 48.3391 39.7264 47.7481C41.3023 47.1384 42.6437 46.3129 43.9758 44.9809C45.3078 43.6488 46.1333 42.3074 46.743 40.7315C47.334 39.2025 47.7467 37.4577 47.8593 34.9062C47.9719 32.3453 48 31.5292 48 25.0098C48 18.4903 47.9719 17.6742 47.8593 15.1134C47.7467 12.5619 47.334 10.8077 46.743 9.28807C46.152 7.69338 45.3359 6.35197 43.9945 5.01994C42.6625 3.68791 41.3211 2.86243 39.7452 2.2527C38.2161 1.66172 36.4714 1.24898 33.9199 1.13642C31.3496 1.01447 30.5335 0.986328 24.0141 0.986328Z" fill="url(#paint0_linear_3392_4408)"/>
<path d="M24.0141 12.665C17.2038 12.665 11.6787 18.1902 11.6787 25.0004C11.6787 31.8106 17.2038 37.3357 24.0141 37.3357C30.8243 37.3357 36.3494 31.8106 36.3494 25.0004C36.3494 18.1902 30.8243 12.665 24.0141 12.665ZM24.0141 33.002C19.5959 33.002 16.0125 29.4186 16.0125 25.0004C16.0125 20.5822 19.5959 16.9988 24.0141 16.9988C28.4323 16.9988 32.0156 20.5822 32.0156 25.0004C32.0156 29.4186 28.4323 33.002 24.0141 33.002Z" fill="url(#paint1_linear_3392_4408)"/>
<path d="M39.7171 12.1777C39.7171 13.7724 38.4226 15.0575 36.8373 15.0575C35.2426 15.0575 33.9575 13.763 33.9575 12.1777C33.9575 10.583 35.252 9.29785 36.8373 9.29785C38.4226 9.29785 39.7171 10.5924 39.7171 12.1777Z" fill="url(#paint2_linear_3392_4408)"/>
<defs>
<linearGradient id="paint0_linear_3392_4408" x1="5.85993e-07" y1="0.764132" x2="60.0748" y2="7.84286" gradientUnits="userSpaceOnUse">
<stop stop-color="#246FFF"/>
<stop offset="0.564948" stop-color="#075BFF"/>
<stop offset="1" stop-color="#003FBA"/>
</linearGradient>
<linearGradient id="paint1_linear_3392_4408" x1="11.6787" y1="12.5509" x2="42.5552" y2="16.1905" gradientUnits="userSpaceOnUse">
<stop stop-color="#246FFF"/>
<stop offset="0.564948" stop-color="#075BFF"/>
<stop offset="1" stop-color="#003FBA"/>
</linearGradient>
<linearGradient id="paint2_linear_3392_4408" x1="33.9575" y1="9.2712" x2="41.166" y2="10.1209" gradientUnits="userSpaceOnUse">
<stop stop-color="#246FFF"/>
<stop offset="0.564948" stop-color="#075BFF"/>
<stop offset="1" stop-color="#003FBA"/>
</linearGradient>
</defs>
</svg>
