<svg width="216" height="203" viewBox="0 0 216 203" fill="none" xmlns="http://www.w3.org/2000/svg">
<path d="M100.8 101.5C100.8 93.4948 97.9875 86.6602 92.3625 80.9961C86.7375 75.332 79.95 72.5 72 72.5C64.05 72.5 57.2625 75.332 51.6375 80.9961C46.0125 86.6602 43.2 93.4948 43.2 101.5C43.2 109.505 46.0125 116.34 51.6375 122.004C57.2625 127.668 64.05 130.5 72 130.5C79.95 130.5 86.7375 127.668 92.3625 122.004C97.9875 116.34 100.8 109.505 100.8 101.5ZM187.2 159.5C187.2 155.573 185.775 152.174 182.925 149.305C180.075 146.435 176.7 145 172.8 145C168.9 145 165.525 146.435 162.675 149.305C159.825 152.174 158.4 155.573 158.4 159.5C158.4 163.503 159.806 166.92 162.619 169.752C165.431 172.584 168.825 174 172.8 174C176.775 174 180.169 172.584 182.981 169.752C185.794 166.92 187.2 163.503 187.2 159.5ZM187.2 43.5C187.2 39.5729 185.775 36.1745 182.925 33.3047C180.075 30.4349 176.7 29 172.8 29C168.9 29 165.525 30.4349 162.675 33.3047C159.825 36.1745 158.4 39.5729 158.4 43.5C158.4 47.5026 159.806 50.9199 162.619 53.752C165.431 56.584 168.825 58 172.8 58C176.775 58 180.169 56.584 182.981 53.752C185.794 50.9199 187.2 47.5026 187.2 43.5ZM144 91.1914V112.148C144 112.904 143.737 113.64 143.212 114.357C142.687 115.075 142.087 115.471 141.412 115.547L123.975 118.266C123.15 120.909 121.95 123.779 120.375 126.875C122.925 130.5 126.3 134.842 130.5 139.902C131.025 140.733 131.287 141.488 131.287 142.168C131.287 143.074 131.025 143.792 130.5 144.32C128.775 146.586 125.681 149.965 121.219 154.459C116.756 158.952 113.812 161.199 112.387 161.199C111.562 161.199 110.775 160.935 110.025 160.406L97.0875 150.211C94.3125 151.646 91.425 152.816 88.425 153.723C87.6 161.879 86.7375 167.732 85.8375 171.281C85.3125 173.094 84.1875 174 82.4625 174H61.5375C60.7125 174 59.9625 173.717 59.2875 173.15C58.6125 172.584 58.2375 171.923 58.1625 171.168L55.575 153.836C53.025 153.081 50.2125 151.91 47.1375 150.324L33.8625 160.406C33.3375 160.935 32.5875 161.199 31.6125 161.199C30.7875 161.199 30 160.897 29.25 160.293C18.45 150.249 13.05 144.207 13.05 142.168C13.05 141.488 13.3125 140.771 13.8375 140.016C14.5875 138.958 16.125 136.957 18.45 134.012C20.775 131.066 22.5375 128.763 23.7375 127.102C22.0125 123.779 20.7 120.682 19.8 117.812L2.7 115.094C1.95 115.018 1.3125 114.66 0.7875 114.018C0.2625 113.376 0 112.639 0 111.809V90.8516C0 90.0964 0.2625 89.36 0.7875 88.6426C1.3125 87.9251 1.9125 87.5286 2.5875 87.4531L20.025 84.7344C20.85 82.0911 22.05 79.2214 23.625 76.125C21.075 72.5 17.7 68.1576 13.5 63.0977C12.975 62.2669 12.7125 61.5117 12.7125 60.832C12.7125 59.9258 12.975 59.1706 13.5 58.5664C15.15 56.3008 18.225 52.9401 22.725 48.4844C27.225 44.0286 30.1875 41.8008 31.6125 41.8008C32.4375 41.8008 33.225 42.0651 33.975 42.5938L46.9125 52.7891C49.4625 51.4297 52.35 50.2214 55.575 49.1641C56.4 41.0078 57.2625 35.1927 58.1625 31.7188C58.6875 29.9062 59.8125 29 61.5375 29H82.4625C83.2875 29 84.0375 29.2832 84.7125 29.8496C85.3875 30.416 85.7625 31.0768 85.8375 31.832L88.425 49.1641C90.975 49.9193 93.7875 51.0898 96.8625 52.6758L110.137 42.5938C110.737 42.0651 111.487 41.8008 112.387 41.8008C113.212 41.8008 114 42.1029 114.75 42.707C125.55 52.7513 130.95 58.793 130.95 60.832C130.95 61.4362 130.687 62.1536 130.162 62.9844C129.262 64.1927 127.688 66.2318 125.438 69.1016C123.188 71.9714 121.5 74.237 120.375 75.8984C122.1 79.5234 123.375 82.6198 124.2 85.1875L141.3 87.793C142.05 87.944 142.687 88.3405 143.212 88.9824C143.737 89.6243 144 90.3607 144 91.1914ZM216 151.57V167.43C216 168.638 210.412 169.809 199.237 170.941C198.337 172.98 197.212 174.944 195.862 176.832C199.687 185.366 201.6 190.577 201.6 192.465C201.6 192.767 201.45 193.031 201.15 193.258C192 198.62 187.35 201.301 187.2 201.301C186.6 201.301 184.875 199.526 182.025 195.977C179.175 192.427 177.225 189.859 176.175 188.273C174.675 188.424 173.55 188.5 172.8 188.5C172.05 188.5 170.925 188.424 169.425 188.273C168.375 189.859 166.425 192.427 163.575 195.977C160.725 199.526 159 201.301 158.4 201.301C158.25 201.301 153.6 198.62 144.45 193.258C144.15 193.031 144 192.767 144 192.465C144 190.577 145.913 185.366 149.738 176.832C148.388 174.944 147.263 172.98 146.363 170.941C135.188 169.809 129.6 168.638 129.6 167.43V151.57C129.6 150.362 135.188 149.191 146.363 148.059C147.338 145.868 148.463 143.905 149.738 142.168C145.913 133.634 144 128.423 144 126.535C144 126.233 144.15 125.969 144.45 125.742C144.75 125.591 146.062 124.836 148.387 123.477C150.712 122.117 152.925 120.833 155.025 119.625C157.125 118.417 158.25 117.812 158.4 117.812C159 117.812 160.725 119.568 163.575 123.08C166.425 126.592 168.375 129.141 169.425 130.727C170.925 130.576 172.05 130.5 172.8 130.5C173.55 130.5 174.675 130.576 176.175 130.727C180 125.365 183.45 121.135 186.525 118.039L187.2 117.812C187.5 117.812 192.15 120.456 201.15 125.742C201.45 125.969 201.6 126.233 201.6 126.535C201.6 128.423 199.687 133.634 195.862 142.168C197.137 143.905 198.262 145.868 199.237 148.059C210.412 149.191 216 150.362 216 151.57ZM216 35.5703V51.4297C216 52.638 210.412 53.8086 199.237 54.9414C198.337 56.9805 197.212 58.944 195.862 60.832C199.687 69.3659 201.6 74.5768 201.6 76.4648C201.6 76.7669 201.45 77.0312 201.15 77.2578C192 82.6198 187.35 85.3008 187.2 85.3008C186.6 85.3008 184.875 83.526 182.025 79.9766C179.175 76.4271 177.225 73.8594 176.175 72.2734C174.675 72.4245 173.55 72.5 172.8 72.5C172.05 72.5 170.925 72.4245 169.425 72.2734C168.375 73.8594 166.425 76.4271 163.575 79.9766C160.725 83.526 159 85.3008 158.4 85.3008C158.25 85.3008 153.6 82.6198 144.45 77.2578C144.15 77.0312 144 76.7669 144 76.4648C144 74.5768 145.913 69.3659 149.738 60.832C148.388 58.944 147.263 56.9805 146.363 54.9414C135.188 53.8086 129.6 52.638 129.6 51.4297V35.5703C129.6 34.362 135.188 33.1914 146.363 32.0586C147.338 29.8685 148.463 27.9049 149.738 26.168C145.913 17.6341 144 12.4232 144 10.5352C144 10.2331 144.15 9.96875 144.45 9.74219C144.75 9.59115 146.062 8.83594 148.387 7.47656C150.712 6.11719 152.925 4.83333 155.025 3.625C157.125 2.41667 158.25 1.8125 158.4 1.8125C159 1.8125 160.725 3.56836 163.575 7.08008C166.425 10.5918 168.375 13.1406 169.425 14.7266C170.925 14.5755 172.05 14.5 172.8 14.5C173.55 14.5 174.675 14.5755 176.175 14.7266C180 9.36458 183.45 5.13542 186.525 2.03906L187.2 1.8125C187.5 1.8125 192.15 4.45573 201.15 9.74219C201.45 9.96875 201.6 10.2331 201.6 10.5352C201.6 12.4232 199.687 17.6341 195.862 26.168C197.137 27.9049 198.262 29.8685 199.237 32.0586C210.412 33.1914 216 34.362 216 35.5703Z" fill="#F4F4F4"/>
</svg>
