<svg width="38" height="38" viewBox="0 0 38 38" fill="none" xmlns="http://www.w3.org/2000/svg">
<g clip-path="url(#clip0_3613_4564)">
<path d="M21.4344 19C21.4344 24.9019 16.6369 29.6875 10.716 29.6875C9.31063 29.6894 7.91864 29.4144 6.61953 28.8783C5.32042 28.3423 4.13962 27.5555 3.14454 26.5631C2.14947 25.5707 1.35961 24.392 0.820073 23.0943C0.280531 21.7966 0.00187009 20.4054 0 19C0 13.0958 4.7975 8.31251 10.716 8.31251C12.1216 8.31033 13.5138 8.58505 14.8132 9.121C16.1126 9.65694 17.2937 10.4436 18.289 11.4361C19.2843 12.4285 20.0744 13.6073 20.6141 14.9052C21.1538 16.203 21.4325 17.5944 21.4344 19V19ZM33.1906 19C33.1906 24.5575 30.7919 29.0605 27.8326 29.0605C24.8734 29.0605 22.4746 24.5551 22.4746 19C22.4746 13.4425 24.8734 8.93951 27.8326 8.93951C30.7919 8.93951 33.1906 13.4449 33.1906 19ZM38 19C38 23.978 37.1569 28.0131 36.1143 28.0131C35.074 28.0131 34.2309 23.9756 34.2309 19C34.2309 14.022 35.074 9.98689 36.1166 9.98689C37.1569 9.98689 38 14.022 38 19Z" fill="url(#paint0_linear_3613_4564)"/>
</g>
<defs>
<linearGradient id="paint0_linear_3613_4564" x1="4.63911e-07" y1="8.21359" x2="46.1911" y2="17.8934" gradientUnits="userSpaceOnUse">
<stop stop-color="#246FFF"/>
<stop offset="0.564948" stop-color="#075BFF"/>
<stop offset="1" stop-color="#003FBA"/>
</linearGradient>
<clipPath id="clip0_3613_4564">
<rect width="38" height="38" fill="white"/>
</clipPath>
</defs>
</svg>
