<svg width="184" height="180" viewBox="0 0 184 180" fill="none" xmlns="http://www.w3.org/2000/svg">
<path d="M165.333 134.583C170.063 134.583 174.599 132.705 177.943 129.36C181.288 126.016 183.167 121.48 183.167 116.75V18.6668C183.167 13.9371 181.288 9.40116 177.943 6.05676C174.599 2.71236 170.063 0.833496 165.333 0.833496H71.3517C74.4725 6.27266 76.1667 12.4252 76.1667 18.6668H165.333V116.75H85.0833V134.583M120.75 45.4168V63.2502H67.25V179.167H49.4167V125.667H31.5833V179.167H13.75V107.833H0.375V63.2502C0.375 58.5205 2.25386 53.9845 5.59826 50.6401C8.94266 47.2957 13.4786 45.4168 18.2083 45.4168H120.75ZM58.3333 18.6668C58.3333 23.3965 56.4545 27.9325 53.1101 31.2769C49.7657 34.6213 45.2297 36.5002 40.5 36.5002C35.7703 36.5002 31.2343 34.6213 27.8899 31.2769C24.5455 27.9325 22.6667 23.3965 22.6667 18.6668C22.6667 13.9371 24.5455 9.40116 27.8899 6.05676C31.2343 2.71236 35.7703 0.833496 40.5 0.833496C45.2297 0.833496 49.7657 2.71236 53.1101 6.05676C56.4545 9.40116 58.3333 13.9371 58.3333 18.6668Z" fill="#F4F4F4"/>
</svg>
