<svg width="226" height="180" viewBox="0 0 226 180" fill="none" xmlns="http://www.w3.org/2000/svg">
<path d="M67.8 90C89.6584 90 107.35 72.3867 107.35 50.625C107.35 28.8633 89.6584 11.25 67.8 11.25C45.9416 11.25 28.25 28.8633 28.25 50.625C28.25 72.3867 45.9416 90 67.8 90ZM94.92 101.25H91.9891C84.6441 104.766 76.4869 106.875 67.8 106.875C59.1131 106.875 50.9912 104.766 43.6109 101.25H40.68C18.2213 101.25 0 119.391 0 141.75V151.875C0 161.191 7.59219 168.75 16.95 168.75H118.65C128.008 168.75 135.6 161.191 135.6 151.875V141.75C135.6 119.391 117.379 101.25 94.92 101.25ZM169.5 90C188.216 90 203.4 74.8828 203.4 56.25C203.4 37.6172 188.216 22.5 169.5 22.5C150.784 22.5 135.6 37.6172 135.6 56.25C135.6 74.8828 150.784 90 169.5 90ZM186.45 101.25H185.108C180.2 102.938 175.009 104.062 169.5 104.062C163.991 104.062 158.8 102.938 153.892 101.25H152.55C145.346 101.25 138.708 103.324 132.881 106.664C141.497 115.91 146.9 128.18 146.9 141.75V155.25C146.9 156.023 146.723 156.762 146.688 157.5H209.05C218.408 157.5 226 149.941 226 140.625C226 118.863 208.308 101.25 186.45 101.25Z" fill="#F4F4F4"/>
</svg>
