<svg width="48" height="40" viewBox="0 0 48 40" fill="none" xmlns="http://www.w3.org/2000/svg">
<path d="M15.1003 40C33.2091 40 43.1166 24.6092 43.1166 11.2664C43.1166 10.8338 43.1072 10.3915 43.0884 9.9588C45.0157 8.52931 46.679 6.7587 48 4.73014C46.205 5.54919 44.2993 6.08411 42.3478 6.31662C44.4026 5.05344 45.9411 3.06902 46.6781 0.731253C44.7451 1.90617 42.6312 2.73496 40.4269 3.18212C38.9417 1.56362 36.978 0.491979 34.8394 0.132884C32.7008 -0.226211 30.5064 0.147241 28.5955 1.1955C26.6846 2.24376 25.1636 3.90845 24.2677 5.93218C23.3718 7.95591 23.1509 10.226 23.6391 12.3914C19.725 12.19 15.8959 11.1472 12.4 9.33059C8.90405 7.51403 5.81939 4.96427 3.34594 1.8466C2.0888 4.06954 1.70411 6.70001 2.27006 9.2034C2.83601 11.7068 4.31013 13.8952 6.39281 15.324C4.82926 15.2731 3.29995 14.8413 1.93125 14.0644V14.1894C1.92985 16.5222 2.7162 18.7836 4.15662 20.589C5.59704 22.3944 7.60265 23.6325 9.8325 24.0929C8.38411 24.4993 6.86396 24.5585 5.38969 24.266C6.01891 26.2722 7.24315 28.0269 8.89154 29.2852C10.5399 30.5435 12.5302 31.2426 14.5847 31.2849C11.0968 34.0948 6.78835 35.6189 2.35313 35.6117C1.56657 35.6105 0.780798 35.561 0 35.4636C4.50571 38.4283 9.74706 40.0029 15.1003 40Z" fill="url(#paint0_linear_3392_4406)"/>
<defs>
<linearGradient id="paint0_linear_3392_4406" x1="5.85993e-07" y1="-0.185091" x2="59.7141" y2="8.26168" gradientUnits="userSpaceOnUse">
<stop stop-color="#246FFF"/>
<stop offset="0.564948" stop-color="#075BFF"/>
<stop offset="1" stop-color="#003FBA"/>
</linearGradient>
</defs>
</svg>
